<svg xmlns="http://www.w3.org/2000/svg" viewBox="0 0 125 50">
  <path style="fill:#418fde"
    d="M 38.7,7.8 31,15.5 H 15.5 v 5.8 h 7.8 v 7.8 H 15.5 v 9.7 l -7.8,7.8 h 7.8 c 0.6,0 1.1,-0.4 1.3,-0.9 l 1.4,-4.3 c 0.1,-0.4 0.5,-0.7 0.9,-0.9 l 1.1,-0.3 c 0.4,-0.1 0.9,-0.1 1.2,0.2 l 3.7,2.7 c 0.5,0.3 1.1,0.3 1.6,0 l 3.3,-2.4 c 0.5,-0.3 0.7,-1 0.5,-1.5 l -1.4,-4.3 c -0.1,-0.4 -0.1,-0.9 0.2,-1.2 l 0.7,-0.9 c 0.3,-0.3 0.7,-0.6 1.1,-0.6 l 4.5,0 c 0.6,0 1.1,-0.4 1.3,-0.9 l 1.3,-3.9 c 0.2,-0.6 0,-1.2 -0.5,-1.5 l -3.7,-2.7 c -0.3,-0.3 -0.6,-0.7 -0.6,-1.1 V 20.7 c 0,-0.4 0.2,-0.8 0.6,-1.1 l 4.2,-3.1 c 0.3,-0.3 0.6,-0.7 0.6,-1.1 z" />
  <path style="fill:#ff585d"
    d="m 31,0 -7.8,7.8 h 7.8 v 7.8 L 38.7,7.8 V 0 Z M 7.8,31 0,38.7 v 7.8 h 7.8 l 7.8,-7.8 H 7.8 Z" />
  <path style="fill:#cb333b"
    d="M 7.8,0 0,7.8 v 31 l 7.8,-7.8 V 7.8 H 23.2 L 31,0 Z" />
  <path style="fill:#fefefe"
    d="m 7.8,38.7 h 7.8 v -9.7 h 7.8 V 21.3 H 15.5 V 15.5 H 31 V 7.8 H 7.8 Z" />
  <path style="fill:currentColor" aria-label="FPA"
    d="m 61,39 h 5.4 V 27.1 h 9 v -5.2 h -9 v -6.8 h 9.4 V 9.9 h -14.8 z m 19.5,0 h 5.4 V 28 h 1.7 c 4,0 5.8,-0.3 7.4,-1.2 2.5,-1.4 4,-4.4 4,-7.9 0,-3.3 -1.3,-5.9 -3.7,-7.5 -1.7,-1.1 -3.7,-1.5 -7.7,-1.5 h -7.2 z m 5.4,-16.2 v -7.7 h 1.8 c 1.8,0 2.6,0.1 3.4,0.3 1.6,0.4 2.5,1.8 2.5,3.7 0,1.6 -0.9,3 -2.5,3.4 -0.9,0.3 -2.1,0.4 -3.7,0.4 z m 10.9,16.2 h 5.9 l 3.2,-7.5 h 10.3 l 3.1,7.5 h 5.9 L 113.2,9.9 h -4.2 z m 11.1,-12.7 3.1,-8.8 3.1,8.8 z" />
</svg>