<?xml version='1.0' encoding='utf-8'?>
<svg xmlns="http://www.w3.org/2000/svg" height="12rem" viewBox="0 0 150 64" >

<path style="font-size:13.3333px;font-family:Evolventa;-inkscape-font-specification:'Evolventa, Normal';font-variant-ligatures:no-common-ligatures;fill:#212529;stroke-width:2;stroke-linecap:round;stroke-linejoin:round"
  d="m 37.44,62.43 h 0.61 v -2.77 h 2.38 v -0.55 h -2.38 v -2.19 h 2.47 v -0.55 H 37.44 Z m 3.78,0 h 0.61 v -2.62 c 0,-0.84 0.43,-1.3 1.27,-1.38 v -0.6 c -0.65,0.03 -1.03,0.25 -1.27,0.75 v -0.64 h -0.61 z m 6.73,-2.04 c 0,-0.6 -0.07,-0.95 -0.27,-1.33 -0.39,-0.75 -1.19,-1.22 -2.07,-1.22 -1.3,0 -2.32,1.02 -2.32,2.33 0,1.33 1.04,2.37 2.37,2.37 0.98,0 1.85,-0.64 2.18,-1.58 H 47.2 c -0.25,0.61 -0.89,1.02 -1.57,1.02 -0.93,0 -1.7,-0.71 -1.75,-1.59 z m -4.04,-0.55 c 0.16,-0.86 0.84,-1.44 1.7,-1.44 0.87,0 1.53,0.55 1.74,1.44 z m 9.37,0.55 c 0,-0.6 -0.07,-0.95 -0.27,-1.33 -0.39,-0.75 -1.19,-1.22 -2.07,-1.22 -1.3,0 -2.32,1.02 -2.32,2.33 0,1.33 1.04,2.37 2.37,2.37 0.98,0 1.85,-0.64 2.18,-1.58 h -0.63 c -0.25,0.61 -0.89,1.02 -1.57,1.02 -0.93,0 -1.7,-0.71 -1.75,-1.59 z m -4.04,-0.55 c 0.16,-0.86 0.84,-1.44 1.7,-1.44 0.87,0 1.53,0.55 1.74,1.44 z" />
<path style="font-size:13.3333px;font-family:Evolventa;-inkscape-font-specification:'Evolventa, Normal';font-variant-ligatures:no-common-ligatures;fill:#212529;stroke-width:2;stroke-linecap:round;stroke-linejoin:round"
  d="m 59.24,60.83 c -0.24,0.31 -0.39,0.46 -0.57,0.61 -0.42,0.34 -0.97,0.52 -1.53,0.52 -1.41,0 -2.56,-1.16 -2.56,-2.58 0,-1.46 1.1,-2.57 2.55,-2.57 0.52,0 0.98,0.13 1.39,0.39 0.29,0.18 0.46,0.36 0.7,0.74 h 0.68 c -0.47,-1.04 -1.53,-1.68 -2.79,-1.68 -1.8,0 -3.14,1.34 -3.14,3.16 0,1.77 1.37,3.12 3.18,3.12 1.23,0 2.16,-0.57 2.77,-1.7 z m 0.93,1.59 h 0.64 l 0.89,-2.04 h 2.82 l 0.88,2.04 h 0.66 l -2.61,-6.06 h -0.68 z m 1.75,-2.59 1.19,-2.78 1.16,2.78 z m 4.85,2.59 h 1.63 c 0.88,0 1.5,-0.13 2.03,-0.42 0.95,-0.52 1.46,-1.43 1.46,-2.59 0,-1.12 -0.45,-1.99 -1.31,-2.53 -0.59,-0.38 -1.25,-0.52 -2.38,-0.52 h -1.43 z m 0.61,-0.55 v -4.96 h 0.84 c 0.89,0 1.45,0.11 1.89,0.36 0.73,0.41 1.16,1.19 1.16,2.12 0,0.77 -0.3,1.45 -0.82,1.9 -0.49,0.42 -1.12,0.58 -2.23,0.58 z" />
<path style="font-size:13.3333px;font-family:Evolventa;-inkscape-font-specification:'Evolventa, Normal';font-variant-ligatures:no-common-ligatures;fill:#212529;stroke-width:2;stroke-linecap:round;stroke-linejoin:round"
  d="m 75.15,62.43 h 0.61 v -2.45 h 1.16 c 0.82,0 1.26,-0.11 1.63,-0.38 0.39,-0.29 0.61,-0.79 0.61,-1.39 0,-0.7 -0.26,-1.25 -0.72,-1.52 -0.38,-0.23 -0.84,-0.32 -1.62,-0.32 h -1.67 z m 0.61,-3 v -2.51 h 0.86 c 0.6,0 0.98,0.04 1.25,0.13 0.43,0.14 0.68,0.56 0.68,1.15 0,0.48 -0.18,0.85 -0.5,1.02 -0.25,0.15 -0.61,0.2 -1.16,0.2 z m 4.14,3 h 0.61 v -2.62 c 0,-0.84 0.43,-1.3 1.27,-1.38 v -0.6 c -0.65,0.03 -1.03,0.25 -1.27,0.75 v -0.64 h -0.61 z m 4.45,-4.59 c -1.38,0 -2.38,0.99 -2.38,2.35 0,1.34 1.02,2.35 2.39,2.35 1.32,0 2.29,-0.99 2.29,-2.34 0,-1.35 -0.98,-2.36 -2.3,-2.36 z m -0.05,0.56 c 1.02,0 1.74,0.75 1.74,1.81 0,1.03 -0.71,1.77 -1.69,1.77 -1.02,0 -1.76,-0.75 -1.76,-1.78 0,-1.03 0.73,-1.8 1.71,-1.8 z m 3.85,-0.45 h -0.61 v 4.17 c 0,0.93 -0.23,1.26 -0.91,1.3 V 64 c 0.38,-0.02 0.64,-0.1 0.9,-0.28 0.47,-0.33 0.61,-0.71 0.61,-1.61 z m -0.61,-0.54 h 0.61 v -1.03 h -0.61 z m 6.13,2.98 c 0,-0.6 -0.07,-0.95 -0.27,-1.33 -0.39,-0.75 -1.19,-1.22 -2.07,-1.22 -1.3,0 -2.32,1.02 -2.32,2.33 0,1.33 1.04,2.37 2.37,2.37 0.98,0 1.85,-0.64 2.18,-1.58 h -0.63 c -0.25,0.61 -0.89,1.02 -1.57,1.02 -0.93,0 -1.7,-0.71 -1.75,-1.59 z m -4.04,-0.55 c 0.16,-0.86 0.84,-1.44 1.7,-1.44 0.87,0 1.53,0.55 1.74,1.44 z m 8.66,1.27 c -0.47,0.62 -0.89,0.87 -1.53,0.87 -1.01,0 -1.8,-0.79 -1.8,-1.79 0,-1.01 0.78,-1.8 1.78,-1.8 0.66,0 1.21,0.32 1.56,0.91 h 0.68 c -0.36,-0.9 -1.21,-1.47 -2.23,-1.47 -1.34,0 -2.4,1.03 -2.4,2.34 0,1.34 1.07,2.36 2.44,2.36 0.54,0 1.05,-0.16 1.46,-0.48 0.3,-0.23 0.48,-0.47 0.74,-0.94 z m 2.07,1.32 h 0.61 v -3.94 h 1.01 v -0.55 h -1.01 v -1.57 h -0.61 v 1.57 h -0.97 v 0.55 h 0.97 z m 4.08,0 h 0.64 l 0.89,-2.04 h 2.82 l 0.88,2.04 h 0.66 l -2.61,-6.06 h -0.68 z m 1.75,-2.59 1.19,-2.78 1.16,2.78 z m 4.37,1.27 c 0.01,0.87 0.57,1.43 1.44,1.43 0.81,0 1.37,-0.57 1.37,-1.39 0,-0.55 -0.25,-0.93 -0.78,-1.15 -0.67,-0.28 -0.71,-0.3 -0.84,-0.35 -0.29,-0.15 -0.42,-0.34 -0.42,-0.6 0,-0.36 0.29,-0.65 0.65,-0.65 0.39,0 0.62,0.23 0.66,0.66 h 0.61 c -0.02,-0.72 -0.54,-1.21 -1.26,-1.21 -0.74,0 -1.27,0.53 -1.27,1.26 0,0.33 0.11,0.6 0.34,0.8 0.19,0.17 0.2,0.17 0.83,0.43 0.71,0.29 0.87,0.45 0.87,0.86 0,0.45 -0.31,0.78 -0.75,0.78 -0.51,0 -0.81,-0.31 -0.84,-0.87 z m 3.18,0 c 0.01,0.87 0.57,1.43 1.44,1.43 0.81,0 1.37,-0.57 1.37,-1.39 0,-0.55 -0.25,-0.93 -0.78,-1.15 -0.67,-0.28 -0.71,-0.3 -0.84,-0.35 -0.29,-0.15 -0.42,-0.34 -0.42,-0.6 0,-0.36 0.29,-0.65 0.65,-0.65 0.39,0 0.62,0.23 0.66,0.66 h 0.61 c -0.02,-0.72 -0.54,-1.21 -1.26,-1.21 -0.74,0 -1.27,0.53 -1.27,1.26 0,0.33 0.11,0.6 0.34,0.8 0.19,0.17 0.2,0.17 0.83,0.43 0.71,0.29 0.87,0.45 0.87,0.86 0,0.45 -0.31,0.78 -0.75,0.78 -0.51,0 -0.81,-0.31 -0.84,-0.87 z m 5.76,-3.27 c -1.38,0 -2.38,0.99 -2.38,2.35 0,1.34 1.02,2.35 2.39,2.35 1.32,0 2.29,-0.99 2.29,-2.34 0,-1.35 -0.98,-2.36 -2.3,-2.36 z m -0.05,0.56 c 1.02,0 1.74,0.75 1.74,1.81 0,1.03 -0.71,1.77 -1.69,1.77 -1.02,0 -1.76,-0.75 -1.76,-1.78 0,-1.03 0.73,-1.8 1.71,-1.8 z m 6.99,2.71 c -0.47,0.62 -0.89,0.87 -1.53,0.87 -1.01,0 -1.8,-0.79 -1.8,-1.79 0,-1.01 0.78,-1.8 1.78,-1.8 0.66,0 1.21,0.32 1.56,0.91 h 0.68 c -0.36,-0.9 -1.21,-1.47 -2.23,-1.47 -1.34,0 -2.4,1.03 -2.4,2.34 0,1.34 1.07,2.36 2.44,2.36 0.54,0 1.05,-0.16 1.46,-0.48 0.3,-0.23 0.48,-0.47 0.74,-0.94 z m 1.53,1.32 h 0.61 v -4.49 h -0.61 z m 0,-5.03 h 0.61 v -1.03 h -0.61 z m 6.21,0.54 h -0.61 v 0.8 c -0.45,-0.63 -0.99,-0.9 -1.77,-0.9 -1.34,0 -2.36,1.02 -2.36,2.36 0,1.34 1.02,2.34 2.41,2.34 0.76,0 1.25,-0.25 1.72,-0.89 v 0.79 h 0.61 z m -2.39,0.45 c 1.02,0 1.78,0.76 1.78,1.78 0,1.02 -0.75,1.8 -1.73,1.8 -0.99,0 -1.79,-0.8 -1.79,-1.8 0,-0.98 0.78,-1.78 1.74,-1.78 z m 3.97,4.03 h 0.61 v -3.94 h 1.01 v -0.55 h -1.01 v -1.57 h -0.61 v 1.57 h -0.97 v 0.55 h 0.97 z m 2.23,0 h 0.61 v -4.49 h -0.61 z m 0,-5.03 h 0.61 v -1.03 h -0.61 z m 3.85,0.43 c -1.38,0 -2.38,0.99 -2.38,2.35 0,1.34 1.02,2.35 2.39,2.35 1.32,0 2.29,-0.99 2.29,-2.34 0,-1.35 -0.98,-2.36 -2.3,-2.36 z m -0.05,0.56 c 1.02,0 1.74,0.75 1.74,1.81 0,1.03 -0.71,1.77 -1.69,1.77 -1.02,0 -1.76,-0.75 -1.76,-1.78 0,-1.03 0.73,-1.8 1.71,-1.8 z m 3.21,4.03 h 0.61 v -2.47 c 0,-0.48 0.06,-0.75 0.21,-0.99 0.24,-0.36 0.66,-0.57 1.16,-0.57 0.43,0 0.82,0.16 1.07,0.46 0.23,0.28 0.32,0.61 0.32,1.22 v 2.35 h 0.61 v -2.35 c 0,-0.75 -0.11,-1.16 -0.39,-1.54 -0.35,-0.45 -0.89,-0.7 -1.53,-0.7 -0.59,0 -1.07,0.22 -1.44,0.69 v -0.58 h -0.61 z" />
<path style="fill:#418fde;fill-opacity:1;fill-rule:evenodd;stroke:none;stroke-width:2.64566;stroke-linecap:square"
  d="M 38.74,7.75 30.99,15.5 H 15.5 v 5.81 h 7.75 v 7.75 H 15.5 v 9.68 l -7.75,7.75 h 7.85 c 0.59,0 1.11,-0.38 1.29,-0.94 l 1.4,-4.32 c 0.13,-0.41 0.46,-0.74 0.87,-0.87 l 1.08,-0.35 c 0.41,-0.13 0.86,-0.06 1.22,0.19 l 3.67,2.67 c 0.48,0.35 1.12,0.35 1.59,0 l 3.29,-2.39 c 0.48,-0.35 0.67,-0.96 0.49,-1.52 l -1.4,-4.32 c -0.13,-0.41 -0.06,-0.86 0.19,-1.22 l 0.67,-0.92 c 0.26,-0.35 0.66,-0.56 1.1,-0.56 l 4.54,0 c 0.59,0 1.11,-0.38 1.29,-0.94 l 1.26,-3.87 c 0.18,-0.56 -0.02,-1.17 -0.49,-1.52 l -3.67,-2.67 c -0.35,-0.26 -0.56,-0.66 -0.56,-1.1 V 20.74 c 0,-0.43 0.21,-0.84 0.56,-1.1 l 4.21,-3.06 c 0.35,-0.26 0.56,-0.66 0.56,-1.1 z" />
<path style="display:inline;fill:#ff585d;fill-opacity:1;fill-rule:evenodd;stroke:none;stroke-width:2.64566;stroke-linecap:square"
  d="m 30.99,0 -7.75,7.75 h 7.75 v 7.75 L 38.74,7.75 V 0 Z M 7.75,30.99 0,38.74 v 7.75 h 7.75 l 7.75,-7.75 H 7.75 Z" />
<path style="fill:#cb333b;fill-rule:evenodd;stroke-width:2.64566;stroke-linecap:square"
  d="M 7.75,0 0,7.75 v 30.99 l 7.75,-7.75 V 7.75 H 23.24 L 30.99,0 Z" />
<path style="fill:#fefefe;fill-opacity:1;fill-rule:evenodd;stroke:none;stroke-width:2.64566;stroke-linecap:square"
  d="m 7.75,38.74 h 7.75 v -9.68 h 7.75 V 21.31 H 15.5 V 15.5 H 30.99 V 7.75 H 7.75 Z" />
<path style="font-weight:bold;font-size:64px;font-family:Evolventa;-inkscape-font-specification:'Evolventa, Bold';font-variant-ligatures:no-common-ligatures;fill:#212529;stroke-width:2;stroke-linecap:round;stroke-linejoin:round" aria-label="FPA"
  d="m 61.05,39.02 h 5.39 V 27.09 h 8.97 v -5.16 h -8.97 v -6.85 h 9.41 V 9.93 h -14.8 z m 19.48,0 h 5.39 V 27.96 h 1.73 c 3.98,0 5.83,-0.31 7.4,-1.18 2.52,-1.42 4.05,-4.41 4.05,-7.87 0,-3.27 -1.34,-5.94 -3.7,-7.48 -1.73,-1.1 -3.7,-1.5 -7.67,-1.5 h -7.2 z m 5.39,-16.22 v -7.71 h 1.81 c 1.77,0 2.6,0.08 3.42,0.28 1.57,0.43 2.52,1.81 2.52,3.66 0,1.65 -0.94,2.95 -2.48,3.38 -0.87,0.28 -2.13,0.39 -3.7,0.39 z m 10.86,16.22 h 5.94 l 3.23,-7.52 h 10.35 l 3.11,7.52 h 5.94 L 113.16,9.93 h -4.25 z m 11.14,-12.67 3.11,-8.82 3.11,8.82 z" />
</svg>