<svg xmlns="http://www.w3.org/2000/svg" viewBox="0 0 160 160" fill="currentColor">
  <circle cx="80" cy="79.3" r="13.7" />
  <path d="M 75.4,8 16,42.3 v 0 68.6 l 9.2,-5.2 V 52.9 l 35.1,20.3 a 20.6,20.6 0 0 1 4.6,-7.9 L 29.7,45 75.4,18.6 Z" />
  <path d="m 144,110.9 v -68.6 0 L 84.6,8 V 18.6 L 130.3,45 95.1,65.3 a 20.6,20.6 0 0 1 4.6,7.9 l 35.1,-20.3 v 52.8 z" />
  <path d="M 20.6,118.8 80,153.1 v 0 l 59.4,-34.3 -9.1,-5.2 L 84.6,140 V 99.3 a 20.6,20.6 0 0 1 -9.2,0 v 40.6 L 29.7,113.5 Z" />
</svg>
