<?xml version="1.0" encoding="UTF-8" standalone="no"?>
<!-- Created with Inkscape (http://www.inkscape.org/) -->

<svg
   width="670.56"
   height="1111.7998"
   viewBox="0 0 670.56 1111.7998"
   version="1.1"
   fill="#000000"
   id="svg6"
   xmlns="http://www.w3.org/2000/svg"
   xmlns:svg="http://www.w3.org/2000/svg">
  <defs
     id="defs6" />
  <circle
     cx="338.32669"
     cy="311.54688"
     r="60"
     id="circle1" />
  <path
     d="m 318.32672,0 -259.806648,150 -1.5e-4,0.002 v 299.99805 l 40,-23.09375 1e-5,-230.71679 153.812498,88.80273 a 90,90 0 0 1 19.99999,-34.64041 L 118.51812,161.54688 318.32672,46.187501 Z"
     id="path1" />
  <path
     d="m 618.13413,449.99991 -4.8e-4,-299.99915 -0.002,-0.001 L 358.32606,6.0257621e-4 358.32583,46.188491 558.13243,161.5469 404.32075,250.35106 a 90,90 0 0 1 19.99948,34.6407 l 153.8145,-88.80461 -1.5e-4,230.71901 z"
     id="path2" />
  <path
     d="m 78.519072,484.6408 259.807128,149.99915 0.002,-8.7e-4 259.80593,-149.99902 -39.99977,-23.09414 -199.80661,115.35839 -8.2e-4,-177.60691 a 90,90 0 0 1 -39.99947,-2.9e-4 l -2e-4,177.60957 -199.80864,-115.35964 z"
     id="path3" />
  <g
     transform="translate(-180.87773,42.819946)"
     aria-label="FreeCAD&#10;Professional&#10;Network"
     id="g6">
    <path
       d="m 266.55759,767.41992 h 16.44 v -36.36 h 27.36 v -15.72 h -27.36 v -20.88 h 28.68 v -15.72 h -45.12 z m 57.3601,0 h 15.96 v -36.96 c 0,-10.32 4.68,-15.48 14.28,-15.72 v -15.36 h -1.2 c -6.84,0 -10.2,1.8 -14.4,8.04 v -6.48 h -14.64 z m 102.60007,-26.16 c 0.48,-2.28 0.6,-3.72 0.6,-6.12 0,-20.64 -14.52,-35.76 -34.32,-35.76 -19.56,0 -35.04,15.48 -35.04,35.04 0,19.44 15.72,34.56 36,34.56 10.92,0 19.44,-3.84 26.4,-12 2.52,-3.12 4.2,-5.88 5.28,-9.24 h -17.4 c -4.08,4.8 -8.04,6.6 -14.64,6.6 -9.48,0 -16.44,-5.04 -18.36,-13.08 z m -51.96,-14.04 c 2.52,-8.64 9,-13.2 18.48,-13.2 9.84,0 16.32,4.68 18.36,13.2 z m 128.04009,14.04 c 0.48,-2.28 0.6,-3.72 0.6,-6.12 0,-20.64 -14.52,-35.76 -34.32,-35.76 -19.56,0 -35.04,15.48 -35.04,35.04 0,19.44 15.72,34.56 36,34.56 10.92,0 19.44,-3.84 26.4,-12 2.52,-3.12 4.2,-5.88 5.28,-9.24 h -17.4 c -4.08,4.8 -8.04,6.6 -14.64,6.6 -9.48,0 -16.44,-5.04 -18.36,-13.08 z m -51.96,-14.04 c 2.52,-8.64 9,-13.2 18.48,-13.2 9.84,0 16.32,4.68 18.36,13.2 z m 128.5201,15.48 c -7.32,7.56 -13.44,10.44 -21.96,10.44 -16.44,0 -29.76,-13.68 -29.76,-30.24 0,-7.2 2.76,-14.88 7.32,-20.16 5.4,-6.36 12.96,-9.72 22.08,-9.72 10.32,0 17.28,3.36 23.28,11.16 h 18.36 c -3.36,-7.44 -6.24,-11.4 -11.88,-16.2 -8.28,-6.96 -18.96,-10.8 -30.12,-10.8 -25.08,0 -45.6,20.52 -45.6,45.6 0,25.68 20.76,46.2 46.68,46.2 18.24,0 33.96,-10.08 40.92,-26.28 z m 21.23996,24.72 h 18.12 l 9.84,-22.92 h 31.56 l 9.48,22.92 h 18.12 l -37.2,-88.68 h -12.96 z m 33.96,-38.64 9.48,-26.88 9.48,26.88 z m 62.51996,38.64 h 20.64 c 13.08,0 20.88,-1.32 27.96,-4.56 14.04,-6.6 22.44,-21.24 22.44,-39.6 0,-16.44 -6.6,-30 -18.36,-37.56 -7.2,-4.68 -17.88,-6.96 -32.4,-6.96 h -20.28 z m 16.44,-15.72 v -57.24 h 3.24 c 10.2,0 15.6,0.84 20.64,3.24 8.76,4.32 14.16,13.92 14.16,25.56 0,10.68 -4.92,20.16 -12.84,24.48 -4.92,2.64 -11.76,3.96 -21.6,3.96 z"
       id="path4" />
    <path
       d="m 180.87773,917.41992 h 16.44 v -33.72 h 5.28 c 12.12,0 17.76,-0.96 22.56,-3.6 7.68,-4.32 12.36,-13.44 12.36,-24 0,-9.96 -4.08,-18.12 -11.28,-22.8 -5.28,-3.36 -11.28,-4.56 -23.4,-4.56 h -21.96 z m 16.44,-49.44 v -23.52 h 5.52 c 5.4,0 7.92,0.24 10.44,0.84 4.8,1.32 7.68,5.52 7.68,11.16 0,5.04 -2.88,9 -7.56,10.32 -2.64,0.84 -6.48,1.2 -11.28,1.2 z m 50.28,49.44 h 15.96 v -36.96 c 0,-10.32 4.68,-15.48 14.28,-15.72 v -15.36 h -1.2 c -6.84,0 -10.2,1.8 -14.4,8.04 v -6.48 h -14.64 z m 69.48007,-68.04 c -19.92,0 -35.64,15.48 -35.64,34.92 0,19.08 15.84,34.68 35.4,34.68 19.44,0 35.28,-15.6 35.28,-34.68 0,-19.2 -15.72,-34.92 -35.04,-34.92 z m -0.6,14.64 c 10.92,0 19.56,8.88 19.56,20.28 0,11.04 -8.64,20.04 -19.32,20.04 -10.56,0 -19.2,-9 -19.2,-20.16 0,-11.04 8.64,-20.16 18.96,-20.16 z m 46.43999,53.4 h 15.96 v -51.96 h 9 v -13.32 h -9 c 0.12,-6 2.16,-8.04 8.28,-8.04 h 1.68 v -15.12 c -1.92,-0.24 -2.88,-0.24 -3.96,-0.24 -6.72,0 -12.24,2.4 -16.32,7.08 -3.48,3.84 -4.8,7.68 -5.64,16.32 h -5.76 v 13.32 h 5.76 z m 98.88004,-26.16 c 0.48,-2.28 0.6,-3.72 0.6,-6.12 0,-20.64 -14.52,-35.76 -34.32,-35.76 -19.56,0 -35.04,15.48 -35.04,35.04 0,19.44 15.72,34.56 36,34.56 10.92,0 19.44,-3.84 26.4,-12 2.52,-3.12 4.2,-5.88 5.28,-9.24 h -17.4 c -4.08,4.8 -8.04,6.6 -14.64,6.6 -9.48,0 -16.44,-5.04 -18.36,-13.08 z m -51.96,-14.04 c 2.52,-8.64 9,-13.2 18.48,-13.2 9.84,0 16.32,4.68 18.36,13.2 z m 57.72011,19.08 c 0.6,6.24 1.68,9.48 4.2,13.08 4.2,5.88 11.88,9.6 20.16,9.6 13.32,0 23.76,-9.96 23.76,-22.68 0,-10.08 -5.04,-15.36 -18.48,-19.44 -6.48,-2.04 -6.48,-2.04 -8.16,-2.76 -2.04,-0.96 -3.12,-2.52 -3.12,-4.44 0,-3.24 2.64,-5.64 6.12,-5.64 3.36,0 5.52,1.8 6.24,5.28 h 15.6 c -0.24,-5.4 -1.44,-8.64 -4.32,-12.12 -4.2,-4.92 -10.68,-7.8 -17.52,-7.8 -12.48,0 -22.08,8.88 -22.08,20.28 0,9.72 5.16,15.24 18.48,19.68 6,2.04 6.6,2.28 8.28,3.36 1.92,1.2 3,3 3,5.16 0,3.72 -3,6.48 -7.2,6.48 -4.68,0 -7.32,-2.4 -8.88,-8.04 z m 52.55994,0 c 0.6,6.24 1.68,9.48 4.2,13.08 4.2,5.88 11.88,9.6 20.16,9.6 13.32,0 23.76,-9.96 23.76,-22.68 0,-10.08 -5.04,-15.36 -18.48,-19.44 -6.48,-2.04 -6.48,-2.04 -8.16,-2.76 -2.04,-0.96 -3.12,-2.52 -3.12,-4.44 0,-3.24 2.64,-5.64 6.12,-5.64 3.36,0 5.52,1.8 6.24,5.28 h 15.6 c -0.24,-5.4 -1.44,-8.64 -4.32,-12.12 -4.2,-4.92 -10.68,-7.8 -17.52,-7.8 -12.48,0 -22.08,8.88 -22.08,20.28 0,9.72 5.16,15.24 18.48,19.68 6,2.04 6.6,2.28 8.28,3.36 1.92,1.2 3,3 3,5.16 0,3.72 -3,6.48 -7.2,6.48 -4.68,0 -7.32,-2.4 -8.88,-8.04 z m 57.24,21.12 h 15.96 v -66.48 h -15.96 z m 0,-73.68 h 15.96 v -15 h -15.96 z m 61.43989,5.64 c -19.92,0 -35.64,15.48 -35.64,34.92 0,19.08 15.84,34.68 35.4,34.68 19.44,0 35.28,-15.6 35.28,-34.68 0,-19.2 -15.72,-34.92 -35.04,-34.92 z m -0.6,14.64 c 10.92,0 19.56,8.88 19.56,20.28 0,11.04 -8.64,20.04 -19.32,20.04 -10.56,0 -19.2,-9 -19.2,-20.16 0,-11.04 8.64,-20.16 18.96,-20.16 z m 45.48005,53.4 h 15.96 v -31.32 c 0,-8.64 0.6,-12.48 2.52,-15.6 2.4,-4.2 6.6,-6.48 11.88,-6.48 4.08,0 7.2,1.32 9.36,3.96 2.4,2.88 3.36,7.8 3.36,16.92 v 32.52 h 15.96 v -35.64 c 0,-11.52 -1.08,-17.04 -4.32,-22.2 -4.32,-6.6 -11.76,-10.2 -21.24,-10.2 -7.68,0 -12.84,2.16 -18.72,7.92 v -6.36 h -14.76 z m 138.83995,-66.48 h -14.64 v 8.88 c -5.52,-7.32 -12.12,-10.44 -21.72,-10.44 -19.68,0 -33.84,14.76 -33.84,35.04 0,20.04 14.04,34.56 33.48,34.56 9.36,0 15.72,-2.88 22.08,-10.2 v 8.64 h 14.64 z m -34.92,13.08 c 11.64,0 19.8,8.4 19.8,20.4 0,11.88 -7.8,19.92 -19.32,19.92 -11.64,0 -19.68,-7.92 -19.68,-19.56 0,-12 8.04,-20.76 19.2,-20.76 z m 47.87998,53.4 h 15.96 v -88.68 h -15.96 z"
       id="path5" />
    <path
       d="m 286.23777,1067.4199 h 16.44 v -64.44 l 37.08,64.44 h 18.36 v -88.67998 h -16.44 v 64.55998 l -36.72,-64.55998 h -18.72 z m 152.5199,-26.16 c 0.48,-2.28 0.6,-3.72 0.6,-6.12 0,-20.64 -14.52,-35.75998 -34.32,-35.75998 -19.56,0 -35.04,15.47998 -35.04,35.03998 0,19.44 15.72,34.56 36,34.56 10.92,0 19.44,-3.84 26.4,-12 2.52,-3.12 4.2,-5.88 5.28,-9.24 h -17.4 c -4.08,4.8 -8.04,6.6 -14.64,6.6 -9.48,0 -16.44,-5.04 -18.36,-13.08 z m -51.96,-14.04 c 2.52,-8.64 9,-13.2 18.48,-13.2 9.84,0 16.32,4.68 18.36,13.2 z m 64.2,40.2 h 15.96 v -51.96 h 9.6 v -14.52 h -9.6 v -22.19998 h -15.96 v 22.19998 h -7.8 v 14.52 h 7.8 z m 51.11994,0 h 9.84 l 12.84,-43.08 12.6,43.08 h 9.96 l 24,-66.48 h -17.04 l -12.12,40.56 -10.92,-40.56 h -12.72 l -11.16,40.56 -11.88,-40.56 h -17.16 z m 105.60006,-68.03998 c -19.92,0 -35.64,15.47998 -35.64,34.91998 0,19.08 15.84,34.68 35.4,34.68 19.44,0 35.28,-15.6 35.28,-34.68 0,-19.2 -15.72,-34.91998 -35.04,-34.91998 z m -0.6,14.63998 c 10.92,0 19.56,8.88 19.56,20.28 0,11.04 -8.64,20.04 -19.32,20.04 -10.56,0 -19.2,-9 -19.2,-20.16 0,-11.04 8.64,-20.16 18.96,-20.16 z m 45.48006,53.4 h 15.96 v -36.96 c 0,-10.32 4.68,-15.48 14.28,-15.72 v -15.35998 h -1.2 c -6.84,0 -10.2,1.79998 -14.4,8.03998 v -6.48 h -14.64 z m 39.59997,0 h 15.96 v -31.08 l 22.68,31.08 h 21.48 l -27.6,-33.96 23.76,-32.52 h -19.08 l -21.24,31.32 v -53.51998 h -15.96 z"
       id="path6" />
  </g>
</svg>
