<?xml version='1.0' encoding='utf-8'?>
<svg xmlns="http://www.w3.org/2000/svg" height="15rem" viewBox="0 0 128 228" fill="#000000">
  <circle cx="64" cy="71.26" r="13.72" style="stroke-width:1" />
  <path d="M 59.43,0 0,34.31 v 0 68.62 L 9.15,97.65 V 44.87 L 44.33,65.19 a 20.59,20.59 0 0 1 4.57,-7.92 l -35.18,-20.32 45.71,-26.38 z" style="stroke-width:1" />
  <path d="m 128,102.93 v -68.62 0 L 68.58,0 V 10.57 L 114.28,36.95 79.1,57.26 a 20.59,20.59 0 0 1 4.57,7.92 L 118.85,44.87 v 52.77 z" style="stroke-width:1" />
  <path d="m 4.57,110.85 59.43,34.31 v 0 L 123.43,110.85 114.28,105.57 68.58,131.96 V 91.33 a 20.59,20.59 0 0 1 -9.15,0 v 40.63 l -45.71,-26.39 z" style="stroke-width:1" />
  <path d="m 16.35,177.23 h 3.14 v -6.94 h 5.22 v -3 h -5.22 v -3.99 h 5.47 v -3 h -8.61 z m 10.95,0 h 3.05 v -7.05 c 0,-1.97 0.89,-2.96 2.73,-3 v -2.93 h -0.23 c -1.31,0 -1.95,0.34 -2.75,1.53 v -1.24 h -2.8 z m 19.58,-4.99 c 0.09,-0.43 0.11,-0.71 0.11,-1.17 0,-3.94 -2.77,-6.83 -6.55,-6.83 -3.73,0 -6.69,2.96 -6.69,6.69 0,3.71 3,6.6 6.87,6.6 2.08,0 3.71,-0.73 5.04,-2.29 0.48,-0.59 0.8,-1.12 1.01,-1.76 h -3.32 c -0.78,0.92 -1.53,1.26 -2.8,1.26 -1.81,0 -3.14,-0.96 -3.5,-2.5 z m -9.92,-2.68 c 0.48,-1.65 1.72,-2.52 3.53,-2.52 1.88,0 3.12,0.89 3.5,2.52 z m 24.44,2.68 c 0.09,-0.43 0.11,-0.71 0.11,-1.17 0,-3.94 -2.77,-6.83 -6.55,-6.83 -3.73,0 -6.69,2.96 -6.69,6.69 0,3.71 3,6.6 6.87,6.6 2.08,0 3.71,-0.73 5.04,-2.29 0.48,-0.59 0.8,-1.12 1.01,-1.76 h -3.32 c -0.78,0.92 -1.53,1.26 -2.8,1.26 -1.81,0 -3.14,-0.96 -3.5,-2.5 z m -9.92,-2.68 c 0.48,-1.65 1.72,-2.52 3.53,-2.52 1.88,0 3.12,0.89 3.5,2.52 z m 24.53,2.96 c -1.4,1.44 -2.57,1.99 -4.19,1.99 -3.14,0 -5.68,-2.61 -5.68,-5.77 0,-1.37 0.53,-2.84 1.4,-3.85 1.03,-1.21 2.47,-1.86 4.22,-1.86 1.97,0 3.3,0.64 4.44,2.13 h 3.5 c -0.64,-1.42 -1.19,-2.18 -2.27,-3.09 C 75.87,160.73 73.83,160 71.7,160 c -4.79,0 -8.71,3.92 -8.71,8.71 0,4.9 3.96,8.82 8.91,8.82 3.48,0 6.48,-1.92 7.81,-5.02 z m 4.06,4.72 h 3.46 l 1.88,-4.38 h 6.02 l 1.81,4.38 h 3.46 l -7.1,-16.93 h -2.47 z m 6.48,-7.38 1.81,-5.13 1.81,5.13 z m 11.94,7.38 h 3.94 c 2.5,0 3.99,-0.25 5.34,-0.87 2.68,-1.26 4.28,-4.06 4.28,-7.56 0,-3.14 -1.26,-5.73 -3.5,-7.17 -1.37,-0.89 -3.41,-1.33 -6.18,-1.33 h -3.87 z m 3.14,-3 V 163.3 h 0.62 c 1.95,0 2.98,0.16 3.94,0.62 1.67,0.83 2.7,2.66 2.7,4.88 0,2.04 -0.94,3.85 -2.45,4.67 -0.94,0.5 -2.24,0.75 -4.12,0.75 z" style="stroke-width:19.114" />
  <path d="m 0,201.93 h 3.14 v -6.44 h 1.01 c 2.31,0 3.39,-0.18 4.31,-0.69 1.47,-0.83 2.36,-2.57 2.36,-4.58 0,-1.9 -0.78,-3.46 -2.15,-4.35 C 7.65,185.23 6.51,185 4.19,185 H 0 Z m 3.14,-9.44 v -4.49 h 1.05 c 1.03,0 1.51,0.05 1.99,0.16 0.92,0.25 1.47,1.05 1.47,2.13 0,0.96 -0.55,1.72 -1.44,1.97 -0.5,0.16 -1.24,0.23 -2.15,0.23 z m 9.6,9.44 h 3.05 v -7.05 c 0,-1.97 0.89,-2.96 2.73,-3 v -2.93 h -0.23 c -1.31,0 -1.95,0.34 -2.75,1.53 v -1.24 h -2.8 z m 13.26,-12.99 c -3.8,0 -6.8,2.96 -6.8,6.67 0,3.64 3.02,6.62 6.76,6.62 3.71,0 6.73,-2.98 6.73,-6.62 0,-3.66 -3,-6.67 -6.69,-6.67 z m -0.11,2.8 c 2.08,0 3.73,1.69 3.73,3.87 0,2.11 -1.65,3.82 -3.69,3.82 -2.02,0 -3.66,-1.72 -3.66,-3.85 0,-2.11 1.65,-3.85 3.62,-3.85 z m 8.87,10.19 h 3.05 v -9.92 h 1.72 v -2.54 h -1.72 c 0.02,-1.15 0.41,-1.53 1.58,-1.53 h 0.32 v -2.89 c -0.37,-0.05 -0.55,-0.05 -0.75,-0.05 -1.28,0 -2.34,0.46 -3.12,1.35 -0.66,0.73 -0.92,1.47 -1.08,3.12 h -1.1 v 2.54 h 1.1 z m 18.87,-4.99 c 0.09,-0.43 0.11,-0.71 0.11,-1.17 0,-3.94 -2.77,-6.83 -6.55,-6.83 -3.73,0 -6.69,2.96 -6.69,6.69 0,3.71 3,6.6 6.87,6.6 2.08,0 3.71,-0.73 5.04,-2.29 0.48,-0.59 0.8,-1.12 1.01,-1.76 H 50.1 c -0.78,0.92 -1.53,1.26 -2.8,1.26 -1.81,0 -3.14,-0.96 -3.5,-2.5 z m -9.92,-2.68 c 0.48,-1.65 1.72,-2.52 3.53,-2.52 1.88,0 3.12,0.89 3.5,2.52 z m 11.02,3.64 c 0.11,1.19 0.32,1.81 0.8,2.5 0.8,1.12 2.27,1.83 3.85,1.83 2.54,0 4.54,-1.9 4.54,-4.33 0,-1.92 -0.96,-2.93 -3.53,-3.71 -1.24,-0.39 -1.24,-0.39 -1.56,-0.53 -0.39,-0.18 -0.59,-0.48 -0.59,-0.85 0,-0.62 0.5,-1.08 1.17,-1.08 0.64,0 1.05,0.34 1.19,1.01 h 2.98 c -0.05,-1.03 -0.27,-1.65 -0.83,-2.31 -0.8,-0.94 -2.04,-1.49 -3.34,-1.49 -2.38,0 -4.22,1.69 -4.22,3.87 0,1.86 0.99,2.91 3.53,3.76 1.15,0.39 1.26,0.43 1.58,0.64 0.37,0.23 0.57,0.57 0.57,0.99 0,0.71 -0.57,1.24 -1.37,1.24 -0.89,0 -1.4,-0.46 -1.69,-1.53 z m 10.03,0 c 0.11,1.19 0.32,1.81 0.8,2.5 0.8,1.12 2.27,1.83 3.85,1.83 2.54,0 4.54,-1.9 4.54,-4.33 0,-1.92 -0.96,-2.93 -3.53,-3.71 -1.24,-0.39 -1.24,-0.39 -1.56,-0.53 -0.39,-0.18 -0.59,-0.48 -0.59,-0.85 0,-0.62 0.5,-1.08 1.17,-1.08 0.64,0 1.05,0.34 1.19,1.01 h 2.98 c -0.05,-1.03 -0.27,-1.65 -0.83,-2.31 -0.8,-0.94 -2.04,-1.49 -3.34,-1.49 -2.38,0 -4.22,1.69 -4.22,3.87 0,1.86 0.99,2.91 3.53,3.76 1.15,0.39 1.26,0.43 1.58,0.64 0.37,0.23 0.57,0.57 0.57,0.99 0,0.71 -0.57,1.24 -1.37,1.24 -0.89,0 -1.4,-0.46 -1.69,-1.53 z m 10.93,4.03 h 3.05 v -12.69 h -3.05 z m 0,-14.06 h 3.05 V 185 h -3.05 z m 11.73,1.08 c -3.8,0 -6.8,2.96 -6.8,6.67 0,3.64 3.02,6.62 6.76,6.62 3.71,0 6.73,-2.98 6.73,-6.62 0,-3.66 -3,-6.67 -6.69,-6.67 z m -0.11,2.8 c 2.08,0 3.73,1.69 3.73,3.87 0,2.11 -1.65,3.82 -3.69,3.82 -2.02,0 -3.66,-1.72 -3.66,-3.85 0,-2.11 1.65,-3.85 3.62,-3.85 z m 8.68,10.19 h 3.05 v -5.98 c 0,-1.65 0.11,-2.38 0.48,-2.98 0.46,-0.8 1.26,-1.24 2.27,-1.24 0.78,0 1.37,0.25 1.79,0.75 0.46,0.55 0.64,1.49 0.64,3.23 v 6.21 h 3.05 v -6.8 c 0,-2.2 -0.21,-3.25 -0.83,-4.24 -0.83,-1.26 -2.24,-1.95 -4.06,-1.95 -1.47,0 -2.45,0.41 -3.57,1.51 v -1.21 h -2.82 z m 26.5,-12.69 h -2.8 v 1.69 c -1.05,-1.4 -2.31,-1.99 -4.15,-1.99 -3.76,0 -6.46,2.82 -6.46,6.69 0,3.82 2.68,6.6 6.39,6.6 1.79,0 3,-0.55 4.22,-1.95 v 1.65 h 2.8 z m -6.67,2.5 c 2.22,0 3.78,1.6 3.78,3.89 0,2.27 -1.49,3.8 -3.69,3.8 -2.22,0 -3.76,-1.51 -3.76,-3.73 0,-2.29 1.53,-3.96 3.66,-3.96 z m 9.14,10.19 H 128 V 185 h -3.05 z" style="stroke-width:19.114" />
  <path d="m 20.11,226.93 h 3.14 v -12.3 l 7.08,12.3 h 3.5 V 210 h -3.14 v 12.32 L 23.69,210 h -3.57 z m 29.11,-4.99 c 0.09,-0.43 0.11,-0.71 0.11,-1.17 0,-3.94 -2.77,-6.83 -6.55,-6.83 -3.73,0 -6.69,2.96 -6.69,6.69 0,3.71 3,6.6 6.87,6.6 2.08,0 3.71,-0.73 5.04,-2.29 0.48,-0.59 0.8,-1.12 1.01,-1.76 h -3.32 c -0.78,0.92 -1.53,1.26 -2.8,1.26 -1.81,0 -3.14,-0.96 -3.5,-2.5 z m -9.92,-2.68 c 0.48,-1.65 1.72,-2.52 3.53,-2.52 1.88,0 3.12,0.89 3.5,2.52 z m 12.26,7.67 h 3.05 v -9.92 h 1.83 v -2.77 H 54.61 V 210 h -3.05 v 4.24 h -1.49 v 2.77 h 1.49 z m 9.76,0 h 1.88 l 2.45,-8.22 2.41,8.22 h 1.9 l 4.58,-12.69 h -3.25 l -2.31,7.74 -2.08,-7.74 h -2.43 l -2.13,7.74 -2.27,-7.74 h -3.28 z m 20.16,-12.99 c -3.8,0 -6.8,2.96 -6.8,6.67 0,3.64 3.02,6.62 6.76,6.62 3.71,0 6.73,-2.98 6.73,-6.62 0,-3.66 -3,-6.67 -6.69,-6.67 z m -0.11,2.8 c 2.08,0 3.73,1.69 3.73,3.87 0,2.11 -1.65,3.82 -3.69,3.82 -2.02,0 -3.66,-1.72 -3.66,-3.85 0,-2.11 1.65,-3.85 3.62,-3.85 z m 8.68,10.19 h 3.05 v -7.05 c 0,-1.97 0.89,-2.96 2.73,-3 v -2.93 h -0.23 c -1.31,0 -1.95,0.34 -2.75,1.53 v -1.24 h -2.8 z m 7.56,0 h 3.05 v -5.93 l 4.33,5.93 h 4.1 l -5.27,-6.48 4.54,-6.21 h -3.64 l -4.06,5.98 v -10.22 h -3.05 z" style="stroke-width:19.114" />
</svg>