<svg xmlns="http://www.w3.org/2000/svg" viewBox="0 0 64 64" fill="currentColor" stroke="none">
  <path d="M 42 5 L 42 15 L 52 15 L 42 5 z " />
  <path d="M 15 5 C 13.34 5 12 6.34 12 8 L 12 56 C 12 57.66 13.34 59 15 59 L 49 59 A 3 3 0 0 0 52 56 L 52 18 L 40.5 18 C 39.67 18 39 17.33 39 16.5 L 39 5 L 15 5 z M 29 19.5 L 29.01 19.5 L 35 19.5 C 37.48 19.5 39.5 21.52 39.5 24 L 39.5 25.5 L 42 25.5 C 44.48 25.5 46.5 27.52 46.5 30 L 46.5 34.99 C 46.51 37.48 44.47 39.5 42 39.5 L 39.5 39.5 L 39.5 44 C 39.5 46.48 37.48 48.5 35 48.5 L 29 48.5 C 26.52 48.5 24.5 46.48 24.5 44 L 24.5 42.5 L 22 42.5 C 19.52 42.5 17.5 40.48 17.5 38 L 17.5 33.01 C 17.49 30.52 19.53 28.5 22 28.5 L 24.5 28.5 L 24.5 24 C 24.5 21.53 26.52 19.49 29 19.5 z" />
  <path d="M 28.99 22.5 C 28.28 22.5 27.5 23.28 27.5 24 L 27.5 28.5 L 32 28.5 C 33.96 28.5 33.96 31.5 32 31.5 L 22 31.5 C 21.28 31.5 20.5 32.28 20.5 32.99 L 20.5 38 C 20.5 38.71 21.29 39.5 22 39.5 L 24.5 39.5 L 24.5 37 C 24.5 34.52 26.52 32.5 29 32.5 L 35.01 32.5 C 35.73 32.5 36.5 31.73 36.5 31.01 L 36.5 24 C 36.5 23.29 35.71 22.5 35 22.5 L 28.99 22.5 z M 31 23.5 C 31.83 23.5 32.5 24.17 32.5 25 C 32.5 25.83 31.83 26.5 31 26.5 C 30.17 26.5 29.5 25.83 29.5 25 C 29.5 24.17 30.17 23.5 31 23.5 z" />
  <path d="M 39.5 28.5 L 39.5 30.99 C 39.51 33.48 37.48 35.51 35 35.5 L 29 35.5 C 28.29 35.5 27.5 36.29 27.5 37 L 27.5 44 C 27.5 44.71 28.29 45.5 29 45.5 L 35 45.5 C 35.71 45.5 36.5 44.71 36.5 44 L 36.5 39.5 L 32 39.5 C 30.04 39.5 30.04 36.5 32 36.5 L 37.99 36.5 L 38 36.5 L 42 36.5 C 42.72 36.5 43.5 35.72 43.5 35.01 L 43.5 30 C 43.5 29.29 42.71 28.5 42 28.5 L 39.5 28.5 z M 33 41.5 C 33.83 41.5 34.5 42.17 34.5 43 C 34.5 43.83 33.83 44.5 33 44.5 C 32.17 44.5 31.5 43.83 31.5 43 C 31.5 42.17 32.17 41.5 33 41.5 z" />
</svg>
