<svg xmlns="http://www.w3.org/2000/svg" viewBox="0 0 64 64" fill="currentColor" stroke="none">
  <path d="m 15.86,8.7 h -2.44 v 1.48 c -0.92,-1.22 -2.02,-1.74 -3.62,-1.74 -3.28,0 -5.64,2.46 -5.64,5.84 0,3.34 2.34,5.76 5.58,5.76 1.56,0 2.62,-0.48 3.68,-1.7 v 1.44 h 2.44 z m -5.82,2.18 c 1.94,0 3.3,1.4 3.3,3.4 0,1.98 -1.3,3.32 -3.22,3.32 -1.94,0 -3.28,-1.32 -3.28,-3.26 0,-2 1.34,-3.46 3.2,-3.46 z M 29.2,8.7 h -2.44 v 1.48 c -0.92,-1.22 -2.02,-1.74 -3.62,-1.74 -3.28,0 -5.64,2.46 -5.64,5.84 0,3.34 2.34,5.76 5.58,5.76 1.56,0 2.62,-0.48 3.68,-1.7 v 1.44 h 2.44 z m -5.82,2.18 c 1.94,0 3.3,1.4 3.3,3.4 0,1.98 -1.3,3.32 -3.22,3.32 -1.94,0 -3.28,-1.32 -3.28,-3.26 0,-2 1.34,-3.46 3.2,-3.46 z m 7.98,8.9 h 2.66 v -6.16 c 0,-1.72 0.78,-2.58 2.38,-2.62 V 8.44 h -0.2 c -1.14,0 -1.7,0.3 -2.4,1.34 v -1.08 h -2.44 z m 14.06,-3.64 c -0.66,1.02 -1.42,1.46 -2.52,1.46 -1.84,0 -3.22,-1.44 -3.22,-3.38 0,-1.96 1.3,-3.34 3.16,-3.34 1.2,0 2.04,0.48 2.58,1.52 h 3 c -0.38,-1.08 -0.72,-1.64 -1.42,-2.32 -1.08,-1.06 -2.58,-1.64 -4.16,-1.64 -3.28,0 -5.84,2.54 -5.84,5.8 0,3.22 2.64,5.8 5.92,5.8 2.6,0 4.58,-1.42 5.5,-3.9 z m 4.6,3.64 h 2.66 v -5.62 c 0,-1.06 0.1,-1.68 0.36,-2.16 0.38,-0.74 1.06,-1.12 1.98,-1.12 1.56,0 2.16,0.9 2.16,3.24 v 5.66 h 2.66 v -6.26 c 0,-1.56 -0.18,-2.44 -0.68,-3.26 -0.72,-1.18 -2.04,-1.84 -3.66,-1.84 -1.16,0 -2.02,0.32 -2.82,1.04 v -4.46 h -2.66 z" aria-label="aarch" />
  <path d="m 18.94,22.9 -9.26,13.92 c -2.59,3.84 -3.5,6.48 -3.5,9.94 0,7.06 5.28,12.24 12.43,12.24 7.1,0 12.14,-5.28 12.14,-12.72 0,-6.53 -4.13,-11.23 -9.79,-11.23 -1.15,0 -1.78,0.1 -2.88,0.48 l 8.5,-12.62 z m -0.62,17.71 c 3.6,0 6.05,2.59 6.05,6.29 0,3.7 -2.35,6.24 -5.71,6.24 -3.6,0 -6.1,-2.59 -6.1,-6.24 0,-3.65 2.4,-6.29 5.76,-6.29 z m 14.06,7.25 v 5.18 h 15.31 v 5.33 h 6.38 v -5.33 h 3.74 v -5.71 h -3.74 v -24.43 h -5.38 z m 15.31,-0.53 h -8.83 l 8.83,-13.68 z" aria-label="64" />
</svg>
