<svg xmlns="http://www.w3.org/2000/svg" viewBox="0 0 64 64" fill="currentColor" stroke="none">
  <path d="m 54.2,11.38 c -4.14,-1.94 -8.57,-3.35 -13.2,-4.15 -0.57,1.03 -1.23,2.41 -1.69,3.51 -4.92,-0.74 -9.8,-0.74 -14.63,0 -0.46,-1.1 -1.14,-2.48 -1.71,-3.51 -4.64,0.8 -9.07,2.22 -13.21,4.16 -8.36,12.63 -10.62,24.94 -9.49,37.08 5.54,4.14 10.91,6.65 16.19,8.3 1.3,-1.79 2.47,-3.7 3.47,-5.71 -1.91,-0.72 -3.74,-1.62 -5.46,-2.66 0.46,-0.34 0.91,-0.69 1.34,-1.06 10.53,4.93 21.97,4.93 32.38,0 0.44,0.37 0.89,0.72 1.34,1.06 -1.73,1.04 -3.56,1.94 -5.47,2.66 1,2.01 2.16,3.92 3.47,5.71 5.29,-1.65 10.66,-4.16 16.2,-8.3 1.33,-14.07 -2.27,-26.27 -9.51,-37.09 z m -32.85,29.62 c -3.16,0 -5.75,-2.95 -5.75,-6.54 0,-3.59 2.54,-6.55 5.75,-6.55 3.22,0 5.81,2.95 5.75,6.55 0.01,3.59 -2.54,6.54 -5.75,6.54 z m 21.26,0 c -3.16,0 -5.75,-2.95 -5.75,-6.54 0,-3.59 2.54,-6.55 5.75,-6.55 3.22,0 5.81,2.95 5.75,6.55 0,3.59 -2.54,6.54 -5.75,6.54 z" />
</svg>
