<svg xmlns="http://www.w3.org/2000/svg" viewBox="0 0 64 64" fill="currentColor" stroke="none">
  <path d="m 28.36,7.17 -17.36,8.83 c 0.97,1 1.61,2.26 1.83,3.63 l 17.3,-8.84 c -0.95,-1 -1.56,-2.27 -1.77,-3.63 z m 12.69,2.1 c -0.64,1.23 -1.63,2.23 -2.86,2.87 l 13.67,13.75 c 0.65,-1.24 1.68,-2.24 2.93,-2.88 z m -10.81,1.63 -10.13,19.89 3.01,3.01 10.72,-21 c -1.37,-0.25 -2.63,-0.91 -3.61,-1.9 z m 7.88,1.27 c -1.65,0.84 -3.2,0.79 -4.06,0.67 l 1.56,9.81 4.21,0.68 z m -25.28,7.55 c 0.13,0.87 0.17,2.38 -0.63,3.98 l 9.87,1.57 1.96,-3.76 z m 16.9,2.7 -1.96,3.84 23.37,3.68 c -0.12,-0.87 -0.14,-2.38 0.68,-3.99 z m -17.61,1.43 c -0.65,1.24 -1.67,2.24 -2.92,2.88 l 15.79,15.8 3.84,-1.88 z m -3,2.92 c -1.62,0.79 -3.13,0.75 -4,0.62 l 3,19.2 c 0.78,-0.39 2.21,-0.9 3.98,-0.64 z m 27.39,1.6 3.61,23.42 c 0.79,-0.4 2.25,-0.91 4.06,-0.63 l -3.46,-22.11 z m 14.65,1.74 -8.85,4.51 0.6,4.21 10.08,-5.08 c -0.97,-1 -1.61,-2.27 -1.83,-3.64 z m 1.95,3.76 -8.91,17.29 c 1.37,0.22 2.64,0.85 3.64,1.82 l 8.9,-17.26 c -1.37,-0.23 -2.64,-0.87 -3.63,-1.84 z m -35.71,2.1 -5.08,10.01 c 1.37,0.24 2.63,0.9 3.61,1.88 l 4.48,-8.88 z m 19.72,1.28 -21.08,10.73 c 0.95,1 1.57,2.26 1.79,3.62 l 19.9,-10.13 z m -4.14,7.53 -3.84,1.88 7.99,8.06 c 0.65,-1.24 1.66,-2.25 2.9,-2.89 z m -15.14,6.94 c 0.12,0.87 0.14,2.37 -0.66,3.97 l 19.26,3.09 c -0.12,-0.88 -0.15,-2.38 0.66,-3.98 z" />
  <circle cx="6.15" cy="20.71" r="6.15" />
  <circle cx="35.05" cy="6.15" r="6.15" />
  <circle cx="57.85" cy="29.05" r="6.15" />
  <circle cx="11.15" cy="52.65" r="6.15" />
  <circle cx="43.15" cy="57.85" r="6.15" />
</svg>
