<svg xmlns="http://www.w3.org/2000/svg" viewBox="0 0 24 20" fill="currentColor" stroke="none">
  <path d="M4.21 4.6c-0.25 0-0.53 0.02-0.84 0.09-0.33 0.07-1.28 0.28-2.05 1.03C-0.4 7.25 0.04 9.69 0.09 10.05c0.07 0.45 0.26 1.69 1.21 2.77 1.75 2.14 5.51 2.09 5.51 2.09s0.46 1.1 1.17 2.12c0.95 1.26 1.94 2.25 2.89 2.37 2.41 0 7.21 0 7.21 0s0.46 0 1.08-0.39c0.54-0.32 1.01-0.89 1.01-0.89s0.49-0.53 1.18-1.73c0.21-0.37 0.39-0.73 0.54-1.07 0 0 2.11-4.47 2.11-8.82-0.04-1.32-0.37-1.55-0.44-1.63-0.16-0.16-0.37-0.15-0.37-0.15s-4.47 0.25-6.79 0.31c-0.51 0.01-1.01 0.02-1.51 0.03v4.47l-0.63-0.3c0-1.39 0-4.17 0-4.17-1.11 0.02-3.4-0.08-3.4-0.08s-5.4-0.27-5.99-0.32c-0.19-0.01-0.4-0.03-0.65-0.03zm0.35 1.83h0.11s0.27 2.27 0.6 3.6C5.55 11.15 6.22 13 6.22 13s-1-0.12-1.64-0.35c-0.99-0.32-1.41-0.71-1.41-0.71s-0.73-0.51-1.1-1.52C1.44 8.73 2.02 7.7 2.02 7.7s0.32-0.86 1.47-1.15c0.4-0.11 0.86-0.12 1.07-0.12zm8.33 2.55c0.26 0 0.51 0.13 0.51 0.13l0.87 0.42-0.53 1.07a0.69 0.69 0 0 0-0.61 0.36 0.69 0.69 0 0 0 0.07 0.76l-0.94 1.92a0.69 0.69 0 0 0-0.66 0.53 0.69 0.69 0 0 0 0.35 0.76 0.69 0.69 0 0 0 0.87-0.21 0.69 0.69 0 0 0-0.07-0.88l0.92-1.87a0.67 0.67 0 0 0 0.24-0.02 0.66 0.66 0 0 0 0.27-0.14 8.83 8.83 0 0 1 1.02 0.51 0.76 0.76 0 0 1 0.29 0.28c0.07 0.21-0.07 0.57-0.07 0.57-0.09 0.29-0.7 1.55-0.7 1.55a0.69 0.69 0 0 0-0.68 0.48 0.68 0.68 0 1 0 1.16-0.25c0.07-0.14 0.14-0.28 0.21-0.43 0.19-0.4 0.52-1.16 0.52-1.16 0.04-0.07 0.22-0.39 0.1-0.81-0.1-0.43-0.48-0.64-0.48-0.64-0.47-0.3-1.12-0.58-1.12-0.58s0-0.16-0.04-0.27a0.69 0.69 0 0 0-0.15-0.24l0.52-1.06 2.89 1.4s0.48 0.22 0.58 0.62c0.07 0.28-0.02 0.53-0.07 0.66-0.24 0.59-2.1 4.32-2.1 4.32s-0.23 0.55-0.75 0.59a1.06 1.06 0 0 1-0.39-0.04l-0.2-0.08-4.31-2.1s-0.42-0.22-0.49-0.6c-0.08-0.31 0.1-0.69 0.1-0.69l2.07-4.27s0.18-0.37 0.47-0.5a0.85 0.85 0 0 1 0.35-0.08z" />
</svg>
