<svg xmlns="http://www.w3.org/2000/svg" viewBox="0 0 64 64" fill="currentColor" stroke="none">
  <path d="m 44.5,64 c -5.73,0 -7.03,-2.5 -11.5,-2.5 -4.57,0 -6.26,2.49 -11.5,2.5 C 16.26,64.01 5,47.13 5,35 5,22.87 14.09,15.59 21,15.5 c 6.91,-0.09 9.01,3 11,3 1.99,0 8.19,-3 13,-3 4.81,0 9.31,2.68 12,6.5 -4.8,2.91 -7.02,6 -7,13 0.02,7 7.41,11.33 9,12 -1.1,3.69 -8.77,17 -14.5,17 z M 42,10 C 39.44,13.1 35.71,15.29 32,15 31.46,11.21 33.03,7.9 35.5,5 37.97,2.1 42.02,0.15 45,0 c 0.54,3.78 -0.44,6.9 -3,10 z" />
</svg>
