<svg xmlns="http://www.w3.org/2000/svg" viewBox="0 0 24 24" fill="currentColor" stroke="none">
  <path d="M 22,22 V 2 H 20 V 0 h 4 v 24 h -4 v -2 z" />
  <path d="m 7.01,7.22 v 1.33 h 0.04 C 7.38,8.06 7.82,7.66 8.34,7.36 8.84,7.09 9.41,6.95 10.05,6.95 c 0.62,0 1.19,0.12 1.7,0.36 0.51,0.24 0.9,0.66 1.17,1.27 0.29,-0.43 0.69,-0.81 1.19,-1.14 0.5,-0.33 1.09,-0.49 1.77,-0.49 0.52,0 1,0.06 1.44,0.19 0.44,0.13 0.82,0.33 1.14,0.61 0.32,0.28 0.56,0.64 0.74,1.09 0.18,0.45 0.27,0.99 0.27,1.63 v 6.57 h -2.7 v -5.56 c 0,-0.33 -0.01,-0.64 -0.04,-0.93 -0.02,-0.26 -0.09,-0.52 -0.21,-0.76 -0.11,-0.22 -0.29,-0.39 -0.5,-0.51 -0.22,-0.13 -0.52,-0.19 -0.9,-0.19 -0.38,0 -0.69,0.07 -0.92,0.22 -0.23,0.15 -0.42,0.34 -0.55,0.57 -0.14,0.25 -0.23,0.52 -0.27,0.8 -0.04,0.3 -0.07,0.6 -0.07,0.9 v 5.47 h -2.7 v -5.51 c 0,-0.29 -0.01,-0.58 -0.02,-0.86 -0.01,-0.27 -0.06,-0.54 -0.16,-0.79 -0.09,-0.24 -0.26,-0.44 -0.47,-0.58 -0.22,-0.14 -0.55,-0.22 -0.98,-0.22 -0.17,0.01 -0.34,0.04 -0.5,0.09 -0.22,0.06 -0.43,0.17 -0.61,0.32 -0.2,0.16 -0.36,0.39 -0.5,0.68 -0.14,0.3 -0.21,0.69 -0.21,1.17 V 17.05 H 4.46 V 7.23 Z" />
  <path d="m 2,2 v 20 h 1 1 v 2 H 0 V 0 h 4 v 2 z" />
</svg>
