<?xml version="1.0" encoding="UTF-8" standalone="no"?>
<svg
   width="64"
   height="64"
   viewBox="0 0 64 64"
   version="1.1"
   fill="currentColor"
   id="svg2"
   xmlns="http://www.w3.org/2000/svg"
   xmlns:svg="http://www.w3.org/2000/svg">
  <path d="M 16,4 C 7.8392026,4 5.0224143,14.899222 12,18.927734 V 45.072266 C 5.0224227,49.100772 7.8391927,60 16,60 24.160796,60 26.977587,49.100778 20,45.072266 V 34.445312 C 24.035438,36.188594 28.245461,36 32,36 c 4,0 7.483013,0.214162 9.210938,1.078125 C 43.654226,38.299769 44,39.902833 44,45.072266 37.022423,49.100772 39.839193,60 48,60 56.160796,60 58.977587,49.100778 52,45.072266 52,38.407171 50.164637,32.609661 44.789062,29.921875 40.516988,27.785838 36,28 32,28 20.432967,28 20,26.245059 20,18.927734 26.977579,14.899225 24.160804,4 16,4 Z" />
</svg>
