<svg xmlns="http://www.w3.org/2000/svg" viewBox="0 0 64 64" fill="currentColor" stroke="none">
  <path d="m 1.84,44.56 h 5.32 v -10.92 c 0,-2.12 0.16,-3.6 0.52,-4.48 0.64,-1.56 1.96,-2.4 3.84,-2.4 1.36,0 2.56,0.48 3.28,1.32 0.68,0.84 1,2.16 1,4.32 v 12.16 h 5.32 v -10.92 c 0,-2.4 0.2,-3.64 0.68,-4.64 0.72,-1.44 2.08,-2.24 3.8,-2.24 1.28,0 2.36,0.44 3.08,1.28 0.76,0.84 1.08,2.08 1.08,4.36 v 12.16 h 5.32 v -12.8 c 0,-2.56 -0.48,-4.68 -1.32,-6.16 -1.4,-2.36 -4.2,-3.72 -7.68,-3.72 -3.12,0 -5.28,1.04 -7.08,3.44 -1.52,-2.44 -3.44,-3.44 -6.52,-3.44 -2.6,0 -4.2,0.72 -5.76,2.6 v -2.08 H 1.84 Z m 35.92,-7.04 c 0.2,2.08 0.56,3.16 1.4,4.36 1.4,1.96 3.96,3.2 6.72,3.2 4.44,0 7.92,-3.32 7.92,-7.56 0,-3.36 -1.68,-5.12 -6.16,-6.48 -2.16,-0.68 -2.16,-0.68 -2.72,-0.92 -0.68,-0.32 -1.04,-0.84 -1.04,-1.48 0,-1.08 0.88,-1.88 2.04,-1.88 1.12,0 1.84,0.6 2.08,1.76 h 5.2 c -0.08,-1.8 -0.48,-2.88 -1.44,-4.04 -1.4,-1.64 -3.56,-2.6 -5.84,-2.6 -4.16,0 -7.36,2.96 -7.36,6.76 0,3.24 1.72,5.08 6.16,6.56 2,0.68 2.2,0.76 2.76,1.12 0.64,0.4 1,1 1,1.72 0,1.24 -1,2.16 -2.4,2.16 -1.56,0 -2.44,-0.8 -2.96,-2.68 z m 19.08,7.04 h 5.32 v -22.16 h -5.32 z m 0,-24.56 h 5.32 v -5 h -5.32 z" aria-label="msi" />
</svg>
