<svg xmlns="http://www.w3.org/2000/svg" viewBox="0 0 24 24" fill="none" stroke="currentColor" stroke-width="2" stroke-linecap="round" stroke-linejoin="round">
  <path d="M 8.67,4.22 H 5.56 c -1.24,0 -1.87,0 -2.34,0.24 C 2.79,4.68 2.45,5.02 2.24,5.43 2,5.91 2,6.53 2,7.78 V 18.44 c 0,1.24 0,1.87 0.24,2.34 0.21,0.42 0.55,0.76 0.97,0.97 0.47,0.24 1.1,0.24 2.34,0.24 H 16.23 c 1.24,0 1.86,0 2.34,-0.24 0.42,-0.21 0.76,-0.55 0.97,-0.97 0.24,-0.47 0.24,-1.1 0.24,-2.34 V 15.33 M 15.33,5.33 8.67,12 v 3.34 H 12 L 18.67,8.67 M 15.33,5.33 18.67,2 22,5.33 18.67,8.67 M 15.33,5.33 18.67,8.67" />
</svg>
