<svg xmlns="http://www.w3.org/2000/svg" viewBox="0 0 64 64" fill="currentColor" stroke="none">
  <path d="m 5.75,28.5 c -0.96,0 -1.75,0.79 -1.75,1.75 0,0.96 0.79,1.75 1.75,1.75 10.64,0 19.25,8.61 19.25,19.25 0,0.96 0.79,1.75 1.75,1.75 0.96,0 1.75,-0.79 1.75,-1.75 0,-12.55 -10.2,-22.75 -22.75,-22.75 z" />
  <path d="m 5.75,35.5 c -0.96,0 -1.75,0.79 -1.75,1.75 0,0.96 0.79,1.75 1.75,1.75 6.77,0 12.25,5.48 12.25,12.25 0,0.96 0.79,1.75 1.75,1.75 0.96,0 1.75,-0.79 1.75,-1.75 0,-8.7 -7.05,-15.75 -15.75,-15.75 z" />
  <path d="m 5.75,42.5 c -0.96,0 -1.75,0.79 -1.75,1.75 0,0.96 0.79,1.75 1.75,1.75 2.89,0 5.25,2.36 5.25,5.25 0,0.96 0.79,1.75 1.75,1.75 0.96,0 1.75,-0.79 1.75,-1.75 0,-4.83 -3.92,-8.75 -8.75,-8.75 z" />
  <path d="M 9.25,11 C 6.36,11 4,13.36 4,16.25 v 7 c 0,0.96 0.79,1.75 1.75,1.75 14.49,0 26.25,11.76 26.25,26.25 0,0.96 0.79,1.75 1.75,1.75 h 21 c 2.89,0 5.25,-2.36 5.25,-5.25 V 16.25 C 60,13.36 57.64,11 54.75,11 Z m 19.44,4.08 c 0.21,0 0.4,0.14 0.49,0.33 l 0.96,1.77 c 0.05,0.12 0.16,0.19 0.28,0.19 l 1.68,0.07 c 0.12,0 0.23,-0.07 0.3,-0.16 l 1.1,-1.63 c 0.14,-0.26 0.47,-0.35 0.72,-0.23 l 1.21,0.56 c 0.26,0.12 0.4,0.42 0.28,0.7 l -0.58,1.91 c -0.05,0.12 -0.02,0.26 0.07,0.35 l 1.14,1.24 c 0.09,0.09 0.21,0.14 0.33,0.09 l 1.98,-0.4 c 0.28,-0.07 0.58,0.07 0.68,0.35 l 0.44,1.26 c 0.09,0.28 -0.02,0.58 -0.3,0.7 l -1.77,0.96 c -0.12,0.05 -0.19,0.16 -0.19,0.28 l -0.07,1.68 c 0,0.12 0.07,0.23 0.16,0.3 l 1.66,1.1 c 0.26,0.14 0.35,0.47 0.23,0.72 l -0.56,1.21 c -0.12,0.26 -0.44,0.4 -0.7,0.28 l -1.94,-0.56 c -0.12,-0.05 -0.26,-0.02 -0.35,0.07 l -1.26,1.14 c -0.09,0.09 -0.14,0.21 -0.09,0.33 l 0.4,1.98 c 0.07,0.28 -0.07,0.58 -0.35,0.68 l -1.21,0.42 c -0.28,0.09 -0.58,-0.02 -0.7,-0.3 l -0.96,-1.77 c -0.05,-0.12 -0.16,-0.19 -0.28,-0.19 l -1.68,-0.07 c -0.12,0 -0.23,0.07 -0.3,0.16 l -1.1,1.66 c -0.14,0.26 -0.47,0.35 -0.72,0.23 l -1.24,-0.58 c -0.26,-0.12 -0.37,-0.42 -0.28,-0.7 l 0.58,-1.91 c 0.05,-0.12 0.02,-0.26 -0.07,-0.35 l -1.12,-1.24 c -0.09,-0.09 -0.21,-0.14 -0.33,-0.09 l -1.98,0.4 c -0.28,0.09 -0.58,-0.07 -0.68,-0.35 l -0.47,-1.24 c -0.09,-0.28 0.05,-0.58 0.3,-0.7 l 1.77,-0.96 c 0.12,-0.05 0.19,-0.16 0.21,-0.28 l 0.07,-1.68 c 0,-0.12 -0.05,-0.23 -0.16,-0.3 l -1.66,-1.12 c -0.26,-0.14 -0.37,-0.47 -0.23,-0.72 l 0.56,-1.21 c 0.12,-0.26 0.44,-0.37 0.7,-0.28 l 1.91,0.58 c 0.12,0.05 0.26,0.02 0.35,-0.07 l 1.26,-1.14 c 0.09,-0.09 0.14,-0.21 0.09,-0.33 l -0.42,-1.96 c -0.07,-0.28 0.07,-0.58 0.35,-0.68 l 1.26,-0.44 c 0.07,-0.02 0.14,-0.05 0.21,-0.02 z m 2.4,5.76 c -0.4,-0.02 -0.82,0.05 -1.19,0.19 -0.77,0.28 -1.4,0.84 -1.75,1.59 -0.35,0.75 -0.4,1.59 -0.12,2.38 0.28,0.77 0.84,1.4 1.59,1.75 0.75,0.35 1.59,0.4 2.38,0.12 0.77,-0.28 1.4,-0.84 1.75,-1.59 0.35,-0.75 0.4,-1.59 0.12,-2.38 -0.28,-0.77 -0.84,-1.4 -1.59,-1.75 -0.37,-0.19 -0.77,-0.28 -1.17,-0.3 z m 13.49,5.93 h 1.7 c 0.37,0 0.68,0.28 0.7,0.65 l 0.37,2.54 c 0.02,0.16 0.12,0.3 0.26,0.35 l 1.98,0.82 c 0.14,0.07 0.33,0.02 0.44,-0.07 l 2.05,-1.52 c 0.28,-0.23 0.7,-0.23 0.96,0.05 l 1.21,1.21 c 0.26,0.26 0.28,0.68 0.05,0.98 l -1.52,2.05 c -0.09,0.12 -0.14,0.28 -0.07,0.44 l 0.82,1.98 c 0.07,0.14 0.19,0.26 0.35,0.26 l 2.54,0.37 c 0.37,0.02 0.65,0.35 0.65,0.72 v 1.7 c 0,0.37 -0.28,0.68 -0.65,0.7 l -2.54,0.37 c -0.16,0.02 -0.3,0.12 -0.35,0.26 l -0.82,1.98 c -0.07,0.14 -0.02,0.33 0.07,0.44 l 1.52,2.05 c 0.23,0.28 0.23,0.7 -0.05,0.98 l -1.21,1.21 c -0.26,0.26 -0.68,0.28 -0.96,0.05 l -2.05,-1.52 c -0.12,-0.09 -0.28,-0.14 -0.44,-0.07 l -1.98,0.82 c -0.14,0.07 -0.26,0.21 -0.26,0.35 l -0.37,2.54 c -0.02,0.37 -0.35,0.65 -0.7,0.65 h -1.7 c -0.37,0 -0.68,-0.28 -0.7,-0.65 l -0.37,-2.54 c -0.02,-0.16 -0.12,-0.3 -0.26,-0.35 l -1.98,-0.82 c -0.14,-0.07 -0.33,-0.02 -0.44,0.07 l -2.05,1.52 c -0.28,0.23 -0.7,0.23 -0.98,-0.05 l -1.21,-1.21 c -0.26,-0.26 -0.28,-0.68 -0.05,-0.98 l 1.52,-2.05 c 0.09,-0.12 0.14,-0.28 0.07,-0.44 l -0.82,-1.98 c -0.07,-0.14 -0.21,-0.26 -0.35,-0.26 l -2.54,-0.37 c -0.37,-0.02 -0.65,-0.35 -0.65,-0.7 v -1.7 c 0,-0.37 0.28,-0.68 0.65,-0.72 l 2.54,-0.37 c 0.16,-0.02 0.3,-0.12 0.35,-0.26 l 0.84,-2.03 c 0.07,-0.14 0.05,-0.3 -0.07,-0.42 l -1.52,-2.05 c -0.23,-0.28 -0.23,-0.7 0.05,-0.98 l 1.21,-1.21 c 0.26,-0.26 0.68,-0.28 0.98,-0.05 l 2.05,1.52 c 0.12,0.09 0.28,0.14 0.44,0.07 l 1.98,-0.82 c 0.14,-0.07 0.26,-0.21 0.26,-0.35 l 0.37,-2.54 c 0.02,-0.37 0.35,-0.65 0.7,-0.65 z m 0.84,7.7 c -1.05,0 -2.05,0.42 -2.8,1.17 -0.75,0.75 -1.17,1.75 -1.17,2.8 0,1.05 0.42,2.05 1.17,2.8 0.75,0.75 1.75,1.17 2.8,1.17 1.05,0 2.05,-0.42 2.8,-1.17 0.75,-0.75 1.17,-1.75 1.17,-2.8 0,-1.05 -0.42,-2.05 -1.17,-2.8 -0.75,-0.75 -1.75,-1.17 -2.8,-1.17 z" />
</svg>
