<svg xmlns="http://www.w3.org/2000/svg" viewBox="0 0 64 64" fill="currentColor" stroke="none">
  <path d="M 5.46,44.56 H 22.34 V 39.8 H 11.82 L 21.58,27.16 V 22.4 h -15 v 4.76 h 8.64 L 5.46,39.8 Z m 20.24,0 h 5.32 V 22.4 H 25.7 Z M 25.7,20 h 5.32 V 15 H 25.7 Z m 9.64,31.96 h 5.32 v -9.48 c 2.04,1.8 4.08,2.6 6.8,2.6 6.4,0 11.08,-4.96 11.08,-11.68 0,-6.68 -4.64,-11.52 -11.04,-11.52 -3,0 -5.56,1.08 -7.28,3.12 V 22.4 H 35.34 Z M 46.7,26.76 c 3.76,0 6.48,2.88 6.48,6.76 0,3.76 -2.76,6.68 -6.32,6.68 -3.68,0 -6.52,-2.88 -6.52,-6.64 0,-3.88 2.76,-6.8 6.36,-6.8 z" aria-label="zip" />
</svg>
