<?xml version='1.0' encoding='utf-8'?>
<svg xmlns="http://www.w3.org/2000/svg" xmlns:dc="http://purl.org/dc/elements/1.1/" xmlns:inkscape="http://www.inkscape.org/namespaces/inkscape" xmlns:cc="http://creativecommons.org" xmlns:rdf="http://www.w3.org/1999/02/22-rdf-syntax-ns#" id="svg2" version="1.1" inkscape:version="0.91 r" xml:space="preserve" width="370" height="385" viewBox="0 0 370 385" inkscape:docname="Lulzbot_Logo_R_RGB.svg">
  <metadata id="metadata8">
    <rdf:RDF>
      <cc:Work rdf:about="">
      <dc:format>image/svg+xml</dc:format>
      <dc:type rdf:resource="http://purl.org/dc/dcmitype/StillImage" />
      <dc:title />
      </cc:Work>
    </rdf:RDF>
  </metadata>
  <defs id="defs6">
    <clipPath clipPathUnits="userSpaceOnUse" id="clipPath18">
      <path d="m 0,10 2950,0 0,3042 -2950,0 0,-3042 z" id="path20" inkscape:connector-curvature="0" />
    </clipPath>
  </defs>
  <cc:namedview pagecolor="#ffffff" bordercolor="#666666" borderopacity="1" objecttolerance="10" gridtolerance="10" guidetolerance="10" inkscape:pageopacity="0" inkscape:pageshadow="2" inkscape:window-width="1879" inkscape:window-height="1022" id="namedview4" showgrid="false" showguides="true" inkscape:guide-bbox="true" inkscape:zoom="1.2" inkscape:cx="139" inkscape:cy="86" inkscape:window-x="41" inkscape:window-y="0" inkscape:window-maximized="1" inkscape:current-layer="g10" />
  <g id="g10" inkscape:groupmode="layer" inkscape:label="ink_ext_XXXXXX" transform="matrix(1.25,0,0,-1.25,0,382.5)">
    <g id="g4259">
      <g transform="scale(0.1,0.1)" id="g12">
        <g id="g14">
          <g clip-path="url(#clipPath18)" id="g16">
            <path inkscape:connector-curvature="0" id="path22" style="fill:#000000;fill-opacity:1;fill-rule:nonzero;stroke:none" d="M 1427.8,2873.8 178.8,711 l 2498.1,0 -1249,2162.8" />
            <path inkscape:connector-curvature="0" id="path24" style="fill:#000000;fill-opacity:1;fill-rule:nonzero;stroke:none" d="m 398.1,342.6 c 2.6,0 4.7,-0.9 6.3,-2.7 1.6,-1.8 2.4,-4 2.4,-6.6 l 0,-64.2 c 0,-2.6 -0.8,-4.8 -2.4,-6.6 -1.6,-1.8 -3.8,-2.7 -6.3,-2.7 l -210.1,0 c -6.2,0 -9.3,3.1 -9.3,9.3 l 0,321.9 c 0,6.1 3.1,9.3 9.3,9.3 l 67.1,0 c 6.1,0 9.2,-3.1 9.2,-9.3 l 0,-239.8 c 0,-2.6 0.9,-4.6 2.7,-6.3 1.8,-1.6 3.9,-2.4 6.6,-2.4 l 124.5,0" />
            <path inkscape:connector-curvature="0" id="path26" style="fill:#000000;fill-opacity:1;fill-rule:nonzero;stroke:none" d="m 785.9,597.6 c 1.8,-1.8 2.7,-3.9 2.7,-6.6 l 0,-267 -0.5,0 c 0,-2.6 -0.3,-5.3 -1,-8.3 -0.7,-2.9 -1.4,-5.3 -2.4,-7.3 l -44.7,-44.7 c -2.3,-1.2 -5.1,-2.3 -8.5,-2.9 -3.4,-0.7 -6.4,-1 -9,-1 l -154.1,0 c -2.6,0 -5.5,0.4 -8.8,1 -3.2,0.6 -6,1.6 -8.3,2.9 l -44.7,44.7 c -1.3,2.3 -2.3,5 -2.9,8.3 -0.7,3.2 -1,6.1 -1,8.8 l 0,265.5 c 0,2.6 0.9,4.8 2.7,6.6 1.8,1.8 4,2.7 6.6,2.7 l 67.1,0 c 2.6,0 4.8,-0.9 6.6,-2.7 1.8,-1.8 2.7,-3.9 2.7,-6.6 l 0,-239.8 c 0,-2.6 0.9,-4.8 2.7,-6.5 1.8,-1.8 4,-2.7 6.6,-2.7 l 96.3,0 c 2.6,0 4.7,0.9 6.3,2.7 1.6,1.7 2.4,3.9 2.4,6.5 l 0,239.8 c 0,2.6 0.9,4.8 2.7,6.6 1.8,1.8 4,2.7 6.6,2.7 l 67.6,0 c 2.6,0 4.8,-0.9 6.6,-2.7" />
            <path inkscape:connector-curvature="0" id="path28" style="fill:#000000;fill-opacity:1;fill-rule:nonzero;stroke:none" d="m 1133.4,342.6 c 2.6,0 4.7,-0.9 6.3,-2.7 1.6,-1.8 2.4,-4 2.4,-6.6 l 0,-64.2 c 0,-2.6 -0.8,-4.8 -2.4,-6.6 -1.6,-1.8 -3.8,-2.7 -6.3,-2.7 l -210.1,0 c -6.2,0 -9.2,3.1 -9.2,9.3 l 0,321.9 c 0,6.1 3,9.3 9.2,9.3 l 67.1,0 c 6.2,0 9.3,-3.1 9.3,-9.3 l 0,-239.8 c 0,-2.6 0.9,-4.6 2.7,-6.3 1.8,-1.6 4,-2.4 6.6,-2.4 l 124.5,0" />
            <path inkscape:connector-curvature="0" id="path30" style="fill:#000000;fill-opacity:1;fill-rule:nonzero;stroke:none" d="m 1497.7,529.8 c 0,-2.6 -0.7,-5.4 -2,-8.3 -1.3,-2.9 -2.8,-5.3 -4.3,-7.3 l -158.1,-178 155.2,0 c 2.6,0 4.8,-0.9 6.5,-2.7 1.8,-1.8 2.7,-4 2.7,-6.6 l 0,-57.9 c 0,-2.6 -0.9,-4.8 -2.7,-6.6 -1.8,-1.8 -3.9,-2.7 -6.5,-2.7 l -241.7,0 c -6.1,0 -9.3,3.1 -9.3,9.3 l 0,60.8 c 0,2.6 0.6,5.4 1.7,8.5 1.1,3.1 2.5,5.6 4.1,7.5 l 161.4,178 -155.1,0 c -2.6,0 -4.8,0.9 -6.6,2.7 -1.8,1.8 -2.7,3.9 -2.7,6.5 l 0,57.9 c 0,2.6 0.9,4.8 2.7,6.6 1.8,1.8 3.9,2.7 6.6,2.7 l 238.8,0 c 2.6,0 4.8,-0.9 6.5,-2.7 1.8,-1.8 2.7,-3.9 2.7,-6.6 l 0,-61.3" />
            <path inkscape:connector-curvature="0" id="path32" style="fill:#000000;fill-opacity:1;fill-rule:nonzero;stroke:none" d="m 1700.9,334.3 130.8,0 0,66.2 -130.8,0 0,-66.2 z m 0,131.3 130.8,0 0,60.8 -130.8,0 0,-60.8 z m 204.7,86.1 c 1,-2.3 1.9,-5.1 2.7,-8.5 0.8,-3.4 1.2,-6.4 1.2,-9 l 0,-54 c 0,-2.6 -0.6,-5.5 -1.7,-8.5 -1.1,-3.1 -2.5,-5.6 -4.1,-7.5 l -20.9,-26.8 c -1.6,-1.9 -2.4,-4.4 -2.2,-7.3 0.1,-2.9 1,-5.2 2.7,-6.8 l 19.9,-24.3 c 1.6,-1.9 3.1,-4.4 4.4,-7.5 1.3,-3 1.9,-5.9 1.9,-8.5 l 0,-57.4 c 0,-2.6 -0.4,-5.5 -1.2,-8.8 -0.8,-3.3 -1.7,-6 -2.7,-8.3 L 1860.9,263.8 c -2.3,-1.2 -5.1,-2.3 -8.5,-2.9 -3.4,-0.7 -6.4,-1 -9,-1 l -210.6,0 c -6.2,0 -9.3,3.1 -9.3,9.3 l 0,321.9 c 0,2.6 0.9,4.8 2.7,6.6 1.8,1.8 4,2.7 6.6,2.7 l 210.6,0 c 2.6,0 5.5,-0.4 9,-1.2 3.4,-0.8 6.2,-1.7 8.5,-2.7 l 44.7,-44.7" />
            <path inkscape:connector-curvature="0" id="path34" style="fill:#000000;fill-opacity:1;fill-rule:nonzero;stroke:none" d="m 2118.1,342.1 114.3,0 0,175.5 -114.3,0 0,-175.5 z m 196.5,209.6 c 1,-2.3 1.8,-5 2.6,-8.3 0.8,-3.2 1.2,-6.2 1.2,-8.8 l 0,-209.1 c 0,-2.6 -0.4,-5.5 -1.2,-8.8 -0.8,-3.3 -1.7,-6 -2.6,-8.3 l -44.8,-44.7 c -2.3,-1.2 -5.1,-2.3 -8.5,-2.9 -3.4,-0.7 -6.4,-1 -9,-1 l -154.2,0 c -2.6,0 -5.5,0.4 -8.8,1 -3.2,0.6 -6,1.6 -8.2,2.9 l -44.8,44.7 c -1.2,2.3 -2.3,5 -2.9,8.3 -0.7,3.2 -1,6.1 -1,8.8 l 0,209.1 c 0,2.6 0.3,5.5 1,8.8 0.6,3.2 1.6,6 2.9,8.3 l 44.8,44.7 c 2.3,1 5,1.9 8.2,2.7 3.2,0.8 6.2,1.2 8.8,1.2 l 154.2,0 c 2.6,0 5.6,-0.4 9,-1.2 3.4,-0.8 6.2,-1.7 8.5,-2.7 l 44.8,-44.7" />
            <path inkscape:connector-curvature="0" id="path36" style="fill:#000000;fill-opacity:1;fill-rule:nonzero;stroke:none" d="m 2676.9,526.9 c 0,-2.6 -0.9,-4.7 -2.6,-6.5 -1.8,-1.8 -4,-2.7 -6.6,-2.7 l -69.1,0 c -2.6,0 -4.8,-0.8 -6.6,-2.4 -1.8,-1.6 -2.6,-3.8 -2.6,-6.3 l 0,-239.7 c 0,-2.6 -0.8,-4.8 -2.4,-6.6 -1.6,-1.8 -3.8,-2.7 -6.3,-2.7 l -67.6,0 c -2.7,0 -4.8,0.9 -6.6,2.7 -1.8,1.8 -2.7,4 -2.7,6.6 l 0,239.7 c 0,2.6 -0.8,4.7 -2.4,6.3 -1.6,1.6 -3.8,2.4 -6.3,2.4 l -69.1,0 c -2.6,0 -4.8,0.9 -6.6,2.7 -1.8,1.8 -2.6,4 -2.6,6.5 l 0,64.2 c 0,6.1 3,9.3 9.2,9.3 l 241.7,0 c 2.6,0 4.7,-0.9 6.6,-2.7 1.8,-1.8 2.6,-3.9 2.6,-6.6 l 0,-64.2" />
            <path inkscape:connector-curvature="0" id="path38" style="fill:#c1d82f;fill-opacity:1;fill-rule:nonzero;stroke:none" d="m 1427.8,2750.8 294.8,-510.5 -589.6,0 294.8,510.5" />
            <path inkscape:connector-curvature="0" id="path40" style="fill:#c1d82f;fill-opacity:1;fill-rule:nonzero;stroke:none" d="m 285.9,773.6 294.3,509.6 294.3,-509.6 -588.6,0" />
            <path inkscape:connector-curvature="0" id="path42" style="fill:#c1d82f;fill-opacity:1;fill-rule:nonzero;stroke:none" d="m 945.5,773.6 -329.8,571.1 481.2,833.1 661.9,0 479.3,-830.2 -331.5,-574 -961.1,0" />
            <path inkscape:connector-curvature="0" id="path44" style="fill:#c1d82f;fill-opacity:1;fill-rule:nonzero;stroke:none" d="m 1977.6,773.6 296,512.6 296.1,-512.6 -592.1,0" />
            <path inkscape:connector-curvature="0" id="path46" style="fill:#000000;fill-opacity:1;fill-rule:nonzero;stroke:none" d="m 1438.8,841.7 c -3.5,-3.1 -7.7,-4.6 -11.8,-4.6 -4.2,0 -8.4,1.5 -11.9,4.6 -3.5,3 -6.9,12.9 -11.4,24.1 -4.6,11.2 -10.4,23.8 -18.7,32.1 -8.4,8.4 -18.2,13.3 -28.6,14.6 -10.3,1.4 -21.2,-0.8 -31.4,-6.7 -10.2,-5.9 -19.1,-16.6 -26.5,-26.2 -7.4,-9.6 -13.3,-18.4 -17.5,-20.4 -4.1,-2.1 -8.6,-2.5 -12.6,-1.4 -4.1,1.1 -7.7,3.6 -10.3,7.5 -2.6,3.9 -3.2,14.3 -4.7,26.4 -1.4,12.1 -3.8,25.7 -9.7,36 -5.9,10.3 -14.2,17.6 -23.8,21.6 -9.7,4 -20.7,4.7 -32.1,1.6 -11.4,-3 -23,-11.3 -32.9,-18.9 -9.8,-7.7 -18,-14.8 -22.5,-15.7 -4.5,-0.9 -8.9,-0.1 -12.6,2 -3.6,2.1 -6.5,5.5 -8,9.9 -1.4,4.4 0.9,14.9 2.7,27.2 1.9,12.2 3.4,26.2 0.3,37.6 -3,11.4 -9.1,20.7 -17.4,27 -8.3,6.3 -18.8,9.9 -30.6,9.9 -11.8,0 -25.4,-5.4 -37.1,-10.7 -11.8,-5.3 -21.8,-10.5 -26.4,-10.2 -4.6,0.3 -8.7,2.2 -11.6,5.2 -3,2.9 -4.8,7 -5.2,11.6 -0.3,4.6 4.9,14.6 10.2,26.3 5.3,11.8 10.6,25.4 10.7,37.2 0,11.9 -3.5,22.4 -9.8,30.7 -6.3,8.3 -15.6,14.3 -27,17.4 -11.4,3 -25.5,1.6 -37.7,-0.3 -12.3,-1.9 -22.8,-4.2 -27.2,-2.6 -4.3,1.4 -7.8,4.3 -9.9,8 -2.1,3.7 -2.9,8 -2,12.6 0.9,4.6 8.1,12.7 15.7,22.5 7.7,9.8 15.9,21.4 18.9,32.8 3.1,11.4 2.4,22.4 -1.6,32.1 -4,9.7 -11.3,17.9 -21.6,23.8 -10.2,5.9 -23.9,8.2 -36,9.7 -12,1.5 -22.5,2.2 -26.4,4.7 -3.9,2.6 -6.4,6.2 -7.5,10.3 -1.1,4 -0.7,8.5 1.4,12.7 2.1,4.1 10.8,10 20.5,17.4 9.7,7.3 20.4,16.3 26.3,26.5 5.9,10.2 8.1,21.1 6.8,31.4 -1.4,10.4 -6.3,20.3 -14.7,28.6 -8.4,8.4 -20.9,14.2 -32.1,18.8 -11.2,4.7 -21.1,8 -24.1,11.5 -3.1,3.5 -4.6,7.7 -4.6,11.9 0,4.2 1.5,8.4 4.6,11.9 3.1,3.5 13,6.8 24.2,11.4 11.2,4.6 23.8,10.4 32.1,18.8 8.4,8.3 13.3,18.2 14.7,28.6 1.4,10.3 -0.8,21.2 -6.7,31.4 -5.9,10.2 -16.6,19.1 -26.2,26.5 -9.7,7.4 -18.4,13.3 -20.5,17.4 -2,4.2 -2.4,8.6 -1.3,12.7 1.1,4 3.6,7.7 7.5,10.3 3.8,2.6 14.3,3.2 26.4,4.7 12.1,1.4 25.7,3.8 36,9.7 10.2,5.9 17.6,14.1 21.6,23.8 4,9.7 4.7,20.7 1.6,32.1 -3.1,11.4 -11.3,23 -18.9,32.8 -7.6,9.8 -14.8,18 -15.7,22.5 -0.9,4.6 -0.1,9 1.9,12.6 2.2,3.6 5.6,6.5 9.9,8 4.4,1.5 14.9,-0.8 27.1,-2.6 12.3,-1.9 26.3,-3.4 37.7,-0.4 11.4,3 20.6,9.2 27,17.5 6.4,8.3 9.9,18.8 9.9,30.6 0,11.8 -5.3,25.4 -10.6,37.2 -5.3,11.8 -10.5,21.8 -10.2,26.4 0.3,4.6 2.2,8.7 5.2,11.6 3,3 7,4.8 11.6,5.1 4.6,0.3 14.6,-4.9 26.4,-10.2 11.8,-5.3 25.4,-10.7 37.1,-10.7 11.9,0 22.4,3.5 30.6,9.8 8.3,6.4 14.4,15.6 17.5,26.9 3,11.4 1.6,25.4 -0.3,37.7 -1.9,12.2 -4.1,22.7 -2.7,27.1 1.5,4.4 4.4,7.8 8,9.9 3.7,2.1 8.1,2.9 12.6,1.9 4.6,-0.9 12.7,-8.1 22.5,-15.7 9.8,-7.7 21.4,-15.9 32.8,-19 11.4,-3 22.4,-2.4 32.1,1.6 9.7,4 18,11.3 23.9,21.6 5.9,10.3 8.2,23.9 9.7,36 1.5,12.1 2.1,22.5 4.7,26.4 2.6,3.9 6.2,6.4 10.3,7.5 4.1,1.1 8.5,0.7 12.6,-1.4 4.2,-2 10,-10.8 17.4,-20.5 7.4,-9.7 16.3,-20.4 26.5,-26.2 10.2,-5.9 21.1,-8.2 31.4,-6.8 10.4,1.4 20.3,6.3 28.6,14.7 8.4,8.4 14.2,20.9 18.8,32.1 4.6,11.2 8,21.1 11.4,24.1 3.5,3 7.7,4.6 11.9,4.6 4.2,0 8.4,-1.5 11.9,-4.6 3.5,-3 6.8,-12.9 11.4,-24.1 4.6,-11.2 10.4,-23.8 18.7,-32.1 8.4,-8.4 18.2,-13.3 28.6,-14.7 10.3,-1.4 21.2,0.9 31.4,6.8 10.2,5.9 19.2,16.6 26.5,26.3 7.4,9.7 13.3,18.4 17.4,20.4 4.1,2 8.6,2.4 12.7,1.4 4,-1.1 7.7,-3.7 10.2,-7.5 2.6,-3.8 3.2,-14.3 4.7,-26.4 1.5,-12.1 3.8,-25.7 9.7,-36 5.9,-10.2 14.2,-17.5 23.8,-21.6 9.6,-4 20.6,-4.7 32.1,-1.6 11.4,3 22.9,11.2 32.8,18.9 9.8,7.7 18,14.8 22.5,15.7 4.6,0.9 8.9,0.1 12.6,-2 3.6,-2.1 6.4,-5.5 8,-9.9 1.5,-4.4 -0.8,-14.9 -2.7,-27.1 -1.9,-12.2 -3.4,-26.2 -0.3,-37.7 3,-11.4 9.1,-20.6 17.4,-27 8.2,-6.4 18.8,-9.8 30.6,-9.9 11.8,0 25.4,5.4 37.2,10.6 11.8,5.3 21.8,10.5 26.4,10.2 4.6,-0.3 8.6,-2.1 11.6,-5.2 3,-3 4.8,-7 5.2,-11.6 0.3,-4.6 -4.9,-14.6 -10.2,-26.4 -5.3,-11.8 -10.7,-25.4 -10.7,-37.1 0,-11.8 3.5,-22.3 9.8,-30.6 6.4,-8.3 15.6,-14.4 27,-17.5 11.4,-3 25.5,-1.6 37.7,0.3 12.3,1.9 22.7,4.1 27.1,2.7 4.4,-1.5 7.8,-4.3 9.9,-8 2.1,-3.7 2.9,-8.1 1.9,-12.6 -0.9,-4.5 -8,-12.7 -15.7,-22.5 -7.7,-9.8 -15.9,-21.4 -18.9,-32.8 -3.1,-11.4 -2.5,-22.5 1.6,-32.1 4,-9.7 11.3,-18 21.5,-23.9 10.3,-5.9 23.9,-8.2 36,-9.7 12.1,-1.4 22.5,-2.1 26.4,-4.7 3.9,-2.6 6.4,-6.2 7.5,-10.3 1.1,-4.1 0.7,-8.5 -1.4,-12.7 -2.1,-4.1 -10.8,-10 -20.5,-17.4 -9.7,-7.4 -20.4,-16.2 -26.3,-26.5 -5.9,-10.2 -8.2,-21.1 -6.8,-31.4 1.4,-10.3 6.3,-20.2 14.6,-28.6 8.4,-8.4 21,-14.2 32.1,-18.8 11.2,-4.6 21.1,-8 24.1,-11.4 3.1,-3.5 4.6,-7.7 4.6,-11.9 0,-4.2 -1.5,-8.4 -4.6,-11.9 -3,-3.5 -12.9,-6.8 -24.1,-11.4 -11.2,-4.6 -23.8,-10.4 -32.1,-18.8 -8.4,-8.4 -13.3,-18.2 -14.7,-28.6 -1.4,-10.4 0.8,-21.2 6.7,-31.4 5.9,-10.2 16.6,-19.2 26.3,-26.6 9.7,-7.4 18.4,-13.2 20.4,-17.4 2,-4.2 2.5,-8.6 1.4,-12.7 -1.1,-4 -3.7,-7.7 -7.5,-10.2 -3.9,-2.6 -14.4,-3.2 -26.4,-4.7 -12.1,-1.5 -25.7,-3.8 -35.9,-9.7 -10.3,-5.9 -17.6,-14.1 -21.6,-23.8 -4,-9.7 -4.7,-20.7 -1.6,-32.1 3.1,-11.4 11.3,-23 18.9,-32.8 7.7,-9.8 14.8,-18 15.7,-22.5 0.9,-4.5 0.1,-8.9 -1.9,-12.5 -2.1,-3.6 -5.5,-6.5 -9.9,-8 -4.4,-1.4 -14.9,0.8 -27.1,2.7 -12.3,1.9 -26.3,3.4 -37.7,0.3 -11.4,-3 -20.6,-9.1 -27,-17.4 -6.4,-8.3 -9.9,-18.8 -9.9,-30.6 0,-11.8 5.3,-25.4 10.6,-37.1 5.3,-11.8 10.5,-21.8 10.2,-26.4 -0.3,-4.6 -2.2,-8.7 -5.2,-11.6 -3,-3 -7,-4.9 -11.6,-5.2 -4.6,-0.3 -14.6,4.9 -26.4,10.2 -11.8,5.3 -25.4,10.7 -37.1,10.7 -11.8,0.1 -22.4,-3.5 -30.6,-9.8 -8.3,-6.4 -14.4,-15.6 -17.5,-27 -3,-11.4 -1.5,-25.5 0.3,-37.7 1.9,-12.3 4.1,-22.8 2.7,-27.2 -1.5,-4.4 -4.4,-7.8 -8,-9.9 -3.6,-2.1 -8,-2.9 -12.5,-2 -4.6,0.9 -12.7,8 -22.5,15.7 -9.8,7.7 -21.4,15.9 -32.8,19 -11.4,3.1 -22.4,2.4 -32.1,-1.6 -9.7,-4 -17.9,-11.3 -23.9,-21.6 -5.9,-10.2 -8.2,-23.9 -9.7,-36 -1.5,-12.1 -2.1,-22.5 -4.7,-26.4 -2.6,-3.8 -6.2,-6.4 -10.3,-7.5 -4.1,-1.1 -8.5,-0.7 -12.7,1.4 -4.1,2.1 -10,10.8 -17.4,20.5 -7.4,9.7 -16.2,20.3 -26.5,26.3 -10.2,5.9 -21.1,8.1 -31.4,6.8 -10.3,-1.3 -20.3,-6.2 -28.6,-14.6 -8.4,-8.4 -14.2,-20.9 -18.8,-32.1 -4.6,-11.2 -8,-21.1 -11.5,-24.2" />
            <path inkscape:connector-curvature="0" id="path48" style="fill:#ffffff;fill-opacity:1;fill-rule:nonzero;stroke:none" d="m 1210.9,1295.5 c -2.6,3.5 -4.5,7.5 -5.7,11.4 -1.2,4.1 -1.7,8.2 -1.8,12.3 -0.1,4 0.3,7.9 1.1,11.9 0.2,1 0.5,1.9 0.7,3 0.1,0.5 0.5,1.5 0.7,1.9 l 0.6,1.5 c 0.8,1.9 1.7,3.8 2.7,5.5 3.9,7 9.6,13.5 17.1,17.9 0.9,0.6 1.9,1.1 2.9,1.6 l 1.6,0.8 1.4,0.6 c 1.4,0.6 2.7,1.1 4.1,1.9 2.8,1.4 6,3.1 9.8,4.6 3.8,1.5 8,2.6 12.1,3.2 4.1,0.6 8.1,0.8 11.9,0.8 7.6,-0.2 14.8,-1 21.8,-2.1 3.4,-0.5 7,-1.2 10.3,-1.8 l 1.2,-0.2 0.9,-0.1 2.1,-0.3 c 1.3,-0.1 2.7,-0.2 4,-0.3 8,-0.2 15.9,1.4 23.4,4.7 0,0 0.1,0 0.1,0.1 0,0 0.1,0 0.1,0.1 2.5,1.1 4.9,2.3 7.3,3.7 4.8,2.8 9.4,6.2 13.7,10.1 l 0.1,0.1 c 4.6,3.7 8.7,7.7 10.7,11.6 3.3,6 3.8,8.3 0.4,8.8 -2.8,0.3 -8.3,-0.6 -17.2,-1.7 -0.7,-0.1 -1.5,-0.2 -2.4,-0.3 0,0 0,0 0,0 -7.2,-0.8 -14.3,-1.7 -21.4,-2.4 -7.7,-0.7 -15.3,-1.8 -23.6,-2.4 -4.2,-0.2 -8.6,-0.1 -13.2,0.8 -4.5,0.9 -9.3,2.8 -13.5,5.8 -4.1,3 -7.7,6.8 -10,11.1 -1.2,2.1 -2.1,4.2 -2.9,6.4 -0.8,2.4 -1.2,3.8 -1.7,5.3 -1.8,6.6 -4.2,12.8 -6.7,19 -2.6,6 -5.2,12.1 -8.2,17.6 -3,5.4 -6.3,10.4 -10.2,13.7 -3.8,3.2 -8.9,5.3 -14.2,5.8 -5.3,0.5 -11.1,-0.7 -16.3,-3 -0.6,-0.3 -1.3,-0.6 -1.8,-0.9 -0.5,-0.2 -1,-0.6 -1.6,-1 -1.1,-0.8 -2.1,-1.6 -3.2,-2.6 -2,-1.9 -3.8,-4 -5.1,-6.5 -2.7,-4.7 -3.8,-10.2 -3.1,-15.9 0.3,-2.9 1,-5.7 2,-8.6 l 0.4,-1 0,-0.3 c 0,-0.1 0.1,-0.1 0.1,-0.1 l 0.2,-0.5 c 0.2,-0.5 0.3,-0.6 0.5,-0.9 0.1,-0.2 0.2,-0.5 0.4,-0.8 0.7,-1.1 1.4,-2.2 2.3,-3.1 3.4,-3.8 8.8,-5.7 14.5,-5.5 5.7,0 11.5,2.1 16.2,5.4 4.7,3.4 7.8,8.4 8.5,13.9 0,0.3 0.1,0.7 0.2,1 0.9,2.3 3.4,3.4 5.7,2.6 2.3,-0.8 3.5,-3.3 2.7,-5.5 -0.4,-3.7 -1.7,-7.3 -3.5,-10.5 -2,-3.5 -4.7,-6.6 -7.8,-9 -6.2,-4.9 -13.6,-7.8 -21.6,-8.2 -4,-0.2 -8.1,0.2 -12,1.5 -4,1.3 -7.7,3.5 -10.8,6.6 -1.5,1.4 -2.9,3.1 -4.1,4.8 -0.2,0.5 -0.5,0.9 -0.8,1.4 -0.3,0.5 -0.5,1.1 -0.7,1.4 l -0.3,0.6 -0.3,0.8 -0.6,1.3 c -1.4,3.5 -2.6,7.2 -3.2,11.1 -1.3,7.8 -0.2,16.4 3.5,23.7 1.8,3.7 4.2,7 7,9.8 1.4,1.4 2.9,2.9 4.5,4.1 0.8,0.7 1.7,1.3 2.7,1.9 1,0.6 1.8,1.1 2.7,1.6 7,3.5 14.8,5.7 23.1,5.5 8.4,-0.2 16.6,-2.8 23.6,-7.9 6.9,-5 11.6,-11.5 15.6,-17.6 4,-6.2 7.2,-12.5 10.3,-18.8 3.1,-6.3 5.9,-12.5 9.4,-18.6 1.8,-3.4 2.9,-5 4.3,-6.4 1.4,-1.5 2.8,-2.5 4.4,-3.2 1.4,-0.9 3.2,-1.6 5.2,-2.3 2,-0.7 4.5,-1.1 7,-1.3 5.4,-0.5 11.2,0.9 16.6,3.8 3.4,1.8 6.6,3.9 9.7,6.3 0,0 6.1,3.8 11.4,11.5 -10.7,19.9 -12.6,42.9 -5.5,62.5 -4.9,5.9 -9.8,12.2 -14.1,18.9 -4.7,7.1 -9,14.8 -12,23.6 -1.5,4.4 -2.7,9 -3.4,13.9 -0.6,4.9 -0.6,10.1 0.2,15.2 0.5,2.5 1.1,5 1.9,7.4 0.2,0.6 0.4,1.2 0.7,1.8 l 0.2,0.4 c 0,0.1 0,0.2 0.1,0.3 l 0.3,0.6 1.1,2.4 c 1.5,3.2 2.9,6.5 4,9.8 2.1,6.6 3.4,13.4 3.6,19.2 0.2,2.9 -0.1,5.3 -0.6,7.1 -0.2,0.9 -0.6,1.8 -1.3,3 -0.6,1.2 -1.6,2.5 -2.6,4.3 -5.7,7.5 -15.3,12.9 -24.8,13.8 -9.8,0.9 -18,-3.3 -22.2,-12.5 -0.6,-1.1 -1,-2.3 -1.4,-3.5 -0.2,-0.6 -0.4,-1.2 -0.6,-1.8 l -0.7,-2.3 c -0.7,-2.2 -1.1,-4.9 -1.1,-7.1 0,-4.6 1.7,-8.1 5.3,-10.8 3.6,-2.7 9,-4.1 14.4,-4.1 5.4,-0.1 11,1.2 15.3,4 l 0.1,-0.1 c 1.4,0.9 3.5,0.6 5,-0.9 1.6,-1.7 1.8,-4.1 0.4,-5.6 0,-0.1 -0.1,-0.1 -0.2,-0.1 -2.8,-2.6 -6.1,-4.3 -9.4,-5.7 -3.4,-1.3 -6.9,-2.2 -10.5,-2.6 -7.2,-0.8 -14.8,0 -22,4.1 -3.5,2 -6.8,5.1 -9.1,8.8 -2.3,3.8 -3.5,8 -3.9,12 -0.4,4.1 -0.1,7.8 0.6,11.6 l 0.5,2.5 c 0.2,0.9 0.4,1.8 0.6,2.7 0.5,1.8 1.1,3.6 1.8,5.3 2.7,7.1 7.8,14.1 14.9,18.6 7.1,4.5 15.4,6.2 23.2,5.9 7.8,-0.3 15.3,-2.5 22,-5.9 6.8,-3.4 13,-8.2 17.9,-14.3 l 0,-0.1 0.6,-0.7 c 0.8,-1.2 1.9,-2.6 3.2,-4.6 1.3,-1.9 2.6,-4.3 3.6,-6.8 2,-5.2 2.4,-10.2 2.2,-14.7 -0.3,-8.9 -2.3,-16.5 -3.8,-24.1 -0.7,-3.8 -1.5,-7.5 -2.1,-11.3 l -0.4,-2.9 -0.1,-0.7 0,-0.4 0,-0.2 c -0.1,-0.3 -0.1,-0.5 -0.2,-0.9 -0.1,-1.1 -0.1,-2.3 0,-3.4 0.4,-4.5 2.2,-9.1 5.2,-13.7 3.1,-4.6 7.2,-9.1 11.8,-13.2 3.7,-3.2 7.7,-6.3 11.8,-9.2 27.2,18 65.4,14.5 92.8,-9.4 4.7,3 9.1,6.9 13.4,11.8 0.1,0.1 0.1,0.1 0.2,0.2 0.2,0.2 0.4,0.5 0.6,0.7 2.8,3.5 5.4,7.1 7.6,10.8 2.2,3.7 4.3,7.5 5.6,11.2 1.2,3.8 1.8,7.7 1.6,11.1 -0.3,3.4 -1.2,6.4 -2.9,9.1 -0.8,1.3 -1.8,2.6 -2.9,3.8 l -2.5,2.5 -2.5,2.5 c -3.3,3.3 -6.8,6.5 -10.4,9.6 -7.1,6.2 -14.7,11.8 -22.7,17.9 -4,3.1 -8.2,6.4 -12.3,11 -2.1,2.3 -4,5.1 -5.4,8.4 -0.8,1.6 -1.3,3.3 -1.6,5 -0.1,0.4 -0.2,0.8 -0.2,1.2 l -0.2,1.1 -0.2,1.3 -0.2,1.1 c -0.5,6.2 0.4,12.3 2.2,17.9 0.9,2.8 2.1,5.3 3.4,7.9 0.7,1.3 1.4,2.5 2.2,3.8 0.4,0.6 0.8,1.2 1.3,1.8 0.4,0.6 0.8,1.1 1.2,1.7 l 0.1,0.1 c 0,0 0,0 0,0 0.1,0.1 0.1,0.1 0.2,0.2 0.2,0.2 0.3,0.4 0.4,0.6 l 0.7,0.9 c 0.5,0.6 1,1.1 1.5,1.6 1.1,1.1 2.1,2.1 3.2,3.1 2.2,1.9 4.7,3.5 7.3,5.1 5.2,2.9 11.3,4.7 17.4,4.7 6.2,0.1 12,-1.4 17.1,-3.8 2.6,-1.2 5.1,-2.5 7.3,-4 2.5,-1.7 4.7,-3.4 6.8,-5.6 4.2,-4.3 7.3,-10 8.2,-16.2 0.9,-6 -0.3,-12.2 -2.6,-17.4 -2.4,-5.2 -5.9,-9.8 -10.3,-13.5 -4.4,-3.5 -9.8,-6.4 -16,-6.8 l -0.1,0.1 c -0.2,-0.1 -0.5,-0.1 -0.7,-0.1 -2.3,-0.2 -4.2,1.7 -4.4,4.1 -0.1,2.4 1.6,4.5 3.9,4.6 0.2,0 0.5,0 0.5,0 3.8,0.4 7.5,2.5 10.6,5.3 3,2.8 5.5,6.4 7,10.2 1.5,3.8 1.9,8 1.2,11.5 -0.8,3.8 -2.8,7 -5.5,9.6 -1.4,1.3 -3.2,2.6 -4.8,3.5 -2,1.2 -3.9,2.1 -5.9,2.9 -3.9,1.5 -7.9,2.2 -11.7,2 -3.8,-0.3 -7.4,-1.5 -10.7,-3.6 -1.6,-1.1 -3.3,-2.3 -4.7,-3.6 -0.7,-0.7 -1.4,-1.5 -2.1,-2.2 -0.3,-0.4 -0.6,-0.8 -0.9,-1.2 l -0.4,-0.6 c 0,0 -0.1,-0.3 -0.2,-0.3 l -0.2,-0.2 -0.3,-0.4 -0.6,-1 -0.8,-1.3 c -0.5,-0.9 -1,-1.8 -1.4,-2.7 -0.8,-1.9 -1.5,-3.8 -2.1,-5.7 -1,-3.8 -1.3,-7.7 -0.8,-11.2 l 0.1,-0.7 0.2,-0.6 0.1,-0.4 0.1,-0.2 0.1,-0.6 c 0.2,-0.7 0.4,-1.2 0.7,-1.9 0.7,-1.2 1.6,-2.4 2.9,-3.7 2.6,-2.6 6.3,-5.3 10.2,-8 8,-5.3 16.5,-11 24.6,-17.2 4.1,-3.1 8,-6.4 11.9,-9.7 l 2.9,-2.6 2.8,-2.5 c 2.3,-2.3 4.5,-4.7 6.4,-7.6 3.7,-5.6 5.7,-12.3 6.2,-18.6 0.6,-6.5 0.1,-12.5 -0.8,-18.2 -0.9,-5.8 -2.3,-11.2 -4,-16.6 -1.6,-5.3 -3.7,-10.4 -5.8,-15.4 -1.9,-4.6 -4.1,-9.1 -6.3,-13.4 0,0 0,-0.1 -0.1,-0.2 -0.8,-2.1 -10.4,-28.2 13,-8.9 0.4,0.3 0.7,0.7 1.1,1 0.2,0.1 0.4,0.4 0.7,0.6 1.7,1.6 3.4,3 5,4.6 6.4,6 12.3,12.5 17.4,19.4 5.1,6.8 9.1,14.2 11.6,21.8 0.7,1.9 1.1,3.7 1.6,5.8 l 1.5,7 2.8,14.2 2.8,14.3 c 1,4.8 2,9.7 3.6,14.7 1.5,5 3.8,10.2 6.8,14.7 1.5,2.2 3.2,4.2 4.8,6.2 1.9,2.2 3.9,4.1 6,5.7 4.2,3.4 8.9,5.9 13.6,7.8 2.3,1 4.8,1.9 7.2,2.6 2.5,0.8 4.8,1.4 7.6,2 l 0.6,0.1 0.5,0 c 1.8,-0.1 3.1,-0.3 4.6,-0.6 1.4,-0.2 2.8,-0.6 4.2,-1 2.8,-0.7 5.5,-1.7 8.1,-3 5.2,-2.4 10,-6 13.8,-10.5 3.9,-4.4 6.7,-9.6 8.5,-15 0.8,-2.7 1.4,-5.5 1.8,-8.2 0.5,-3 0.5,-5.9 0.2,-8.9 -0.6,-6.1 -3.5,-12 -7.8,-16.2 -4.4,-4.2 -9.8,-7 -15.4,-8.4 -5.5,-1.5 -11.4,-1.9 -17.1,-1.1 -5.5,0.9 -11.2,2.6 -16.1,6.8 -0.1,0.1 -0.3,0.3 -0.4,0.4 l 0,0 c -2,2 -2.2,5 -0.4,6.7 1.7,1.8 4.6,1.5 6.6,-0.4 0,0 0,0 0,0 l 0,-0.1 c 2.7,-2.6 7,-4.4 11.4,-5.1 4.5,-0.6 9.3,-0.3 13.8,0.8 4.4,1.2 8.6,3.2 11.7,6.3 3,3 4.9,7 5.3,11.2 0.3,2.1 0.2,4.5 -0.1,6.6 -0.4,2.4 -1,4.7 -1.8,7 -1.6,4.4 -3.8,8.4 -6.9,11.8 -3,3.3 -6.9,5.9 -11.1,7.7 -2.1,1 -4.3,1.7 -6.5,2.2 -1.1,0.2 -2.3,0.5 -3.4,0.6 -0.8,0.2 -1.8,0.2 -2.5,0.3 -1.8,-0.4 -3.8,-1.1 -5.7,-1.8 -2.1,-0.8 -4.1,-1.6 -6.1,-2.6 -4,-1.9 -7.7,-4.1 -10.8,-6.8 -1.6,-1.3 -3,-2.9 -4.2,-4.3 -1.2,-1.7 -2.5,-3.5 -3.5,-5.3 -2.1,-3.6 -3.4,-7.3 -4.3,-11.6 -1.8,-8.5 -2.1,-18 -2.3,-27.4 0,-4.7 0,-9.4 0,-14.3 l 0.2,-7.2 c 0,-2.7 -0.2,-5.6 -0.5,-8.3 -1.3,-11.1 -4.8,-21.5 -9.1,-31.2 -4.4,-9.7 -9.6,-18.8 -15.3,-27.5 -5.7,-8.8 -11.8,-17 -18.3,-25 -0.4,-0.6 -0.9,-1.1 -1.3,-1.6 5.5,3.2 11.1,6.2 17.1,9 5.1,2.2 10.3,4.4 15.9,6.1 5.7,1.7 11.8,3.1 18.6,3.5 6.7,0.4 14.5,-0.3 22,-3.9 3.7,-1.7 7,-4.1 9.8,-6.9 2.8,-2.7 5,-5.9 6.6,-8.7 0.6,-1.1 1.1,-2.2 1.6,-3.4 0.6,-1.1 1.2,-2.1 1.8,-3.2 l 3.5,-6.4 6.8,-12.8 c 4.4,-8.5 8.8,-17 13.6,-24.5 2.4,-3.8 5,-7.2 7.8,-10 1.4,-1.3 2.9,-2.5 4.3,-3.4 0.7,-0.4 1.4,-0.8 2.1,-1.1 0.9,-0.3 1.7,-0.6 2.6,-0.8 3.6,-0.9 7.6,-1.1 11.5,-0.6 2,0.3 4,0.8 5.9,1.4 1,0.3 2,0.7 2.9,1.1 l 1.4,0.6 1.1,0.6 0.8,0.4 -0.3,-0.2 c 0.2,0.1 0.7,0.4 1.1,0.7 0.5,0.2 0.9,0.5 1.3,0.7 0.8,0.6 1.7,1.2 2.5,1.8 1.6,1.3 3.1,2.8 4.4,4.4 2.6,3.2 4.4,6.8 5.2,10.7 0.8,4 0.6,8.2 -0.6,12.4 -0.6,2.1 -1.2,4.2 -2.2,6.3 -0.8,1.8 -1.8,3.8 -3,5.4 -2.4,3.3 -5.6,5.8 -9.4,7 -3.8,1.3 -8.1,1.2 -12.1,0 -4.1,-1.1 -7.9,-3.2 -11.1,-6 -3.1,-2.7 -5.4,-6.1 -6.2,-9.7 0,-0.1 0,-0.2 -0.1,-0.4 -0.2,-0.7 -0.6,-1.4 -1.2,-1.9 -1.8,-1.8 -4.6,-1.8 -6.3,0 -1.4,1.3 -1.6,3.4 -0.8,5 1.6,5.5 5,10 8.8,13.4 4.2,3.8 9.1,6.6 14.6,8.2 5.4,1.5 11.4,1.8 17.1,0.1 5.7,-1.6 10.8,-5.4 14.3,-10 1.8,-2.3 3.2,-4.6 4.5,-7.2 1.1,-2.4 2.1,-5 3,-7.6 1.6,-5.3 2.2,-11.1 1.4,-17 -0.7,-5.8 -3.2,-11.4 -6.6,-16.1 -1.7,-2.3 -3.7,-4.4 -5.8,-6.4 -1.1,-1 -2.2,-1.9 -3.4,-2.7 -0.6,-0.4 -1.2,-0.8 -1.8,-1.2 -0.6,-0.3 -1,-0.7 -1.8,-1.1 -0.7,-0.5 -1.2,-0.7 -1.8,-1.1 -0.6,-0.3 -1.2,-0.7 -1.8,-0.9 -1.2,-0.6 -2.5,-1.2 -3.8,-1.7 -2.5,-1 -5.2,-1.8 -7.9,-2.3 -5.4,-1.2 -11.2,-1.4 -16.9,-0.3 -1.5,0.3 -3,0.6 -4.3,1.1 -1.5,0.4 -3,1.1 -4.4,1.7 -2.9,1.3 -5.3,3.1 -7.5,4.8 -4.5,3.6 -8,7.5 -11.4,11.4 -3.4,3.8 -6.5,7.8 -9.4,11.7 l -8.8,11.6 -8.6,11.4 -4.3,5.6 c -0.8,0.9 -1.5,1.8 -2.3,2.8 -0.8,0.9 -1.6,1.7 -2.4,2.6 -2.2,2.1 -3.8,2.5 -5.3,2.5 -1.5,0 -3.5,-0.3 -6.2,-1.2 -5.5,-1.9 -12.3,-6.1 -18.7,-11.2 -6.4,-5.1 -12.8,-11.1 -18.8,-17.4 -0.4,-0.4 -0.8,-0.8 -1.1,-1.2 6.9,-6.1 13.6,-12.4 20.1,-19.4 4,-4.5 8.1,-9.1 11.6,-14.5 3.6,-5.3 7,-11.5 9.3,-18.6 2.2,-7.1 3,-15.5 1.3,-23.2 -0.8,-3.9 -2.2,-7.4 -3.8,-10.7 -0.5,-0.8 -0.7,-1.3 -1,-1.8 l -0.9,-1.6 -1.7,-3.1 c -4.5,-8.3 -8.8,-16.7 -12.3,-25.1 -3.6,-8.4 -6.4,-17 -7.1,-25 -0.3,-3.9 -0.2,-7.6 0.9,-11.1 0.2,-0.9 0.5,-1.7 0.9,-2.5 0,-0.1 0.2,-0.5 0.4,-0.8 0.2,-0.3 0.4,-0.7 0.6,-1 0.9,-1.4 2.1,-2.7 3.5,-4 5.8,-5.1 14.5,-9 22.6,-11.3 l -0.3,0 0.4,-0.1 c 0,0.1 0,0.1 -0.1,0.1 l 0.2,-0.1 c 0.4,0 0.9,0 1.3,0.1 0.9,0 1.8,0.1 2.7,0.2 1.8,0.3 3.6,0.7 5.4,1.3 3.5,1.2 6.8,3.2 9.6,5.8 2.9,2.5 5.2,5.7 7,9.3 l 0.7,1.4 0,0 0,0 0,0 0,0.1 0.2,0.4 0.3,0.8 c 0.3,0.8 0.7,1.7 1,2.7 0.5,1.8 0.9,3.7 0.9,5.5 0.2,3.5 -0.7,6.8 -2.8,9.6 -2,2.8 -5.1,5 -8.6,6.3 -3.5,1.3 -7.4,2 -11.2,1.8 -3.8,-0.2 -7.3,-0.5 -10.8,-1.8 -2.5,-1.3 -5.5,-0.4 -6.9,2.1 -1.4,2.3 -0.9,5.3 1.2,6.9 l 0.2,0.2 c 0.5,0.1 0.8,0.4 1.2,0.6 4.8,2.4 9.8,3.3 14.8,3.3 5.3,0 10.6,-1 15.6,-3.1 4.8,-2.1 9.6,-5.3 13,-10 3.4,-4.7 5.1,-10.6 4.9,-16.2 0,-2.8 -0.5,-5.5 -1.2,-8 -0.3,-1.3 -0.7,-2.5 -1.2,-3.9 l -0.7,-1.8 -0.8,-1.7 c -2.1,-4.6 -5,-9.1 -8.6,-13 -3.6,-3.8 -8.2,-7 -13.2,-9.2 -2.5,-1.1 -5,-1.9 -7.7,-2.6 -1.3,-0.2 -2.6,-0.5 -4,-0.6 -0.7,-0.1 -1.4,-0.2 -2.1,-0.2 l -1.1,0 c -0.4,0 -0.7,0 -1.3,0 l -0.3,0 -0.6,0.1 c -2.9,0.6 -5.3,1.2 -7.8,1.9 -2.5,0.8 -5,1.6 -7.5,2.6 -5,2 -9.9,4.4 -14.7,7.9 -2.3,1.7 -4.6,3.8 -6.6,6.3 -0.6,0.6 -1.1,1.3 -1.5,1.9 -0.5,0.7 -0.9,1.3 -1.5,2.2 -0.7,1.3 -1.4,2.7 -2.1,4.1 -2.5,5.7 -3.7,11.7 -4,17.5 -0.4,5.8 0.1,11.3 0.8,16.6 0.7,5.3 1.8,10.5 3,15.5 2.4,10.1 15.9,51.1 -7.7,56.1 0,0 0,0.1 -0.2,0.1 -2.8,0.9 -49.2,13.9 -111.2,-43.8 -19.4,-17.9 13.1,-46.1 13.1,-46.1 7,-7 14.1,-14 21.1,-22.1 3.5,-4.1 6.8,-8.5 9.6,-14 1.4,-2.8 2.5,-5.9 3,-9.3 0.3,-1.7 0.4,-3.4 0.4,-5.2 0,-0.4 -0.1,-0.9 -0.1,-1.3 l -0.1,-0.5 0,-0.5 -0.1,-1.2 -0.2,-1.1 c -1,-6.1 -3.3,-11.7 -6.4,-16.5 -1.6,-2.3 -3.2,-4.7 -5.2,-6.8 -0.9,-1.1 -1.9,-2.1 -2.9,-3 -0.5,-0.5 -1.1,-0.9 -1.6,-1.4 -0.6,-0.5 -1,-0.9 -1.8,-1.5 -0.5,-0.6 -0.9,-0.7 -1.5,-1.1 -0.6,-0.5 -1.2,-0.9 -1.8,-1.3 -1.2,-0.8 -2.5,-1.5 -3.8,-2.1 -2.5,-1.3 -5.2,-2.4 -8.1,-3.2 -5.6,-1.5 -11.7,-1.7 -17.4,-0.4 -5.7,1.2 -10.9,3.9 -15.3,7.3 -2.1,1.7 -4.3,3.6 -6,5.4 -2,2.1 -3.8,4.3 -5.2,6.8 -3,4.9 -4.8,10.9 -4.3,16.8 0.3,5.9 2.7,11.4 6.1,15.9 3.3,4.6 7.6,8.2 12.6,10.9 4.8,2.6 10.4,4.1 16.3,3.6 1.2,0 2.5,-0.4 3.5,-1.4 1.8,-1.8 1.8,-4.7 0.2,-6.4 -1.2,-1.1 -2.8,-1.5 -4.3,-1.1 -3.7,0.6 -7.9,-0.4 -11.6,-2.4 -3.8,-2 -7.1,-4.9 -9.7,-8.4 -2.5,-3.4 -4,-7.5 -4.1,-11.4 -0.2,-4 1.1,-7.9 3.3,-11.3 1.1,-1.8 2.6,-3.4 4,-4.8 1.7,-1.6 3.4,-3 5.2,-4.2 3.5,-2.5 7.5,-4.2 11.4,-4.8 4,-0.7 8.1,-0.2 11.9,1.2 1.9,0.6 3.8,1.6 5.5,2.6 0.8,0.5 1.7,1.2 2.5,1.8 0.4,0.3 0.8,0.7 1.2,0.9 0.3,0.3 0.8,0.7 0.9,0.9 l -0.2,-0.3 0.7,0.7 0.9,0.9 1,1.1 c 0.7,0.8 1.4,1.6 2,2.4 1.2,1.7 2.4,3.4 3.4,5.2 1.9,3.6 2.9,7.5 3.1,11.2 l 0.1,0.7 0,1.2 0,0.1 0,0.1 c 0,0.2 0,0.3 0,0.6 -0.1,0.7 -0.2,1.5 -0.4,2.2 -0.4,1.4 -1.1,2.9 -2.1,4.5 -1.9,3.1 -4.8,6.3 -8.1,9.5 -6.6,6.2 -14.3,12.2 -22,18.3 l -11.7,9.1 -5.8,4.7 -3.7,3 -1,0.9 c -0.7,0.6 -1.4,1.2 -1.9,1.8 -2.6,2.7 -4.8,5.8 -6.6,9.3 -1.7,3.4 -2.9,7.1 -3.6,10.7 -1.3,7.3 -0.7,14.2 0.5,20.3 2.5,12.4 7.2,22.7 12.1,32.6 2.5,4.8 5,9.4 7.7,13.9 0,0 0,0.1 0.1,0.2 0,0 0,0 0.1,0.1 0,0 0,0 0,0 0,0 -43.2,-20.5 -59.8,-22.8 0,0 0,0 0,0 -1.3,-0.3 -2.6,-0.6 -3.9,-0.9 -7.9,-1.6 -16.2,-1.9 -24.3,-0.9 -2,0.2 -4,0.6 -6,1 l -2.9,0.6 -2.8,0.8 c -3.2,0.9 -6.2,1.6 -9.3,2.4 -6.2,1.5 -12.4,2.7 -18.2,3.2 -2.9,0.3 -5.7,0.5 -8.3,0.2 -2.6,-0.2 -5,-0.5 -7.5,-1.2 -2.5,-0.8 -5.4,-2 -8.7,-3.3 -1.7,-0.6 -3.4,-1.3 -5.2,-1.9 l -0.9,-0.3 -0.8,-0.3 c -0.6,-0.2 -1.1,-0.5 -1.6,-0.8 -4.2,-2.1 -8.1,-5.8 -11.1,-10.2 -0.7,-1.2 -1.4,-2.3 -1.9,-3.5 l -0.4,-0.8 c -0.2,-0.3 -0.1,-0.1 -0.2,-0.5 -0.2,-0.5 -0.4,-1.2 -0.5,-1.8 -0.7,-2.5 -1.1,-5.3 -1.3,-8 -0.3,-5.4 0.8,-10.3 3.4,-14.4 2.5,-4.1 6.8,-7.2 12.1,-9.5 5.4,-2.3 11.1,-3.6 16.1,-3 5.1,0.5 9.3,3 12.3,7.3 5.9,8.3 6.1,22.1 -0.3,31 l 0,0 c -1.4,1.4 -1.2,4 0.5,5.8 1.7,1.7 4.3,1.9 5.7,0.5 l 0,0 c 0.1,-0.1 0.2,-0.2 0.3,-0.3 5.2,-5.8 8.1,-13.1 8.9,-20.7 0.7,-7.7 -0.6,-15.8 -4.8,-22.9 -2.1,-3.6 -5,-6.8 -8.7,-9.2 -3.5,-2.5 -7.6,-4.1 -11.8,-4.8 -8.4,-1.4 -16.4,0.1 -23.4,2.6 -7.2,2.5 -14.8,7 -19.9,14" />
            <path inkscape:connector-curvature="0" id="path50" style="fill:#c1d82f;fill-opacity:1;fill-rule:nonzero;stroke:none" d="m 1733.1,1143.5 c -41.2,-41.2 -89.3,-73.2 -143,-94.9 -51.8,-21 -106.6,-31.6 -162.8,-31.6 l 0,0 c -56.2,0 -111,10.6 -162.8,31.6 -53.7,21.8 -101.8,53.7 -143,94.9 -168.7,168.7 -168.7,443.1 0,611.8 41.2,41.2 89.3,73.2 143,94.9 51.8,21 106.6,31.6 162.9,31.6 56.2,0 111,-10.7 162.9,-31.6 53.7,-21.7 101.8,-53.7 143,-94.9 41.2,-41.2 73.2,-89.3 94.9,-143 21,-51.8 31.6,-106.6 31.6,-162.9 0,-56.2 -10.7,-111 -31.6,-162.8 -21.8,-53.7 -53.7,-101.8 -94.9,-143 z m 10.6,622.3 c -84.4,84.4 -196.8,130.9 -316.4,130.9 -119.7,0 -232.1,-46.5 -316.4,-130.9 C 1026.5,1681.4 980,1569 980,1449.3 c 0,-119.7 46.5,-232 130.9,-316.4 84.4,-84.4 196.7,-130.9 316.4,-130.9 119.7,0 232.1,46.4 316.4,130.9 174.5,174.5 174.5,458.4 0.1,632.9" />
            <path inkscape:connector-curvature="0" id="path52" style="fill:#c1d82f;fill-opacity:1;fill-rule:nonzero;stroke:none" d="m 1647.5,1229.1 c -58.7,-58.8 -136.9,-91.1 -220.2,-91.1 -83.3,0 -161.5,32.4 -220.2,91.1 -58.8,58.8 -91.1,136.9 -91.1,220.2 0,83.3 32.3,161.5 91,220.2 58.8,58.8 137,91.1 220.3,91.1 83.3,0 161.5,-32.3 220.2,-91.1 58.8,-58.7 91.1,-137 91.1,-220.2 0,-83.3 -32.3,-161.5 -91.1,-220.2 z m 10.6,451 c -61.6,61.6 -143.5,95.4 -230.8,95.4 -87.3,0 -169.2,-33.9 -230.8,-95.5 -61.6,-61.5 -95.4,-143.5 -95.4,-230.8 0,-87.3 33.9,-169.2 95.5,-230.8 61.5,-61.5 143.5,-95.4 230.8,-95.4 87.3,0 169.2,33.9 230.7,95.4 61.5,61.6 95.5,143.5 95.5,230.8 0,87.3 -33.9,169.3 -95.4,230.8" />
            <path inkscape:connector-curvature="0" id="path54" style="fill:#ffffff;fill-opacity:1;fill-rule:nonzero;stroke:none" d="m 1698.8,1676.9 c -2.7,3.2 -5.5,6.4 -8.2,9.5 l 37.1,33.4 c 3.2,-3.5 6.3,-7.3 9.4,-10.9 l -38.3,-32 z m -44.3,44.2 15.6,19.5 16.2,19 c 3.9,-3.3 7.3,-6.2 10.7,-9.3 l -33.3,-37.1 c -3,2.7 -6,5.3 -9.1,7.9 z m 73.9,-85.1 c -2.2,3.6 -4.5,7.2 -6.9,10.6 l 41.5,27.8 c 2.7,-4 5.3,-8 7.9,-12.2 l -42.5,-26.2 z m -115.3,115 26.2,42.5 c 4.1,-2.5 8,-5.1 12.1,-7.7 l -27.6,-41.6 c -3.6,2.3 -7.1,4.6 -10.7,6.8 z m 138.7,-159.8 c -1.7,3.9 -3.4,7.7 -5.3,11.6 l 45,21.6 c 2.1,-4.4 4,-8.8 6,-13.2 l -45.7,-20 z m -183.4,183.2 19.8,45.8 c 4.4,-1.9 8.8,-3.9 13.1,-5.9 l -21.4,-45.1 c -3.8,1.8 -7.7,3.5 -11.5,5.2 z m 200.2,-230.7 c -1.1,4 -2.3,8.1 -3.5,12.1 l 47.6,15 c 1.4,-4.6 2.8,-9.2 4.1,-13.9 l -48.2,-13.1 z m -247.8,247.4 13.1,48.2 c 4.7,-1.2 9.2,-2.6 13.8,-4.1 l -14.8,-47.7 c -4,1.3 -8.1,2.5 -12.1,3.5 z m 257.7,-297 c -0.6,4.2 -1.1,8.3 -1.8,12.5 l 49.3,8.1 c 0.7,-4.8 1.4,-9.5 2.1,-14.3 l -49.5,-6.2 z m -307.3,306.8 6.1,49.5 c 4.8,-0.6 9.5,-1.2 14.3,-2 l -7.9,-49.3 c -4.1,0.7 -8.3,1.2 -12.5,1.8 z m 310.1,-357.2 c 0.1,4.2 0.1,8.4 0,12.6 l 49.9,1.1 c 0.1,-4.8 0.1,-9.7 0,-14.5 l -49.9,0.8 z m -360.5,359.8 -0.9,49.9 c 4.8,0.2 9.6,0.1 14.4,0.1 l -0.7,-49.9 c -4.2,0.1 -8.5,0 -12.7,0 z m 356.1,-410.2 c 0.7,4.1 1.2,8.3 1.8,12.5 l 49.5,-6.1 c -0.5,-4.8 -1.2,-9.5 -1.9,-14.2 l -49.3,7.7 z m -406.5,405.6 -7.9,49.3 c 4.7,0.8 9.5,1.4 14.2,2 l 6.2,-49.5 c -4.2,-0.5 -8.4,-1.1 -12.5,-1.8 z m 446.8,-455.7 c -1.2,-4.6 -2.6,-9.2 -4,-13.8 l -47.6,14.7 c 1.2,4.1 2.4,8.1 3.5,12.2 l 48.2,-13.1 m -495.9,444.1 -14.8,47.6 c 4.6,1.5 9.2,2.8 13.8,4.1 l 13.2,-48.1 c -4.1,-1.1 -8.1,-2.3 -12.2,-3.6 z m 425.9,-490.1 c 1.8,3.8 3.5,7.6 5.2,11.4 l 45.8,-19.8 c -1.8,-4.4 -3.9,-8.8 -5.9,-13.2 l -45,21.5 z m -473,471.7 -21.5,45.1 c 4.4,2.1 8.8,4.1 13.2,6 l 19.8,-45.9 c -3.9,-1.6 -7.7,-3.4 -11.5,-5.2 z m 448.1,-515.6 c 2.3,3.5 4.6,7 6.8,10.6 l 42.5,-26.2 c -2.5,-4.1 -5.1,-8.1 -7.8,-12.1 l -41.5,27.7 z m -491.9,490.6 -27.7,41.5 c 4,2.7 8,5.3 12.2,7.8 l 26.2,-42.5 c -3.6,-2.2 -7.2,-4.5 -10.6,-6.8 z m 460.9,-530.6 c 2.6,2.9 5.2,5.9 7.7,8.9 l 39.1,-31.1 -0.4,-0.5 c -3.2,-3.9 -6.2,-7.2 -9.1,-10.6 l -37.3,33.2 z m -500.8,499.6 -33.4,37.1 c 3.6,3.3 7.2,6.4 10.9,9.5 l 32.1,-38.3 c -3.2,-2.7 -6.5,-5.5 -9.6,-8.3 z m 496.7,-573 -32.1,38.2 c 3.2,2.7 6.4,5.5 9.5,8.3 l 33.5,-37.1 c -3.6,-3.2 -7.2,-6.4 -10.9,-9.5 z m -570.1,568.6 0.2,0.2 c 3,3.6 6.1,7.2 9.2,10.7 l 37.1,-33.4 c -2.7,-3 -5.4,-6.2 -8.1,-9.3 l -0.8,-0.9 -14.1,13 -23.6,19.7 z m 523.3,-602.5 -26.2,42.5 c 3.6,2.2 7.2,4.5 10.7,6.8 l 27.8,-41.4 c -4.1,-2.7 -8.1,-5.4 -12.2,-7.9 z m -557,555.8 c 2.5,4.1 5.1,8.1 7.8,12.1 l 41.5,-27.8 c -2.4,-3.5 -4.6,-7 -6.8,-10.6 l -42.5,26.3 z m 505.9,-582.5 -19.9,45.8 c 3.8,1.7 7.7,3.4 11.5,5.2 l 21.6,-45 c -4.3,-2.1 -8.7,-4.1 -13.1,-6 z m -532.6,531.4 c 1.9,4.4 3.9,8.8 5.9,13.1 l 45.1,-21.5 c -1.8,-3.8 -3.6,-7.6 -5.3,-11.5 l -45.7,19.9 z m 478.3,-550.6 -13.2,48.1 c 4.1,1.1 8.1,2.4 12.2,3.6 l 15,-47.7 c -4.6,-1.4 -9.2,-2.8 -13.9,-4.1 z m -497.4,496.3 c 1.2,4.6 2.6,9.2 4,13.8 l 47.7,-14.8 c -1.2,-3.9 -2.4,-8 -3.5,-12.1 l -48.2,13.1 z m 440.9,-507.6 -6.4,49.5 c 4.2,0.6 8.4,1.1 12.6,1.8 l 8,-49.3 c -4.7,-0.8 -9.5,-1.5 -14.2,-2.1 z m -452.1,451.1 c 0.6,4.8 1.3,9.5 2,14.3 l 49.3,-7.9 c -0.6,-4.1 -1.2,-8.3 -1.8,-12.5 l -49.6,6.1 z m 394.6,-454.3 0.7,49.9 c 4.2,-0.1 8.4,-0.1 12.6,0 l 1.1,-49.9 c -4.8,-0.1 -9.6,-0.1 -14.4,-0.1 z m -397.6,396.8 c -0.1,4.8 -0.1,9.7 0,14.5 l 49.9,-0.9 c -0.1,-4.3 -0.1,-8.4 0,-12.7 l -49.9,-0.9 z m 340.2,-391.8 7.8,49.3 c 4.2,-0.7 8.3,-1.3 12.5,-1.8 l -6.1,-49.6 c -4.7,0.6 -9.5,1.2 -14.2,2 z m -335.1,334.5 c -0.8,4.8 -1.4,9.5 -2,14.3 l 49.5,6.2 c 0.5,-4.2 1.1,-8.4 1.8,-12.5 l -49.3,-8 z m 279,-321.5 14.8,47.7 c 4,-1.2 8,-2.4 12.1,-3.5 l -13,-48.2 c -4.7,1.2 -9.3,2.6 -13.9,4 z m -265.9,265.4 c -1.4,4.6 -2.8,9.2 -4.1,13.9 l 48.2,13.1 c 1.2,-4 2.3,-8.1 3.6,-12.1 l -47.7,-14.8 z m 212.2,-244.5 21.4,45.1 c 3.8,-1.8 7.7,-3.5 11.6,-5.2 l -19.9,-45.8 c -4.4,1.9 -8.8,3.9 -13.1,5.9 z m -191.2,190.8 c -2.1,4.3 -4.1,8.7 -6,13.2 l 45.8,19.8 c 1.6,-3.9 3.4,-7.7 5.2,-11.6 l -45.1,-21.4 z m 141,-162.4 27.6,41.6 c 3.5,-2.4 7.1,-4.6 10.7,-6.8 l -26.2,-42.6 c -4,2.5 -8.1,5.1 -12.1,7.8 z m -112.5,112.2 c -2.7,4 -5.3,8.1 -7.8,12.2 l 42.5,26.1 c 2.2,-3.6 4.5,-7.1 6.8,-10.7 l -41.5,-27.7 z m 66,-76.1 33.3,37.2 c 3.2,-2.8 6.4,-5.6 9.6,-8.3 l 1.1,-0.9 -32.2,-38.1 -0.6,0.5 c -4,3.4 -7.6,6.4 -11.1,9.7 z m -30.6,30.6 c -3.2,3.6 -6.3,7.2 -9.4,10.9 l 38.3,32 c 2.7,-3.2 5.5,-6.4 8.3,-9.5 l -37.1,-33.4" />
            <path inkscape:connector-curvature="0" id="path56" style="fill:#c1d82f;fill-opacity:1;fill-rule:nonzero;stroke:none" d="m 1397.8,1953.1 c 0,16.6 13.4,30 30,30 16.6,0 30,-13.4 30,-30 0,-16.6 -13.4,-30 -30,-30 -16.6,0 -30,13.4 -30,30 z M 1050,1784.6 c -11.7,11.8 -11.7,30.7 0,42.5 11.7,11.7 30.7,11.7 42.4,-0.1 11.7,-11.7 11.7,-30.7 0,-42.4 -5.9,-5.8 -13.5,-8.8 -21.2,-8.8 -7.7,0 -15.4,3 -21.2,8.8 z m 713.1,-0.2 c -11.7,11.7 -11.7,30.7 0,42.4 11.7,11.8 30.7,11.8 42.4,0.1 11.7,-11.7 11.8,-30.7 0,-42.5 -5.8,-5.8 -13.5,-8.8 -21.2,-8.8 -7.6,0 -15.3,3 -21.2,8.8 z M 923.4,1419.5 c -16.5,0.1 -29.9,13.5 -29.9,30.1 0,16.5 13.4,29.9 30,29.9 16.6,0 30,-13.4 30,-30 0,-16.5 -13.5,-30 -30,-30 l -0.1,0 z m 978.4,29.7 c 0,16.6 13.4,30 30,30 16.6,0.1 30,-13.4 30,-29.9 l 0,-0.1 c 0,-16.5 -13.4,-29.9 -30,-30 -16.5,0 -30,13.5 -30,30 z m -138.3,-377.8 c -11.8,11.7 -11.8,30.7 -0.1,42.4 11.7,11.7 30.7,11.8 42.4,0 11.7,-11.7 11.8,-30.7 0.1,-42.4 -5.9,-5.9 -13.6,-8.8 -21.3,-8.8 -7.6,0 -15.3,2.9 -21.1,8.8 z m -713.2,-0.9 c -0.1,0.2 -0.2,0.3 -0.3,0.4 -0.3,0.2 -0.5,0.5 -0.8,0.7 l 0.1,0 c -11.8,11.8 -11.7,30.8 0,42.5 11.7,11.7 30.7,11.6 42.4,-0.1 0.2,-0.2 0.4,-0.3 0.5,-0.5 0.2,-0.1 0.3,-0.3 0.5,-0.5 11.7,-11.7 11.8,-30.6 0.1,-42.4 -5.9,-5.9 -13.6,-8.8 -21.3,-8.8 -7.6,0 -15.3,2.9 -21.2,8.7 z M 1398.2,944.8 c 0,16.6 13.4,30 30,30 16.6,0.1 30,-13.3 30.1,-29.9 0,-16.6 -13.5,-30 -30,-30.1 -16.6,0 -30,13.4 -30.1,30" />
            <path inkscape:connector-curvature="0" id="path58" style="fill:#000000;fill-opacity:1;fill-rule:nonzero;stroke:none" d="m 2273.6,1113.6 149.3,-258.6 -298.7,0 149.3,258.6 z m 0,62.7 -203.6,-352.6 407.2,0 -203.6,352.6" />
            <path inkscape:connector-curvature="0" id="path60" style="fill:#000000;fill-opacity:1;fill-rule:nonzero;stroke:none" d="m 580.5,1113.6 149.3,-258.6 -298.7,0 149.3,258.6 z m 0,62.7 -203.6,-352.6 407.2,0 -203.6,352.6" />
            <path inkscape:connector-curvature="0" id="path62" style="fill:#000000;fill-opacity:1;fill-rule:nonzero;stroke:none" d="m 1427.8,2584.2 149.3,-258.6 -298.7,0 149.3,258.6 z m 0,62.6 -203.6,-352.6 407.2,0 -203.6,352.6" />
          </g>
        </g>
      </g>
      <path inkscape:connector-curvature="0" id="path72" style="fill:#000000;fill-opacity:1;fill-rule:nonzero;stroke:none" d="m 271.7,35.5 c -0.6,0 -1.2,-0.1 -1.7,-0.3 -0.5,-0.2 -1,-0.5 -1.4,-1 -0.4,-0.4 -0.8,-0.9 -1,-1.4 -0.2,-0.5 -0.3,-1.1 -0.3,-1.7 0,-0.6 0.1,-1.1 0.3,-1.7 0.2,-0.5 0.5,-1 1,-1.4 0.4,-0.4 0.9,-0.8 1.4,-1 0.5,-0.2 1.1,-0.3 1.7,-0.3 0.6,0 1.2,0.1 1.7,0.3 0.5,0.2 1,0.5 1.4,1 0.4,0.4 0.7,0.9 1,1.4 0.2,0.5 0.3,1.1 0.3,1.7 0,0.6 -0.1,1.2 -0.3,1.7 -0.2,0.5 -0.5,1 -1,1.4 -0.4,0.4 -0.9,0.8 -1.4,1 -0.5,0.2 -1.1,0.3 -1.7,0.3 z m 0,0.7 c 0.7,0 1.3,-0.1 1.9,-0.4 0.6,-0.2 1.1,-0.6 1.6,-1.1 0.5,-0.5 0.9,-1 1.1,-1.6 0.2,-0.6 0.4,-1.2 0.4,-2 0,-0.7 -0.1,-1.3 -0.4,-1.9 -0.2,-0.6 -0.6,-1.1 -1.1,-1.6 -0.5,-0.5 -1,-0.9 -1.6,-1.1 -0.6,-0.2 -1.2,-0.4 -1.9,-0.4 -0.7,0 -1.3,0.1 -1.9,0.4 -0.6,0.2 -1.2,0.6 -1.6,1.1 -0.5,0.5 -0.9,1 -1.1,1.6 -0.2,0.6 -0.4,1.2 -0.4,1.9 0,0.7 0.1,1.4 0.4,2 0.2,0.6 0.6,1.1 1.1,1.6 0.5,0.5 1,0.9 1.6,1.1 0.6,0.2 1.2,0.4 1.9,0.4 z m -0.2,-2.8 -0.8,0 0,-1.9 0.8,0 c 0.5,0 0.8,0.1 1,0.2 0.2,0.1 0.3,0.4 0.3,0.7 0,0.3 -0.1,0.6 -0.3,0.7 -0.2,0.1 -0.5,0.2 -1,0.2 z m 0,0.7 c 0.8,0 1.4,-0.1 1.8,-0.4 0.4,-0.3 0.6,-0.7 0.6,-1.2 0,-0.4 -0.1,-0.7 -0.4,-1 -0.2,-0.2 -0.6,-0.4 -1,-0.5 0.1,0 0.2,-0.2 0.4,-0.3 0.2,-0.2 0.3,-0.4 0.5,-0.8 l 0.9,-1.5 -1.2,0 -0.9,1.4 c -0.3,0.4 -0.5,0.7 -0.7,0.8 -0.2,0.1 -0.4,0.2 -0.6,0.2 l -0.5,0 0,-2.4 -1,0 0,5.7 1.9,0 z" />
    </g>
  </g>
</svg>