<?xml version='1.0' encoding='utf-8'?>
<svg xmlns="http://www.w3.org/2000/svg" version="1.1" id="Layer_1" x="0px" y="0px" viewBox="0 0 909 450" enable-background="new 0 0 909 450" xml:space="preserve" fill="currentColor">
<g>
	<g>
		<polygon fill="#F43745" points="391.7,189.6 478.1,138.9 396.2,199.2 861,208.9 409.6,217.1 474.9,255.9 392.8,219.1 421.5,275.8 378.1,218.8 337.3,279.7 361.7,220.8 305.1,250.4 346.1,220.8 36.7,215.1 363.1,201.5 264.7,104.2 372.6,196 308.5,28.3 381.3,186.2 425.3,53.8" />
	</g>
	<g>
		<path d="M133.3,265.9c6.6,0,12.1,0.6,16.4,1.6c4.3,1.1,7.8,2.9,10.3,5.4 c2.5,2.5,4.3,5.8,5.3,9.9c1,4.1,1.6,9,1.6,14.9v18.5c0,4.2-0.9,7-2.7,8.7 c-1.8,1.6-4.6,2.4-8.4,2.4H57.7v4.7c0,6.1,1.5,10.5,4.4,13.2c2.9,2.7,8.6,4.1,17,4.1 h81.1c2.3,0,3.5,1.2,3.5,3.5v16.3c0,2.3-1.2,3.5-3.5,3.5H76.4c-8.8,0-16.2-0.7-22.1-2.1 c-5.9-1.4-10.6-3.7-14.2-6.9c-3.6-3.2-6.1-7.3-7.7-12.2c-1.6-5-2.3-11-2.3-18V305.4 c0-7,0.8-13,2.3-18c1.6-5,4.1-9.1,7.7-12.3c3.6-3.2,8.3-5.5,14.2-7 c5.9-1.5,13.3-2.2,22.1-2.2H133.3z M57.7,310h78.7c2.2,0,3.3-1.1,3.3-3.3v-8.2 c0-4-0.8-6.9-2.5-8.6c-1.7-1.7-4.8-2.5-9.3-2.5H79.1c-8.4,0-14.1,1.3-17,4 c-2.9,2.7-4.4,7.1-4.4,13.3V310z" />
		<path d="M293.1,265.9c8.7,0,16,0.7,22,2.2c6,1.5,10.7,3.8,14.3,7 c3.6,3.2,6.1,7.3,7.7,12.3c1.6,5,2.3,11,2.3,18v28c0,7-0.8,13-2.3,18 c-1.6,5-4.1,9.1-7.7,12.2c-3.6,3.2-8.3,5.5-14.3,6.9c-6,1.4-13.3,2.1-22,2.1h-72.9 v38.7c0,2.8-1.4,4.3-4.3,4.3h-19.1c-3,0-4.5-1.4-4.5-4.3V305.4c0-7,0.8-13,2.3-18 c1.6-5,4.1-9.1,7.7-12.3c3.6-3.2,8.3-5.5,14.2-7c5.9-1.5,13.3-2.2,22.1-2.2H293.1z M220.2,349.3h70.2c4.3,0,7.8-0.3,10.5-1c2.7-0.6,4.9-1.8,6.5-3.5c1.6-1.7,2.8-3.9,3.4-6.6 c0.6-2.7,1-6.2,1-10.3v-17.3c0-4-0.3-7.4-1-10.2c-0.7-2.8-1.8-5-3.4-6.6 c-1.6-1.6-3.8-2.8-6.5-3.5c-2.7-0.7-6.2-1.1-10.5-1.1h-49c-4.2,0-7.6,0.4-10.3,1.1 c-2.7,0.7-4.9,1.9-6.5,3.5c-1.6,1.6-2.8,3.8-3.4,6.6c-0.7,2.8-1,6.2-1,10.2V349.3z" />
		<path d="M391.1,265.9c2.8,0,4.3,1.5,4.3,4.5v98c0,2.9-1.4,4.3-4.3,4.3h-19.1 c-2.9,0-4.3-1.4-4.3-4.3v-98c0-3,1.4-4.5,4.3-4.5H391.1z" />
		<path d="M525.5,265.9c2.3,0,3.5,1.2,3.5,3.5v16.3c0,2.3-1.2,3.5-3.5,3.5h-51.7 c-4.1,0-7.6,0.4-10.3,1.1c-2.7,0.7-4.9,1.9-6.5,3.5c-1.6,1.6-2.8,3.8-3.4,6.6 c-0.7,2.8-1,6.2-1,10.2v57.7c0,2.9-1.4,4.3-4.3,4.3h-19.1c-3,0-4.5-1.4-4.5-4.3V305.4 c0-7,0.8-13,2.3-18c1.6-5,4.1-9.1,7.7-12.3c3.6-3.2,8.3-5.5,14.2-7 c5.9-1.5,13.3-2.2,22.1-2.2H525.5z" />
		<path d="M636.1,265.9c8.7,0,16,0.7,22,2.2c6,1.5,10.7,3.8,14.3,7 c3.6,3.2,6.1,7.3,7.7,12.3c1.6,5,2.3,11,2.3,18v51.7c0,3.1-0.2,5.7-0.7,7.7 c-0.5,2-1.2,3.6-2.3,4.8c-1.1,1.2-2.6,2-4.4,2.4c-1.8,0.5-4.2,0.7-7,0.7h-92.6 c-5.7,0-10.5-0.6-14.3-1.7c-3.8-1.1-6.9-2.8-9.2-5c-2.3-2.2-4-5.1-5-8.6 c-1-3.5-1.5-7.6-1.5-12.4v-9.3c0-4,0.5-7.6,1.5-10.8c1-3.2,2.6-5.9,5-8.1 c2.3-2.2,5.4-3.9,9.2-5c3.8-1.1,8.6-1.7,14.3-1.7h79.1v-3.7c0-3.1-0.3-5.8-1-8 c-0.7-2.2-1.8-4-3.3-5.3c-1.6-1.4-3.7-2.4-6.4-3c-2.7-0.6-6.2-1-10.5-1h-81.3 c-2.3,0-3.5-1.2-3.5-3.5v-16.3c0-2.3,1.2-3.5,3.5-3.5H636.1z M649,351.2c2.1,0,3.5-0.5,4.4-1.5 c0.8-1,1.3-2.7,1.3-5.2v-17.1h-71.2c-4,0-6.8,0.8-8.5,2.4c-1.6,1.6-2.4,4-2.4,7.1 v4.1c0,3.5,0.8,6.1,2.4,7.7c1.6,1.6,4.4,2.4,8.5,2.4H649z" />
		<path d="M844,265.9c1.4,0,2.4,0.5,2.8,1.5c0.5,1,0.4,2.1-0.3,3.4l-74.7,131.6 c-2.6,4.5-6.3,7.9-11,10c-4.7,2.1-11.3,3.2-19.7,3.2h-13.6c-2.3,0-3.5-1.2-3.5-3.5 v-15.9c0-2.3,1.2-3.5,3.5-3.5h11.5c4.9,0,8.2-1.5,9.9-4.5l10.5-18.5c-3.2-0.3-5.7-1-7.5-2.3 c-1.8-1.3-3.4-3.3-5-6l-52.5-90.6c-0.7-1.3-0.7-2.4-0.3-3.4c0.5-1,1.4-1.5,2.8-1.5 h22.4c2.2,0,3.8,0.9,4.7,2.7l43.2,74.9c1,1.8,1.9,3,2.4,3.6c0.6,0.6,1.3,0.9,2.2,0.9 l45.7-79.3c0.9-1.8,2.5-2.7,4.7-2.7H844z" />
	</g>
</g>
</svg>