<?xml version='1.0' encoding='utf-8'?>
<svg xmlns="http://www.w3.org/2000/svg" viewBox="0 0 194 106" fill="currentColor">
  <path class="cls-1" d="m114.4,105.7c-1.4-2.7-8.6-21.7-8.7-23.1 0.7-0.2,1.1 0.3,1.5 0.6,2.1,1.5,4.1,3,6.2,4.5 0.5 0.4,1,0.8,1.7 0.8 0.7-0.4 0.8-1.1 0.8-1.8,0-5.9 0-11.9 0-17.8,0-1.7-0.8-2.9-2.3-3.7-1-0.6-2-1.1-2.9-1.9-0.2-2.2-0.4-4.5-0.9-6.8-1-4.7-2.8-9-5.8-12.8-1.4-1.8-3-3.4-5-4.7-1.7-1.1-3.4-1.2-5.1,0-2.7,1.9-4.8,4.3-6.5,7.2-2.2,3.9-3.7,8.1-4.2,12.6-0.2,1.3-0.2,2.7-0.4,3.9-0.7,1.1-1.8,1.7-2.9,2.2-1.9,1-2.7,2.6-2.7,4.7 0,5.6,0,11.2,0,16.9,0,0.8 0,1.5 0.7,2.1 0.8 0.1,1.3-0.4,1.9-0.8,2.2-1.6,4.3-3.1,6.5-4.7 0.4-0.3 0.7-0.6,1.2-0.5-0.2,1.4-7.5,20.9-8.8,23.3-10.9-3.9-19.8-10.4-26.4-19.8-6.9-9.8-10.4-20.7-10.1-32.6 0.5-15.6,6.4-29,18.2-39.5C70.7,4.6,82.9 0,96.8,0c26.7 0,50.4,19.6,53.8,47.8,3.3,27.1-13.8,50.5-36.2,57.8Z" />
  <path class="cls-1" d="m150.1,85.5c2.9-5,4.9-10.1,6.3-15.4,2.6-0.8,5.3-1.6,7.8-2.5,4.1-1.4,7.9-3.1,11.4-5.8,1.1-0.9,2.1-1.9,2.8-3.1,1.4-2.2,1.4-4.4,0-6.7-0.9-1.4-2-2.5-3.3-3.4-4.3-3.1-9.2-5-14.2-6.5-1.3-0.4-2.7-0.8-4.1-1.3-1.3-5.3-3.2-10.4-5.8-15.5,2.3 0.5,4.3 0.8,6.2,1.3,6.3,1.5,12.6,3.3,18.4,6.1,4.4,2.1,8.5,4.6,11.9,8.2,2.8,3.1,4.8,6.6,5.5,10.7,1.1,6.2-0.4,11.7-4.3,16.6-2.9,3.6-6.5,6.2-10.6,8.4-6.3,3.4-13.1,5.5-20.1,7.2-2.2 0.5-4.3 1-6.5,1.5-0.4 0.1-0.9 0.1-1.6 0.1Z" />
  <path class="cls-1" d="m42.1,25.4c-2.7,5-4.5,10-5.7,15.3-0.8 0.7-1.9 0.8-2.8,1.1-5.3,1.6-10.5,3.5-15.1,6.7-1.4 1-2.5,2.1-3.4,3.5-1.4,2.2-1.4,4.4 0,6.7,1.1,1.8,2.8,3.1,4.5,4.3,4.4,2.9,9.4,4.6,14.4,6.1 0.9 0.3,1.9 0.4,2.8,1,1.3,5.3,3.5,10.3,6.4,15.5-2.2-0.5-4.1-0.8-6-1.3-5.8-1.3-11.6-3-17.1-5.3-4.5-1.9-8.8-4.3-12.5-7.6-3.6-3.3-6.2-7.3-7.1-12.2-1.1-5.9 0.3-11.2,3.8-16.1,2.6-3.6,6.1-6.3,10-8.4,5.3-3,11-5,16.8-6.7,3.5-1,7.1-1.9,11.1-2.6Z" />
</svg>