<?xml version="1.0" encoding="UTF-8"?>
<svg xmlns="http://www.w3.org/2000/svg" viewBox="0 0 193.48 105.76" fill="currentColor">
  <path class="cls-1" d="m114.43,105.66c-1.42-2.72-8.56-21.74-8.68-23.08.66-.16,1.05.32,1.49.64,2.06,1.5,4.1,3.03,6.16,4.53.51.37,1,.8,1.71.76.71-.41.8-1.1.8-1.82,0-5.94.02-11.87-.01-17.81,0-1.66-.84-2.91-2.28-3.74-.99-.57-1.99-1.13-2.92-1.94-.19-2.25-.37-4.52-.86-6.76-1.03-4.66-2.82-8.99-5.78-12.77-1.42-1.81-3.03-3.44-4.97-4.72-1.72-1.14-3.37-1.23-5.12,0-2.71,1.91-4.85,4.32-6.49,7.18-2.24,3.91-3.68,8.08-4.25,12.58-.17,1.33-.23,2.66-.37,3.94-.71,1.14-1.83,1.68-2.89,2.22-1.94,1.01-2.72,2.61-2.72,4.68-.01,5.62,0,11.24,0,16.85,0,.77.02,1.54.73,2.08.79.12,1.3-.4,1.86-.8,2.17-1.57,4.34-3.13,6.51-4.7.36-.26.67-.61,1.18-.52-.17,1.38-7.55,20.89-8.83,23.29-10.86-3.89-19.76-10.38-26.44-19.84-6.9-9.78-10.43-20.73-10.07-32.65.46-15.62,6.42-29.01,18.17-39.47C70.68,4.57,82.88.01,96.82,0c26.69-.03,50.36,19.65,53.81,47.82,3.31,27.08-13.8,50.55-36.2,57.84Z"/>
  <path class="cls-1" d="m150.12,85.46c2.89-5.03,4.93-10.09,6.31-15.45,2.64-.84,5.26-1.62,7.84-2.5,4.06-1.38,7.93-3.13,11.37-5.75,1.13-.86,2.08-1.87,2.84-3.07,1.4-2.21,1.39-4.43,0-6.65-.86-1.37-1.97-2.49-3.27-3.44-4.28-3.12-9.15-4.97-14.16-6.49-1.34-.41-2.67-.82-4.13-1.27-1.26-5.31-3.16-10.4-5.85-15.54,2.28.47,4.26.82,6.22,1.29,6.32,1.52,12.55,3.34,18.43,6.14,4.39,2.09,8.52,4.62,11.87,8.23,2.84,3.06,4.83,6.6,5.55,10.71,1.07,6.16-.43,11.71-4.34,16.63-2.88,3.61-6.54,6.21-10.55,8.37-6.33,3.4-13.12,5.51-20.07,7.2-2.16.53-4.33.99-6.51,1.46-.42.09-.87.08-1.56.14Z"/>
  <path class="cls-1" d="m42.08,25.4c-2.69,5.01-4.47,10.03-5.73,15.27-.8.7-1.85.79-2.81,1.09-5.3,1.65-10.52,3.46-15.1,6.74-1.37.98-2.54,2.13-3.43,3.55-1.39,2.21-1.39,4.43-.01,6.65,1.14,1.84,2.77,3.14,4.55,4.29,4.44,2.85,9.37,4.56,14.38,6.06.91.27,1.86.43,2.81,1.04,1.34,5.27,3.45,10.35,6.36,15.48-2.23-.47-4.14-.84-6.04-1.28-5.83-1.34-11.56-3-17.09-5.34-4.55-1.93-8.84-4.29-12.5-7.62-3.61-3.29-6.23-7.27-7.12-12.16-1.07-5.87.26-11.24,3.77-16.05,2.65-3.63,6.14-6.27,10-8.45,5.3-2.98,10.96-5.05,16.81-6.66,3.55-.97,7.11-1.85,11.13-2.6Z"/>
</svg>
