<?xml version="1.0" encoding="UTF-8" standalone="no"?>
<svg
   width="254.91609"
   height="284.84433"
   viewBox="0 0 67.446549 75.365062"
   version="1.1"
   id="svg1"
   xml:space="preserve"
   xmlns="http://www.w3.org/2000/svg"
   xmlns:svg="http://www.w3.org/2000/svg"
   fill="currentColor">
   <path d="m 10.331155,75.124028 c 0,-1.14563 2.9998,-2.40477 5.72916,-2.40477 1.56937,0 2.26343,-0.10028 2.35554,-0.34034 0.0808,-0.21068 0.70159,-0.36422 1.62948,-0.40305 1.77108,-0.0741 1.89308,-0.15123 1.29127,-0.81622 -0.33717,-0.37257 -0.37377,-0.55571 -0.13993,-0.70023 0.18033,-0.11146 0.41858,-0.0136 0.5534,0.22732 0.27172,0.48554 1.01649,0.30621 1.01649,-0.24475 0,-0.20271 0.13181,-0.36857 0.2929,-0.36857 0.16109,0 0.22262,0.1831 0.13675,0.40689 -0.17262,0.44984 0.573,0.8791 0.85383,0.49156 0.52033,-0.71805 1.35615,-0.90121 1.68797,-0.36989 0.41636,0.6667 0.81978,0.69172 0.61229,0.038 -0.0901,-0.28392 0.0142,-0.63313 0.24675,-0.82614 0.33029,-0.27412 0.40285,-0.26286 0.40285,0.0625 0,0.64225 0.7816,1.17401 1.06104,0.72187 0.12483,-0.20198 0.16812,-0.46243 0.0962,-0.5788 -0.0719,-0.11636 0.17059,-0.32613 0.5389,-0.46617 0.75679,-0.28773 2.3839,-3.29445 3.22643,-5.96211 1.42687,-4.51781 -0.20487,-13.72908 -2.6829,-15.14513 -1.65812,-0.94752 -5.39025,-0.78129 -5.88934,0.26232 -0.23526,0.49195 -0.55156,0.7276 -0.97658,0.7276 -0.45046,0 -0.65258,0.16872 -0.71317,0.59532 -0.058,0.40805 -0.35167,0.67399 -0.93376,0.84546 -0.55242,0.16272 -0.95733,0.51114 -1.15855,0.99693 -0.30813,0.74389 -1.80791,2.08538 -2.68859,2.40482 -0.25466,0.0924 -0.46302,0.35028 -0.46302,0.57313 0,0.22879 -0.23037,0.40518 -0.52917,0.40518 -0.71648,0 -0.66569,-0.5909 0.13229,-1.53925 0.74511,-0.8855 0.87313,-2.18905 0.26459,-2.69409 -0.34036,-0.28247 -0.39688,-0.19288 -0.39688,0.62906 0,0.92592 -0.36339,1.30544 -0.60104,0.62771 -0.20805,-0.59331 -1.23505,0.92488 -1.07389,1.5875 0.11652,0.47904 0.0326,0.59532 -0.42968,0.59532 -0.4439,0 -0.55567,0.13532 -0.49171,0.59531 0.0668,0.48012 -0.0452,0.59585 -0.57868,0.59811 -0.41435,0.002 -0.75243,0.20883 -0.90499,0.55433 -0.13394,0.30334 -0.55066,0.68471 -0.92604,0.84749 -0.37538,0.16278 -0.89697,0.44911 -1.15909,0.6363 -0.41603,0.29709 -0.57016,0.22652 -1.21305,-0.55539 l -0.73647,-0.89572 -0.55637,0.90023 c -0.30601,0.49513 -0.86147,1.18685 -1.23435,1.53716 -0.37288,0.3503 -0.67797,0.79476 -0.67797,0.98767 0,0.4974 -0.44006,0.43544 -0.64183,-0.0904 -0.12901,-0.33621 -0.24271,-0.36767 -0.47809,-0.13229 -0.55062,0.55061 -0.99675,0.34325 -0.99675,-0.46329 0,-1.17402 -0.25806,-1.60914 -0.95435,-1.60914 -0.83254,0 -0.80078,-0.40491 0.0944,-1.20407 0.66711,-0.59551 0.68896,-0.67263 0.26284,-0.92747 -0.36489,-0.21823 -0.40554,-0.38864 -0.18913,-0.793 0.1516,-0.28327 0.22023,-0.51504 0.15251,-0.51504 -0.0677,0 -0.0158,-0.37414 0.11532,-0.83142 0.30492,-1.06321 0.0708,-1.44115 -0.54655,-0.88242 -0.86408,0.78198 -1.43886,0.40594 -1.52927,-1.00052 -0.0485,-0.75428 0.0306,-1.25439 0.19843,-1.25439 0.49739,0 0.29934,-1.30578 -0.25008,-1.6489 -0.72202,-0.45091 -0.72202,-1.35839 0,-1.12923 0.52342,0.16613 0.74949,-0.22947 0.29253,-0.51189 -0.21336,-0.13186 -0.37508,-0.87139 -0.60948,-2.78714 -0.0586,-0.47916 0.0611,-0.67987 0.44924,-0.75329 0.78633,-0.14872 1.08575,-0.52401 0.71437,-0.89538 -0.17462,-0.17463 -0.3175,-0.75536 -0.3175,-1.29052 0,-0.53516 -0.15878,-1.1048 -0.35284,-1.26586 -0.82157,-0.68184 0.0223,-4.74058 1.44959,-6.971677 0.53954,-0.84343 0.74164,-1.42244 0.6249,-1.79028 -0.1406,-0.44298 0.0148,-0.63161 0.83883,-1.01848 2.3534,-1.10483 3.044,-1.67321 2.46661,-2.03006 -1.66857,-1.03123 1.29766,-4.87017 4.4382,-5.74402 1.53063,-0.42589 2.22413,-0.74951 2.33356,-1.08894 0.22454,-0.6964 -0.13837,-0.92401 -0.55808,-0.35002 -0.40438,0.55302 -0.92202,0.37317 -0.92202,-0.32034 0,-0.25335 -0.12411,-0.58474 -0.27579,-0.73643 -0.19134,-0.19134 -0.15083,-0.37951 0.13229,-0.61448 0.22445,-0.18628 0.40809,-0.48425 0.40809,-0.66216 0,-0.80832 3.21478,-2.27997 5.15133,-2.35814 0.52983,-0.0214 0.88213,-0.22499 1.08182,-0.62521 0.6517,-1.30616 4.12718,-3.57554 4.82003,-3.14733 0.13342,0.0825 0.85747,0.0527 1.60901,-0.0661 1.00293,-0.15854 1.48884,-0.12306 1.8266,0.13339 0.61061,0.46363 0.85704,0.45243 0.85704,-0.0389 0,-0.22285 -0.17859,-0.47371 -0.39688,-0.55747 -0.67026,-0.25721 0.11575,-1.55165 2.48899,-4.0990303 0.27964,-0.30016 0.43695,-0.75168 0.36188,-1.03872 -0.21424,-0.81927 0.69638,-0.98379 1.26594,-0.22871 0.26246,0.34797 0.51512,0.57491 0.56145,0.50432 0.0463,-0.0706 0.21814,-0.36646 0.38179,-0.6575 0.22874,-0.4068 0.57311,-0.52917 1.48917,-0.52917 0.76191,0 1.37772,-0.16697 1.70767,-0.46302 0.59755,-0.53616 1.35211,-0.58397 1.95518,-0.12388 0.98452,0.7511 3.26505,0.24202 4.58607,-1.02374 0.674828,-0.6466 1.474388,-1.16748 1.792088,-1.16748 0.3155,0 1.11708,-0.44965 1.78129,-0.99921 1.36566,-1.12994005 2.57272,-1.73357005 2.9725,-1.48649005 0.14849,0.0918 0.56403,0.009 0.92342,-0.18285 0.46041,-0.2464 0.70698,-0.26466 0.83467,-0.0618 0.0997,0.15834 0.41936,0.33437 0.7104,0.39117 0.37419,0.073 0.50483,0.27624 0.44608,0.69387005 -0.0533,0.37889 0.0889,0.6566 0.3968,0.77474 0.26393,0.10128 0.94974,0.63564 1.52402,1.18746 0.57428,0.55182 1.28869,1.0795 1.58758,1.17262 0.70816,0.22064 0.9313,0.58634 0.93626,1.53442 0.005,0.86837 0.41713,2.30965 0.96382,3.3669 0.48834,0.9443903 0.45898,1.1042903 -0.17242,0.9391703 -0.45771,-0.11969 -1.61094,0.0755 -2.83341,0.47962 -0.59591,0.19699 -0.0473,0.86711 0.84718,1.03492 0.48462,0.0909 1.02673,0.34075 1.20469,0.55518 0.17796,0.21443 0.58878,0.38987 0.91293,0.38987 0.69483,0 2.78723,1.44432 2.78137,1.91989 -0.002,0.18099 -0.11304,0.50134 -0.24625,0.7119 -0.17243,0.27256 -0.0189,0.63719 0.53322,1.26597 0.42648,0.48574 0.77542,1.11714 0.77542,1.40311 0,0.28598 0.16014,0.51996 0.35587,0.51996 1.37306,0 1.76917,2.37512 0.62,3.71766 -1.92305,2.24666 -1.95136,3.54296 -0.0492,2.25211 0.54958,-0.37295 1.07461,-0.6781 1.16673,-0.6781 0.0921,0 0.38112,-0.39668 0.64222,-0.88152 0.75859,-1.4086 2.18711,-1.05846 3.06393,0.751 1.87557,3.87056 1.80127,3.60438 1.17961,4.22604 -0.39581,0.39581 -0.39329,0.45537 0.0324,0.76666 0.52446,0.3835 0.33649,1.48782 -0.25325,1.48782 -1.03275,0 -1.45126,0.86991 -1.23979,2.57701 0.22542,1.819757 0.1545,2.053197 -0.62378,2.053197 -0.34587,0 -0.55821,0.20433 -0.613,0.58989 -0.0461,0.32444 -0.44133,0.84445 -0.87827,1.15558 -0.43694,0.31113 -0.90704,0.86185 -1.04466,1.22384 -0.24168,0.63567 -0.27292,0.64329 -0.91424,0.22308 -0.60043,-0.39341 -0.71968,-0.39607 -1.24548,-0.0278 -0.3198,0.224 -0.77852,0.40727 -1.01937,0.40727 -1.25477,0 -1.20301,2.40115 0.0631,2.92558 1.3927,0.57687 1.55182,3.95853 0.16925,3.59698 -0.25844,-0.0676 -0.53762,-0.0133 -0.6204,0.12065 -0.24167,0.39102 -2.16079,1.29429 -2.7499,1.29429 -0.30335,0 -0.53971,0.17381 -0.53971,0.39688 0,0.21828 -0.22151,0.39687 -0.49224,0.39687 -0.27074,0 -0.915,0.28689 -1.4317,0.63753 -0.5167,0.35065 -1.15839,0.69521 -1.42598,0.76571 -0.43759,0.11528 -0.42849,0.14693 0.0905,0.31458 0.83156,0.26864 0.94626,0.844 0.29012,1.45529 -0.31352,0.29208 -0.45828,0.54372 -0.3217,0.55918 0.13658,0.0155 0.48645,0.0452 0.77749,0.0661 0.85451,0.0614 0.85866,1.35182 0.006,1.91041 -0.66077,0.43296 -0.71189,0.4272 -1.32543,-0.14919 -0.359,-0.33726 -0.81431,-0.53192 -1.04084,-0.445 -0.22147,0.085 -0.56051,-0.003 -0.75341,-0.1962 -0.1929,-0.1929 -0.61306,-0.43399 -0.93369,-0.53575 -0.60384,-0.19166 -0.78087,-0.78959 -0.31839,-1.07542 0.48818,-0.30171 0.27124,-0.65157 -0.64017,-1.03238 -0.88013,-0.36774 -1.61604,-1.25342 -1.30221,-1.56725 0.0856,-0.0856 0.0781,-0.35767 -0.0166,-0.60457 -0.15975,-0.41629 -0.19763,-0.4142 -0.52147,0.0287 -0.23656,0.32353 -0.40854,0.38157 -0.53314,0.17996 -0.10117,-0.16369 0.0593,-0.50584 0.35649,-0.76034 0.29723,-0.2545 0.53646,-0.64463 0.53162,-0.86695 -0.006,-0.29787 -0.13947,-0.24759 -0.50543,0.19109 -0.27315,0.32743 -0.62638,0.59532 -0.78495,0.59532 -0.46704,0 -0.33054,-0.64 0.24085,-1.12924 0.92001,-0.78774 0.36846,-2.04576 -0.89692,-2.04576 -2.39819,0 -3.960888,1.18142 -4.724588,3.57187 -2.65985,8.32551 -2.3501,22.35729 0.49353,22.35729 0.20101,0 0.36548,0.13395 0.36548,0.29766 0,0.19099 0.29046,0.23956 0.81054,0.13555 0.734138,-0.14683 0.793788,-0.10931 0.632758,0.39804 -0.161568,0.50906 -0.0971,0.54831 0.70699,0.4303 0.48662,-0.0714 1.06508,-0.0361 1.28546,0.0784 1.09407,0.5686 3.04227,0.99769 3.2205,0.70931 0.13691,-0.22153 0.36516,-0.21729 0.87787,0.0163 0.38107,0.17362 1.77026,0.31568 3.08708,0.31568 2.25962,0 4.9677,0.52344 5.68905,1.09963 0.16663,0.1331 0.97882,0.35199 1.80487,0.48644 1.63095,0.26544 3.87684,1.25722 4.0475,1.78737 0.0847,0.26308 -5.28275,0.33073 -26.241618,0.33073 -15.67521,0 -26.34809,-0.0976 -26.34809,-0.24106 z m 25.11739,-24.33989 c 2.27422,-3.19384 -1.46765,-9.43991 -4.87248,-8.13335 -0.80619,0.30937 -0.47903,1.74244 0.65717,2.87864 0.63972,0.63972 1.05833,1.30653 1.05833,1.68582 0,0.83807 0.91754,3.21406 1.48208,3.83786 0.62645,0.69223 1.03747,0.62622 1.6749,-0.26897 z m -6.52024,-4.68773 c 0.54965,-0.54965 -1.14794,-2.71501 -2.08165,-2.65528 -1.61317,0.1032 -1.78047,1.38289 -0.315,2.40935 0.58172,0.40745 2.08126,0.56132 2.39665,0.24593 z m 22.017538,-0.10194 c 0.0906,-0.14655 -0.0512,-0.34622 -0.31511,-0.44372 -0.6676,-0.24666 -0.86792,-0.611 -0.87262,-1.5871 -0.004,-0.92665 -0.41956,-1.18283 -1.67627,-1.03449 -1.14659,0.13534 -1.43997,0.56703 -0.96293,1.41693 0.78686,1.40191 3.30809,2.48788 3.82693,1.64838 z m -7.74297,-4.42113 c 0.45436,-0.41119 0.56919,-0.41649 1.21146,-0.056 0.98266,0.55157 2.48497,-0.16015 3.1076,-1.47223 0.82668,-1.74212 -0.22999,-2.40625 -1.27117,-0.79894 -0.32876,0.50752 -0.74657,0.92424 -0.92847,0.92604 -0.40975,0.004 -0.41422,-0.13481 -0.0244,-0.75902 0.16849,-0.26979 0.23296,-0.68175 0.14327,-0.91547 -0.25104,-0.6542 -2.6301,0.66595 -3.23955,1.79764 -0.758688,1.40881 -0.0885,2.26419 1.00125,1.27796 z m -4.175408,-1.0671 c 0.87794,-2.28468 -0.13252,-7.606777 -1.44423,-7.606777 -0.6564,0 -0.64903,1.834287 0.0129,3.201567 0.55477,1.14601 0.55844,1.20813 0.10116,1.71341 -0.45809,0.50619 -0.45451,0.53829 0.10355,0.92917 0.47502,0.33271 0.52709,0.50008 0.29215,0.93906 -0.15724,0.2938 -0.22092,0.70348 -0.14153,0.91039 0.20103,0.52386 0.86186,0.47054 1.07604,-0.0868 z m -4.01921,-3.04271 c 0.0632,-0.1819 -0.16497,-0.66729 -0.50712,-1.07864 -0.72182,-0.86783 -0.80488,-1.50105 -0.19689,-1.50105 0.27901,0 0.36997,-0.14388 0.26459,-0.41851 -0.0883,-0.230187 -0.1606,-0.530107 -0.1606,-0.666497 0,-0.1364 -0.28152,-0.17733 -0.6256,-0.091 -0.43051,0.10805 -0.67545,0.0271 -0.78545,-0.25955 -0.2594,-0.67599 -0.70562,-0.4763 -0.70562,0.31578 0,0.40278 0.29889,1.172187 0.66421,1.709797 0.36531,0.53761 0.77909,1.27962 0.91949,1.64892 0.26784,0.70447 0.93665,0.90559 1.13299,0.34072 z m 24.049598,-4.068727 c 0.62227,-0.1029 1.01397,-0.3307 1.09385,-0.63613 0.0684,-0.26171 0.38105,-0.51568 0.69471,-0.56439 1.19938,-0.18626 0.35871,-0.61415 -1.03818,-0.52843 -1.1059,0.0679 -1.56495,0.22664 -1.91235,0.66146 -0.90134,1.12813 -0.64255,1.36588 1.16197,1.06749 z m -43.037098,-2.74635 c 0.14611,-0.12061 0.68189,-0.25878 1.19063,-0.30705 1.19742,-0.11362 1.1967,-0.59199 -0.001,-0.70194 -0.50933,-0.0468 -1.03421,-0.19065 -1.16642,-0.31975 -0.2643,-0.25811 -2.27317,1.19744 -2.27317,1.64706 0,0.30278 1.80738,0.0471 2.25002,-0.31832 z m 24.85227,-0.85784 c -0.4755,-1.5264 -0.64984,-1.81333 -0.97419,-1.60342 -0.18218,0.1179 -0.62888,0.21436 -0.99269,0.21436 -0.4774,0 -0.68423,0.1599 -0.74329,0.57464 -0.0655,0.45978 0.0236,0.54707 0.44579,0.43667 0.32134,-0.084 0.76077,0.0792 1.12392,0.41754 0.81052,0.75512 1.38188,0.73518 1.14046,-0.0398 z" />
</svg>
