<svg xmlns="http://www.w3.org/2000/svg" viewBox="0 0 24 24" fill="currentColor" stroke="none">
  <path d="m 4.21,4.6 c -0.3,0 -1.8,0.06 -2.89,1.12 -1.72,1.53 -1.28,3.97 -1.23,4.33 0.07,0.45 0.26,1.69 1.21,2.77 1.75,2.14 5.51,2.09 5.51,2.09 0.92,2.15 2.7,4.32 4.06,4.49 h 7.21 c 0.48,-0.01 1.34,-0.39 2.09,-1.28 C 21.65,16.47 24,11.23 24,6.5 23.98,5.69 23.82,4.71 23.19,4.72 c -4.14,0.23 -5.8,0.29 -8.3,0.34 v 4.47 L 14.26,9.23 V 5.06 C 12.42,5.09 6.3,4.77 4.21,4.6 Z m 0.46,1.83 c 0,0 0.27,2.27 0.6,3.6 C 5.55,11.15 6.22,13 6.22,13 5.87,12.96 4.02,12.69 3.17,11.94 1.89,11 1.46,8.79 2.02,7.7 2.45,6.66 3.68,6.43 4.67,6.43 Z m 8.22,2.56 c 0.16,-0.01 0.33,0.03 0.51,0.12 l 0.87,0.42 -0.53,1.07 c -0.25,0 -0.49,0.14 -0.61,0.36 -0.13,0.24 -0.1,0.54 0.07,0.76 l -0.94,1.92 c -0.32,0.01 -0.59,0.22 -0.66,0.53 -0.07,0.3 0.08,0.61 0.35,0.76 0.3,0.15 0.67,0.07 0.87,-0.21 0.19,-0.27 0.16,-0.64 -0.07,-0.88 l 0.92,-1.87 c 0.16,0.02 0.35,-0.03 0.51,-0.16 0.35,0.15 0.69,0.32 1.02,0.51 0.3,0.16 0.4,0.38 0.22,0.85 l -0.7,1.55 c -0.32,0.01 -0.59,0.22 -0.66,0.53 -0.07,0.3 0.08,0.61 0.35,0.76 0.3,0.15 0.67,0.07 0.87,-0.21 0.19,-0.27 0.16,-0.64 -0.07,-0.88 l 0.72,-1.56 c 0.31,-0.54 0.07,-1.18 -0.38,-1.45 -0.47,-0.3 -1.12,-0.58 -1.12,-0.58 0,-0.18 -0.04,-0.35 -0.19,-0.51 l 0.52,-1.06 2.89,1.4 c 0.38,0.19 0.79,0.56 0.51,1.28 -0.24,0.59 -2.1,4.32 -2.1,4.32 -0.15,0.34 -0.54,0.73 -1.14,0.55 C 13.4,16.61 11.91,15.86 10.41,15.13 9.97,14.89 9.75,14.44 10.02,13.84 L 12.09,9.57 C 12.26,9.23 12.54,9 12.89,8.99 Z" />
</svg>
