<svg xmlns="http://www.w3.org/2000/svg" viewBox="0 0 24 24" fill="currentColor" stroke="none">
    <path d="m 0,4 v 13 c 0,2.09 1.07,3 3,3 h 12 c 1.93,0 3,-0.91 3,-3 v -2 c 4.21,0 6,-1.94 6,-5.5 C 24,5.94 22.21,4 18,4 Z m 19.04,2.43 c 0.16,0.01 0.32,0.02 0.46,0.06 C 20.09,6.62 21.5,7.59 21.5,9.5 c 0,1.91 -1,2.78 -2.01,3.01 -1.01,0.23 -1.49,0 -1.49,0 V 6.49 c 0.07,-0.01 0.56,-0.08 1.04,-0.06 z m -7.59,1.11 c 0.86,-0.04 1.66,0.23 2.13,0.74 0.95,1.01 0.62,2.74 -0.09,3.71 C 12.78,12.94 9.17,16.07 9,16.21 8.83,16.07 5.22,12.94 4.52,11.98 3.81,11.02 3.47,9.28 4.42,8.27 5.36,7.28 7.63,7.17 9,8.68 9.68,7.93 10.59,7.58 11.44,7.54 Z" />
</svg>