<svg xmlns="http://www.w3.org/2000/svg" viewBox="0 0 64 64" fill="currentColor" stroke="none">
  <path d="m 20.73,50.43 c -2.86,0 -5.1,-0.37 -6.73,-1.12 -1.63,-0.74 -2.8,-1.76 -3.5,-3.05 -0.7,-1.29 -1.05,-2.77 -1.03,-4.44 0.02,-1.67 0.25,-3.45 0.69,-5.34 l 7.66,-32.04 9.35,-1.45 -8.39,34.75 c -0.16,0.72 -0.25,1.39 -0.27,1.99 -0.02,0.6 0.09,1.14 0.33,1.6 0.24,0.46 0.65,0.84 1.24,1.12 0.58,0.28 1.4,0.46 2.44,0.54 l -1.81,7.42" />
  <path d="m 54.52,30.46 c 0,2.94 -0.48,5.62 -1.45,8.06 -0.97,2.43 -2.3,4.54 -4.01,6.3 -1.71,1.77 -3.76,3.15 -6.15,4.13 -2.39,0.98 -5,1.48 -7.81,1.48 -1.37,0 -2.74,-0.12 -4.1,-0.36 l -2.72,10.92 h -8.93 l 10.02,-41.75 c 1.61,-0.48 3.45,-0.91 5.52,-1.3 2.07,-0.38 4.31,-0.57 6.73,-0.57 2.25,0 4.19,0.34 5.82,1.03 1.63,0.68 2.97,1.62 4.02,2.81 1.05,1.19 1.82,2.58 2.32,4.16 0.5,1.59 0.75,3.29 0.75,5.1 m -21.9,12.37 c 0.68,0.16 1.53,0.24 2.53,0.24 1.57,0 3,-0.29 4.28,-0.88 1.29,-0.58 2.38,-1.4 3.29,-2.44 0.9,-1.05 1.61,-2.3 2.11,-3.77 0.5,-1.47 0.75,-3.09 0.75,-4.86 0,-1.73 -0.38,-3.2 -1.15,-4.4 -0.76,-1.21 -2.09,-1.81 -3.98,-1.81 -1.29,0 -2.49,0.12 -3.62,0.36 l -4.22,17.56" />
</svg>
