<svg xmlns="http://www.w3.org/2000/svg" viewBox="0 0 64 64" fill="currentColor" stroke="none">
  <path d="M 7.11,0 C 3.18,0 0,3.18 0,7.11 V 56.89 C 0,60.82 3.18,64 7.11,64 H 56.89 C 60.82,64 64,60.82 64,56.89 V 7.11 C 64,3.18 60.82,0 56.89,0 Z m 7.42,8.89 c 3.12,0 5.64,2.55 5.64,5.69 0,3.14 -2.52,5.69 -5.64,5.69 -3.12,0 -5.64,-2.55 -5.64,-5.69 0,-3.14 2.53,-5.69 5.64,-5.69 z m 29.36,14.47 c 6.54,0 11.22,3.99 11.22,12.25 V 55.11 H 45.61 V 38.94 c 0,-4.43 -1.69,-6.91 -5.2,-6.91 -3.82,0 -5.81,2.58 -5.81,6.91 V 55.11 H 25.45 V 24.3 h 9.15 v 4.15 c 0,0 2.75,-5.09 9.29,-5.09 z M 9.81,24.3 h 9.54 V 55.11 H 9.81 Z" />
</svg>
