<svg xmlns="http://www.w3.org/2000/svg" viewBox="0 0 64 64" fill="currentColor" stroke="none">
  <path d="M 49,49.5 C 45.03,48.52 33,50 33,57.39 l -2,-0.02 c 0,-7.37 -9.52,-9.16 -16,-7.87 -2.5,-9.87 1.97,-21.22 7.5,-24.5 -1.54,-0.92 -3,-2.06 -3,-5.5 0,-3.44 1.71,-7 6,-7 4.29,0 6,5.5 6,5.5 0,0 -0.72,-1.5 -1.5,-1.5 -2.88,0 -2.82,6 0,6 0.98,0 1.5,-1 1.5,-1 v 1 c -1.73,0.31 -5.86,1.9 -4.5,3.5 1.36,1.6 3.23,3.42 4,4 0.77,0.58 1.25,0.63 2,0 0.75,-0.63 2.38,-2.1 4,-4 1.62,-1.9 -2.55,-3 -4.5,-3.5 v -1 c 0,0 0.54,0.5 1.5,0.5 2.18,0 2.02,-5 0,-5 -0.67,0 -1.5,1 -1.5,1 0,0 2.33,-3.5 6,-3.5 3.67,0 6,2.42 6,5 0,2.58 -1.71,4.39 -4,5 6.09,2.91 12.01,15.12 8.5,25 z M 62,34 C 58.4,31.91 53.47,28.9 52,25 47.47,12.99 47.56,4 32,4 16.44,4 16.64,13.82 12,25 c -2.59,3.82 -6.46,6.92 -10,9 -3.54,2.08 -2.08,4.84 2,3 4.08,-1.84 4.56,-1.26 5,3 0.6,4.11 1.97,7.43 4,10 -7.14,2.38 -8.95,10.02 -3,10 H 27 c 1.25,-0 2.68,-0.51 3.5,-1.5 h 3 c 0.78,1.04 2.28,1.5 3.5,1.5 h 17 c 5.92,0.01 5.44,-7.33 -3,-10 1.86,-2.84 2.63,-5.66 4,-10 1.37,-4.34 1.02,-5.03 5,-3 3.98,2.03 5.6,-0.91 2,-3 z" />
</svg>
