<svg xmlns="http://www.w3.org/2000/svg" viewBox="0 0 64 64" stroke="currentColor" stroke-width="2" stroke-linecap="round" stroke-linejoin="round">
  <path fill="currentColor" d="M 17.25 7 C 13.8 7 11 9.8 11 13.25 L 11 50.75 C 11 47.3 13.8 44.5 17.25 44.5 L 53 44.5 L 53 7 L 17.25 7 z M 24.59 10 L 46 10 L 46 21 C 46 22.42 44.51 22.94 43.54 23.73 C 43.13 24.06 42.36 24.26 42.56 24.94 C 43.06 25.61 43.95 26 44.6 26.55 C 45.51 27 45.86 28.11 45.52 29.05 C 45.08 30 45.03 31.13 44.38 31.98 C 43.48 32.99 41.98 32.57 40.79 32.63 C 40.36 32.57 39.91 32.6 39.77 33.11 C 39.95 33.92 40.27 34.69 40.51 35.48 C 40.95 36.35 40.67 37.42 39.9 38.01 C 39.05 38.5 38.35 39.23 37.47 39.67 C 36.23 40.24 35.14 39.14 34.23 38.46 C 33.78 38.19 33.35 37.54 32.78 37.96 C 32.43 38.59 32.21 39.31 32.06 40.02 C 31.82 41.17 31.3 42 30 42 L 19 42 L 19 15.59 L 24.59 10 z" />
  <path fill="none" d="m 53,44.5 c -5,0 -5,12.5 0,12.5 H 17.25 C 13.8,57 11,54.2 11,50.75" />
  <path fill="currentColor" stroke="none" d="M 40,21 V 16 H 25 v 20 h 5 l 0,-6.25 h 5 v -5 H 30 V 21 Z" />
</svg>
