<svg xmlns="http://www.w3.org/2000/svg" viewBox="0 0 64 64" fill="currentColor" stroke="none">
  <path d="m 31.44,0 c -10.53,0 -12.78,0.65 -13.98,0.82 -6.91,1.02 -13.22,5.89 -14.75,12.85 -0.74,3.43 -0.81,7.23 -0.68,10.71 0.19,5 0.23,9.98 0.69,14.96 0.31,3.31 0.86,6.59 1.64,9.82 1.45,5.96 7.34,10.93 13.11,12.95 6.18,2.11 12.82,2.46 19.18,1.01 0.7,-0.16 1.39,-0.35 2.08,-0.57 1.55,-0.49 3.36,-1.04 4.69,-2.01 0.02,-0.01 0.03,-0.03 0.04,-0.05 0.01,-0.02 0.02,-0.04 0.02,-0.07 V 55.6 c 0,-0.02 -0.01,-0.04 -0.02,-0.06 -0.01,-0.02 -0.02,-0.04 -0.04,-0.05 -0.02,-0.01 -0.03,-0.02 -0.06,-0.03 -0.02,0 -0.04,0 -0.06,0 -4.08,0.97 -8.26,1.46 -12.45,1.46 -7.22,0 -9.15,-3.42 -9.71,-4.85 -0.45,-1.23 -0.73,-2.52 -0.84,-3.82 0,-0.02 0,-0.05 0.01,-0.07 0.01,-0.02 0.02,-0.04 0.04,-0.05 0.02,-0.01 0.04,-0.02 0.06,-0.03 0.02,0 0.04,-0.01 0.07,0 4.01,0.97 8.12,1.46 12.24,1.46 0.99,0 1.98,0 2.97,-0.03 4.15,-0.12 8.52,-0.33 12.6,-1.13 0.1,-0.02 0.2,-0.04 0.29,-0.07 6.44,-1.24 12.57,-5.12 13.19,-14.94 0.02,-0.39 0.08,-4.05 0.08,-4.45 0,-1.36 0.44,-9.68 -0.07,-14.78 -0.91,-6.87 -6.9,-12.29 -14,-13.34 -1.2,-0.17 -5.74,-0.82 -16.26,-0.82 z m -8.78,10.47 c 3.47,0 6.08,1.33 7.83,3.99 l 1.68,2.83 1.69,-2.83 c 1.75,-2.66 4.36,-3.99 7.82,-3.99 2.99,0 5.4,1.05 7.25,3.1 1.78,2.05 2.67,4.83 2.67,8.32 v 17.09 h -6.77 V 22.4 c 0,-3.49 -1.45,-5.27 -4.41,-5.27 -3.25,0 -4.88,2.11 -4.88,6.27 v 9.08 h -6.73 V 23.4 c 0,-4.16 -1.63,-6.27 -4.88,-6.27 -2.94,0 -4.41,1.78 -4.41,5.27 v 16.58 h -6.78 V 21.89 c 0,-3.49 0.89,-6.26 2.68,-8.32 1.84,-2.05 4.25,-3.1 7.24,-3.1 z" />
</svg>
