<svg xmlns="http://www.w3.org/2000/svg" viewBox="0 0 64 64" fill="currentColor" stroke="none">
  <path d="m 15.49,19.78 h 3.2 l 2.32,-3.8 2.32,3.8 h 3.2 l -3.94,-5.72 3.38,-5.36 h -3 l -1.96,3.34 -2,-3.34 h -3 l 3.4,5.36 z m 13.9,-8.22 c -0.68,0.38 -0.98,0.62 -1.28,1.02 -0.54,0.66 -0.84,1.62 -0.84,2.58 0,2.76 2.14,4.88 4.94,4.88 2.8,0 4.9,-2.1 4.9,-4.9 0,-1.06 -0.32,-2.02 -0.9,-2.68 -0.3,-0.34 -0.58,-0.54 -1.18,-0.9 0.86,-0.68 1.24,-1.56 1.24,-2.8 0,-2.3 -1.72,-4.02 -4.04,-4.02 -2.26,0 -4.06,1.8 -4.06,4.06 0,1.1 0.3,1.78 1.22,2.76 z m 2.82,-4.38 c 0.86,0 1.52,0.68 1.52,1.58 0,0.92 -0.66,1.64 -1.5,1.64 -0.84,0 -1.52,-0.7 -1.52,-1.6 0,-0.9 0.66,-1.62 1.5,-1.62 z m -0.04,5.78 c 1.28,0 2.28,1 2.28,2.3 0,1.34 -0.96,2.34 -2.22,2.34 -1.3,0 -2.3,-1.02 -2.3,-2.32 0,-1.28 1,-2.32 2.24,-2.32 z m 11.42,-7.96 -3.86,5.8 c -1.08,1.6 -1.46,2.7 -1.46,4.14 0,2.94 2.2,5.1 5.18,5.1 2.96,0 5.06,-2.2 5.06,-5.3 0,-2.72 -1.72,-4.68 -4.08,-4.68 -0.48,0 -0.74,0.04 -1.2,0.2 l 3.54,-5.26 z m -0.26,7.38 c 1.5,0 2.52,1.08 2.52,2.62 0,1.54 -0.98,2.6 -2.38,2.6 -1.5,0 -2.54,-1.08 -2.54,-2.6 0,-1.52 1,-2.62 2.4,-2.62 z" />
  <path d="m 18.94,22.9 -9.26,13.92 c -2.59,3.84 -3.5,6.48 -3.5,9.94 0,7.06 5.28,12.24 12.43,12.24 7.1,0 12.14,-5.28 12.14,-12.72 0,-6.53 -4.13,-11.23 -9.79,-11.23 -1.15,0 -1.78,0.1 -2.88,0.48 l 8.5,-12.62 z m -0.62,17.71 c 3.6,0 6.05,2.59 6.05,6.29 0,3.7 -2.35,6.24 -5.71,6.24 -3.6,0 -6.1,-2.59 -6.1,-6.24 0,-3.65 2.4,-6.29 5.76,-6.29 z m 14.06,7.25 v 5.18 h 15.31 v 5.33 h 6.38 v -5.33 h 3.74 v -5.71 h -3.74 v -24.43 h -5.38 z m 15.31,-0.53 h -8.83 l 8.83,-13.68 z" />
</svg>
