<?xml version='1.0' encoding='utf-8'?>
<svg xmlns="http://www.w3.org/2000/svg" viewBox="0 0 400 480" stroke="none" fill="#aaaaaa">
<path d="m 80,0 h 320 v 159.92 c 0,4.48 -2.14,8.69 -5.77,11.33 l -43.46,31.57 c -3.63,2.63 -5.77,6.85 -5.77,11.33 v 11.71 c 0,4.48 2.14,8.68 5.77,11.32 l 37.91,27.54 c 4.91,3.56 6.96,9.89 5.08,15.66 l -12.98,39.94 c -1.87,5.77 -7.25,9.68 -13.31,9.68 l -46.86,-0.01 c -4.48,0 -8.68,2.15 -11.32,5.78 l -6.88,9.47 c -2.63,3.62 -3.38,8.29 -2,12.56 l 14.48,44.56 c 1.87,5.77 -0.18,12.08 -5.08,15.65 l -33.97,24.69 c -4.91,3.56 -11.56,3.56 -16.46,0 l -37.9,-27.54 c -3.63,-2.63 -8.29,-3.37 -12.56,-1.98 l -11.13,3.62 c -4.26,1.39 -7.61,4.72 -8.99,8.98 l -14.48,44.56 c -1.87,5.77 -7.25,9.67 -13.31,9.67 L 0,480 V 80 Z M 320,160 V 80 H 80 v 320 h 80 L 160,300.01 240,300 v -80 h -80 v -60 z" />
</svg>
