<?xml version='1.0' encoding='utf-8'?>
<svg xmlns="http://www.w3.org/2000/svg" viewBox="0 0 400 480" stroke="none" fill="#aaaaaa">
<path d="m 80,0 h 320 v 159.9 c 0,4.5 -2.1,8.7 -5.8,11.3 l -43.5,31.6 c -3.6,2.6 -5.8,6.8 -5.8,11.3 v 11.7 c 0,4.5 2.1,8.7 5.8,11.3 l 37.9,27.5 c 4.9,3.6 7,9.9 5.1,15.7 l -13,39.9 c -1.9,5.8 -7.2,9.7 -13.3,9.7 l -46.9,0 c -4.5,0 -8.7,2.1 -11.3,5.8 l -6.9,9.5 c -2.6,3.6 -3.4,8.3 -2,12.6 l 14.5,44.6 c 1.9,5.8 -0.2,12.1 -5.1,15.7 l -34,24.7 c -4.9,3.6 -11.6,3.6 -16.5,0 l -37.9,-27.5 c -3.6,-2.6 -8.3,-3.4 -12.6,-2 l -11.1,3.6 c -4.3,1.4 -7.6,4.7 -9,9 l -14.5,44.6 c -1.9,5.8 -7.2,9.7 -13.3,9.7 L 0,480 V 80 Z M 320,160 V 80 H 80 v 320 h 80 L 160,300 240,300 v -80 h -80 v -60 z" />
</svg>