<svg xmlns="http://www.w3.org/2000/svg" xmlns:dc="http://purl.org/dc/elements/1.1/" xmlns:cc="http://creativecommons.org/ns#" xmlns:rdf="http://www.w3.org/1999/02/22-rdf-syntax-ns#" viewBox="0 0 1800 480" fill="none" version="1.1" id="svg5">
  <path d="M 503.3 353 V 126.9 H 618 V 147.4 H 525.9 V 229.1 H 614.6 V 249.6 H 525.9 V 353 H 503.3 Z M 644.5 353 V 185.6 H 667.2 V 209.5 C 676 191.1 690.4 182.9 714.6 181.6 V 204 C 683.1 207 667.2 224.2 667.2 255.4 V 353 H 644.5 Z M 895.6 276.8 H 744.1 C 745.9 309.9 774.7 336.2 809.3 336.2 C 834.7 336.2 858.2 320.9 867.7 297.9 H 891.3 C 879 333.1 846.3 357 809.9 357 C 760.3 357 721.5 318.1 721.5 268.5 C 721.5 219.9 759.7 181.6 808.1 181.6 C 841.1 181.6 870.8 199.1 885.5 227.2 C 892.8 241.3 895.6 254.5 895.6 276.8 Z M 744.7 256.3 H 872.9 C 865.3 222.9 840.5 202.4 808.1 202.4 C 776.2 202.4 750.8 224.2 744.7 256.3 Z M 1094.6 276.8 H 943.1 C 945 309.9 973.7 336.2 1008.3 336.2 C 1033.7 336.2 1057.3 320.9 1066.7 297.9 H 1090.3 C 1078.1 333.1 1045.3 357 1008.9 357 C 959.3 357 920.5 318.1 920.5 268.5 C 920.5 219.9 958.7 181.6 1007.1 181.6 C 1040.1 181.6 1069.8 199.1 1084.5 227.2 C 1091.8 241.3 1094.6 254.5 1094.6 276.8 Z M 943.7 256.3 H 1072 C 1064.3 222.9 1039.5 202.4 1007.1 202.4 C 975.2 202.4 949.9 224.2 943.7 256.3 Z M 1291.8 290 H 1341 C 1323.3 331.3 1283.2 357 1236.7 357 C 1170.6 357 1117.7 304.7 1117.7 239.2 C 1117.7 175.2 1170 122.9 1233.9 122.9 C 1262.4 122.9 1289.6 132.7 1310.7 150.4 C 1325.1 162.7 1332.5 172.8 1341 191.7 H 1294.2 C 1278.9 171.8 1261.2 163.3 1234.9 163.3 C 1211.6 163.3 1192.3 171.8 1178.5 188.1 C 1166.9 201.5 1159.9 221.1 1159.9 239.5 C 1159.9 281.7 1193.8 316.6 1235.8 316.6 C 1257.5 316.6 1273.1 309.2 1291.8 290 Z M 1345.8 353 L 1440 126.9 H 1473 L 1567.9 353 H 1521.7 L 1497.5 294.6 H 1417 L 1392 353 H 1345.8 Z M 1432.3 254.5 H 1480.7 L 1456.5 185.9 L 1432.3 254.5 Z M 1591.8 353 V 126.9 H 1643.6 C 1680.6 126.9 1707.8 132.7 1726.2 144.6 C 1756.2 163.9 1773 198.5 1773 240.4 C 1773 287.2 1751.6 324.5 1715.8 341.4 C 1697.7 349.6 1677.8 353 1644.5 353 H 1591.8 Z M 1633.8 312.9 H 1643 C 1668 312.9 1685.5 309.5 1698 302.8 C 1718.2 291.8 1730.8 267.6 1730.8 240.4 C 1730.8 210.7 1717 186.2 1694.7 175.2 C 1681.8 169.1 1668 167 1642 167 H 1633.8 V 312.9 Z" fill="currentColor" id="path5" style="stroke:none" />
  <metadata id="metadata1">
    <rdf:RDF>
      <cc:Work rdf:about="">
        <dc:date>2024-06-01</dc:date>
        <dc:creator>
          <cc:Agent>
            <dc:title>Sebastian Tabares Amaya (sytabaresa), Max Wilfinger (maxwxyz)</dc:title>
          </cc:Agent>
        </dc:creator>
        <dc:publisher>
          <cc:Agent>
            <dc:title>The FreeCAD project association AISBL (FPA)</dc:title>
          </cc:Agent>
        </dc:publisher>
      </cc:Work>
    </rdf:RDF>
  </metadata>
  <g id="g1" style="stroke:none">
    <path d="m 400,80 -80,80 H 160 v 60 h 80 v 80 h -80 v 100 l -80,80 h 81 c 6.1,0 11.4,-3.9 13.3,-9.7 l 14.5,-44.6 c 1.4,-4.3 4.7,-7.6 9,-9 l 11.1,-3.6 c 4.3,-1.4 8.9,-0.7 12.6,2 l 37.9,27.5 c 4.9,3.6 11.6,3.6 16.5,0 l 34,-24.7 c 4.9,-3.6 7,-9.9 5.1,-15.6 l -14.5,-44.6 c -1.4,-4.3 -0.6,-8.9 2,-12.6 l 6.9,-9.5 c 2.6,-3.6 6.8,-5.8 11.3,-5.8 l 46.9,0 c 6.1,0 11.4,-3.9 13.3,-9.7 l 13,-39.9 c 1.9,-5.8 -0.2,-12.1 -5.1,-15.7 L 350.8,237.2 c -3.6,-2.6 -5.8,-6.8 -5.8,-11.3 V 214.1 c 0,-4.5 2.1,-8.7 5.8,-11.3 l 43.5,-31.6 C 397.9,168.6 400,164.4 400,159.9 Z" style="fill:#418fde;fill-opacity:1;fill-rule:evenodd;stroke:none;stroke-width:2.6;stroke-linecap:square" id="path8-4-4" />
    <path id="path7-7-2" style="display:inline;fill:#ff585d;fill-opacity:1;fill-rule:evenodd;stroke:none;stroke-width:2.6;stroke-linecap:square" d="m 320,0 -80,80 h 80 v 80 L 400,80 V 0 Z M 80,320 0,400 v 80 h 80 l 80,-80 H 80 Z" />
    <path d="M 80,0 0,80 V 400 L 80,320 V 80 H 240 L 320,0 Z" style="fill:#cb333b;fill-rule:evenodd;stroke:none;stroke-width:2.6;stroke-linecap:square" id="path3-1-7" />
    <path d="m 80,400 h 80 V 300 h 80 V 220 H 160 V 160 H 320 V 80 H 80 Z" style="fill:#ffffff;fill-opacity:1;fill-rule:evenodd;stroke:none;stroke-width:2.6;stroke-linecap:square" id="path9-4-0" />
  </g>
</svg>
